<svg xmlns="http://www.w3.org/2000/svg" viewBox="0 0 150.3 232.15"><defs><style>.cls-1{isolation:isolate;}.cls-2{opacity:0.3;}.cls-3{fill:#666;}.cls-4{fill:#abc26a;}.cls-5{opacity:0.45;}.cls-5,.cls-9{mix-blend-mode:multiply;}.cls-6{fill:#c4d0a2;}.cls-7{fill:#5f4e56;}.cls-8{fill:#cabfde;}</style></defs><title>icon-ambiente</title><g class="cls-1"><g id="Layer_2" data-name="Layer 2"><g id="Layer_1-2" data-name="Layer 1"><g class="cls-2"><path class="cls-3" d="M9.58,142.23l1.89,13.36a2.23,2.23,0,0,0,2.3,1.77h0A2.25,2.25,0,0,1,16.06,159l12.61,65.4c.86,4.49,5.87,7.7,11.77,7.7h66.67c5.9,0,10.91-3.21,11.77-7.7L131.5,159a2.25,2.25,0,0,1,2.29-1.68h0a2.23,2.23,0,0,0,2.3-1.77L138,142.23a2.14,2.14,0,0,0-2.3-2.26H11.88A2.14,2.14,0,0,0,9.58,142.23Z"/></g><g class="cls-2"><path class="cls-3" d="M71.57,103a56,56,0,0,0-1.43-13.33c6.54-24.38,13.18-74-55-77.68-8,2.35-48.76,77,50.24,90.81v.09c0,24.59,9.19,40.72,9.6,41.39l5.2-3.1C80,141,71.13,125.89,71.57,103Z"/></g><path class="cls-4" d="M20.22,3C12.16,5.36-29.24,80.48,71.57,94h0C67.84,96.56,112.25,8,20.22,3Z"/><g class="cls-5"><path class="cls-4" d="M20.22,3C12.16,5.36-29.24,80.48,71.57,94h0c-3.14-1.41,0-5.53-3.19-6.52C29.59,75.41-1,54,20.22,3Z"/></g><path class="cls-6" d="M20.22,3c-1.36,14.92,50.2,48.61,51.35,91h0C67.84,96.56,112.25,8,20.22,3Z"/><path class="cls-7" d="M71.43,97a3,3,0,0,1-1.07-.2C16.67,89.41,3.61,64.75,2.13,45.31.43,23,13.51,1.84,19.38.12a3,3,0,0,1,1-.12c25.45,1.37,43.3,9.21,53.07,23.3,15.87,22.89,5.74,55,1.93,67.15-.32,1-.67,2.13-.88,2.86a3,3,0,0,1-1.21,3.1A3.24,3.24,0,0,1,71.43,97ZM20.84,6C16.95,8.79,5.33,28.83,8.55,48.51c3.62,22.14,24.52,36.65,60.52,42.05.17-.58.37-1.21.59-1.91,3.57-11.34,13-41.45-1.14-61.93C60,14.37,43.92,7.42,20.84,6Z"/><path class="cls-7" d="M80.63,136.74a3,3,0,0,1-2.57-1.45c-.41-.67-10-16.8-9.48-41.39.67-34.27-39.41-69.42-39.81-69.77a3,3,0,0,1,3.93-4.53,167.57,167.57,0,0,1,21.11,23C67.89,61,74.88,78.35,74.57,94c-.45,22.88,8.53,38,8.62,38.18a3,3,0,0,1-2.57,4.55Z"/><path class="cls-8" d="M116.12,219.45H49.44c-5.9,0-10.91-3.32-11.77-7.81l-12.94-67.2H140.82l-12.94,67.2C127,216.12,122,219.45,116.12,219.45Z"/><g class="cls-9"><path class="cls-8" d="M115.6,219.45H66.7c-5.9,0-10.91-3.32-11.77-7.81L42,144.43H140.3l-12.94,67.2C126.5,216.12,121.49,219.45,115.6,219.45Z"/></g><g class="cls-9"><path class="cls-8" d="M99.38,219.45c5.9,0,10.91-3.32,11.77-7.81l12.94-67.2H140.3l-12.94,67.2c-.86,4.49-5.87,7.81-11.77,7.81Z"/></g><g class="cls-2"><path class="cls-3" d="M120.1,66.28S81.73,74.11,91.58,111.7C116.73,115.26,127.13,86.31,120.1,66.28Z"/></g><path class="cls-7" d="M116.12,222.45H49.44c-7.38,0-13.57-4.31-14.72-10.25L21.79,145a3,3,0,0,1,2.95-3.57H140.82a3,3,0,0,1,2.95,3.57l-12.94,67.2C129.69,218.14,123.5,222.45,116.12,222.45Zm-87.75-75,12.25,63.63c.58,3,4.46,5.38,8.83,5.38h66.67c4.37,0,8.24-2.36,8.83-5.38l12.25-63.63Z"/><polygon class="cls-8" points="18.26 125.58 147.3 125.58 144.84 145.55 20.72 145.55 18.26 125.58"/><g class="cls-9"><polygon class="cls-8" points="32.27 125.58 147.3 125.58 144.84 145.55 34.73 145.55 32.27 125.58"/></g><g class="cls-9"><polygon class="cls-8" points="130.54 145.55 133.01 125.58 147.3 125.58 144.84 145.55 130.54 145.55"/></g><path class="cls-7" d="M144.84,148.55H20.72a3,3,0,0,1-3-2.63l-2.46-20a3,3,0,0,1,3-3.37h129a3,3,0,0,1,3,3.37l-2.46,20A3,3,0,0,1,144.84,148.55Zm-121.46-6H142.18l1.72-14H21.65Z"/><path class="cls-4" d="M129.1,54.28S90.73,62.11,100.58,99.7C125.73,103.26,136.13,74.31,129.1,54.28Z"/><path class="cls-6" d="M129.1,54.28S90.73,62.11,100.58,99.7C111.85,91.64,122.62,65.61,129.1,54.28Z"/><path class="cls-7" d="M104.64,102a30.89,30.89,0,0,1-4.33-.31L99,101.5l-.34-1.29c-3-11.59-2-21.67,3.19-29.95C110.62,56.15,128,52.47,128.7,52.32l1.71-.35.58,1.65c4.55,13,2.1,28.88-6,38.71A25.71,25.71,0,0,1,104.64,102Zm-2.44-4.11a21.79,21.79,0,0,0,19.74-8.09c6.87-8.37,9.17-21.74,5.85-33.1-4.42,1.28-16.23,5.51-22.56,15.71C100.87,79.4,99.86,88,102.19,97.88Z"/></g></g></g></svg>