<svg xmlns="http://www.w3.org/2000/svg" viewBox="0 0 178.49 187.69"><defs><style>.cls-1{isolation:isolate;}.cls-2{fill:#e2e2e2;}.cls-3,.cls-8{fill:#ffe252;}.cls-4,.cls-6{fill:#cabfde;}.cls-5{fill:#715d94;}.cls-6{mix-blend-mode:multiply;}.cls-7,.cls-9{fill:none;}.cls-7,.cls-8,.cls-9{stroke:#5f4e56;}.cls-7,.cls-8{stroke-linecap:round;stroke-linejoin:round;stroke-width:6px;}.cls-9{stroke-miterlimit:10;stroke-width:4px;}</style></defs><title>icon-evento</title><g class="cls-1"><g id="Layer_2" data-name="Layer 2"><g id="Layer_1-2" data-name="Layer 1"><polygon class="cls-2" points="104.75 184.69 73.37 184.69 67.43 158.89 111.09 158.89 104.75 184.69"/><path class="cls-3" d="M89.24,3c47.63,0,86.24,29.28,86.24,61.32,0,42.32-51.16,54-64.4,77.33,0,0-29.18-2.75-43.7,0C58.17,113.14,3,115.54,3,64.32,3,32.28,41.61,3,89.24,3Z"/><path class="cls-4" d="M83.31,140.15c0-13-25.58-40.09-22.05-74.4S80.52,4.25,80.52,4.25c6.92-2.49,17.41,0,17.41,0s17.43,20.2,21.1,60.12c3.16,34.34-23.77,62.74-23.77,75.74Z"/><path class="cls-4" d="M104,140.77c.88-17.32,50.36-38,50.72-79.75.26-29.7-35-55.51-54.25-56.66,21-.07,75,18.88,75,60.05S112.18,132,111.3,140.94Z"/><path class="cls-5" d="M74.71,140.77c-.88-17.32-52.22-33.51-52.22-75.21C22.5,25.26,59,5.51,78.24,4.37c-21-.07-75,18.88-75,60.05,0,46.29,42.88,57.14,64.19,76.52Z"/><path class="cls-6" d="M89.24,3l0,137.46c-7.76-.14-16,.07-21.88,1.19C48.5,122.13,3,115.54,3,64.32,3,32.28,41.61,3,89.24,3Z"/><path class="cls-7" d="M89.24,3c47.63,0,86.24,29.28,86.24,61.32,0,42.32-52.67,63.7-64.4,77.33,0,0-29.18-2.75-43.7,0C48.5,122.13,3,115.54,3,64.32,3,32.28,41.61,3,89.24,3Z"/><line class="cls-7" x1="67.49" y1="141.15" x2="67.49" y2="152.15"/><line class="cls-7" x1="110.49" y1="141.15" x2="110.49" y2="152.15"/><rect class="cls-8" x="65.08" y="151.95" width="48.37" height="6.95" rx="3.37" ry="3.37"/><polygon class="cls-6" points="89.25 184.69 73.37 184.69 67.43 158.89 89.26 158.89 89.25 184.69"/><polygon class="cls-7" points="104.75 184.69 73.37 184.69 67.43 158.89 111.09 158.89 104.75 184.69"/><path class="cls-7" d="M69.45,4.33c-22.53,5.16-43,25.93-46.56,56-5.58,47.49,50.72,63.33,51.6,80.49"/><path class="cls-7" d="M100.51,4.33c21.81,1.61,54.5,26.92,54.25,56.62-.36,41.7-49.83,62.67-50.72,79.83"/><path class="cls-7" d="M83.31,140.44c0-13.85-25.58-40.23-22.05-74.54S80.52,4.33,80.52,4.33"/><path class="cls-7" d="M97.93,4.33S115.36,24.65,119,64.57c3.16,34.34-23.77,62-23.77,75.86"/><path class="cls-7" d="M83.31,158.89S81,174.17,72.12,174.17"/><path class="cls-7" d="M95.27,158.89s2.3,15.28,11.19,15.28"/><line class="cls-9" x1="97.49" y1="151.15" x2="97.49" y2="141.15"/><line class="cls-9" x1="81.49" y1="151.15" x2="81.49" y2="141.15"/></g></g></g></svg>