<svg xmlns="http://www.w3.org/2000/svg" viewBox="0 0 32 32"><defs><style>.cls-1{fill:#3aad73;}.cls-2{fill:#4f3923;}.cls-3{opacity:0.2;}.cls-4{opacity:0.15;}</style></defs><title>icon-arvores</title><g id="Layer_2" data-name="Layer 2"><g id="Layer_1-2" data-name="Layer 1"><path class="cls-1" d="M32,15.67c0,4.6-4,8.33-9,8.33s-9-3.73-9-8.33C14,10.67,18.5,4,23,4S32,10.67,32,15.67Z"/><path class="cls-2" d="M23,24a10,10,0,0,1-2-.2V32h4V23.8A10,10,0,0,1,23,24Z"/><path class="cls-3" d="M25,24.81v-1a9.9,9.9,0,0,1-1,.15c-.33,0-.67.05-1,.05s-.68,0-1-.05a9.91,9.91,0,0,1-1-.15v1a10.55,10.55,0,0,0,4,0Z"/><path class="cls-4" d="M23,24a9.94,9.94,0,0,0,1-.06V18.41l2.54-2.54a1,1,0,1,0-1.41-1.42L23,16.59l-2.12-2.12a1,1,0,1,0-1.41,1.41L22,18.42v5.53A10,10,0,0,0,23,24Z"/><path class="cls-1" d="M20,14A10,10,0,1,1,0,14C0,8,5,0,10,0S20,8,20,14Z"/><path class="cls-2" d="M10,24a10,10,0,0,1-2-.2V32h4V23.8A10,10,0,0,1,10,24Z"/><path class="cls-3" d="M12,24.81v-1a9.9,9.9,0,0,1-1,.15c-.33,0-.67.05-1,.05s-.68,0-1-.05a9.91,9.91,0,0,1-1-.15v1a10.55,10.55,0,0,0,4,0Z"/><path class="cls-4" d="M18,6.6A16.58,16.58,0,0,1,20,14a10,10,0,0,1-3.41,7.51,8.88,8.88,0,0,0,.77.64A11,11,0,0,0,21,14a17.64,17.64,0,0,0-2.28-8.12Q18.34,6.21,18,6.6Z"/><path class="cls-4" d="M10.17,24a10,10,0,0,0,1-.05V16.41l2.54-2.54a1,1,0,0,0-1.41-1.42l-2.12,2.12L8.05,12.46a1,1,0,1,0-1.41,1.41l2.54,2.54v7.53A10,10,0,0,0,10.17,24Z"/></g></g></svg>