<svg xmlns="http://www.w3.org/2000/svg" viewBox="0 0 208 195.95"><defs><style>.cls-1{isolation:isolate;}.cls-2,.cls-7{fill:#666;}.cls-2,.cls-6{opacity:0.3;}.cls-3{fill:#cabfde;}.cls-4{mix-blend-mode:multiply;}.cls-5{fill:#5f4e56;}.cls-8{fill:#ffe252;}.cls-9{fill:#fff4bf;}.cls-10{fill:#e2e2e2;}</style></defs><title>icon-festa</title><g class="cls-1"><g id="Layer_2" data-name="Layer 2"><g id="Layer_1-2" data-name="Layer 1"><path class="cls-2" d="M180,77.95H136V46.32a3.07,3.07,0,0,0-1.81-2.71,8.84,8.84,0,0,0,1.59-5.13c0-2.5-1.44-4.86-2.95-7.36a25.4,25.4,0,0,1-3.11-6.42,3,3,0,0,0-4.78-1.59c-3.1,2.48-7.06,11.09-7.06,15.36a9,9,0,0,0,1.74,5.13A2.9,2.9,0,0,0,118,46.32V77.95h-8v-43c0-1.66-1.82-3-3.47-3h-.39c2-2,3.3-4.14,3.3-6.93,0-2.5-1.42-4.86-2.93-7.36a25.37,25.37,0,0,1-3.1-6.42,3,3,0,0,0-4.78-1.59c-3.1,2.48-7.06,11.1-7.06,15.37,0,2.79,1.29,4.93,3.3,6.93h-.39c-1.66,0-3.47,1.33-3.47,3v43H83V53.77a2.83,2.83,0,0,0-1.05-2.44A9,9,0,0,0,83.2,47c0-2.5-1.37-4.86-2.88-7.36a25.27,25.27,0,0,1-3.07-6.42A3,3,0,0,0,72.5,31.6C69.4,34.08,65.45,42.69,65.45,47a8.76,8.76,0,0,0,1,4.37A3.16,3.16,0,0,0,65,53.77V77.95H20.7A20.77,20.77,0,0,0,0,99v23.81a10.29,10.29,0,0,0,3,7.54,10,10,0,0,0,6,2.9v51.74a11,11,0,0,0,11,11H181a11,11,0,0,0,11-11V146.64A10.64,10.64,0,0,0,201,136V99A21,21,0,0,0,180,77.95Z"/><path class="cls-3" d="M19,103.95H196a0,0,0,0,1,0,0v72a8,8,0,0,1-8,8H27a8,8,0,0,1-8-8v-72A0,0,0,0,1,19,103.95Z"/><g class="cls-4"><path class="cls-3" d="M19,103.95H169.49a0,0,0,0,1,0,0v80a0,0,0,0,1,0,0H27a8,8,0,0,1-8-8v-72a0,0,0,0,1,0,0Z"/></g><path class="cls-5" d="M196,100.95H19a3,3,0,0,0-3,3v72a11,11,0,0,0,11,11H188a11,11,0,0,0,11-11v-72A3,3,0,0,0,196,100.95Zm-3,6v63H22v-63Z"/><g class="cls-6"><path class="cls-7" d="M197.2,102.95H17.56l0,30.6a10.82,10.82,0,0,0,10.21-10.67,4.52,4.52,0,0,1,5-4.34,4.77,4.77,0,0,1,4,4.79,10.51,10.51,0,0,0,11.59,10.15,10.78,10.78,0,0,0,9.43-10.59,4.51,4.51,0,0,1,5-4.35,4.78,4.78,0,0,1,4,4.79,10.51,10.51,0,0,0,11.59,10.15,10.78,10.78,0,0,0,9.43-10.59,4.51,4.51,0,0,1,5-4.35,4.78,4.78,0,0,1,4,4.79,10.51,10.51,0,0,0,11.59,10.15,10.78,10.78,0,0,0,9.43-10.59,4.51,4.51,0,0,1,5-4.35,4.78,4.78,0,0,1,4,4.79,10.51,10.51,0,0,0,11.59,10.15,10.78,10.78,0,0,0,9.43-10.59,4.51,4.51,0,0,1,5-4.35,4.78,4.78,0,0,1,4,4.79,10.54,10.54,0,0,0,3.57,7.59,10.44,10.44,0,0,0,8,2.56A10.78,10.78,0,0,0,178,122.89a4.49,4.49,0,0,1,2.26-3.78,4.83,4.83,0,0,1,4.9.12,3.92,3.92,0,0,1,1.86,3.6,10.51,10.51,0,0,0,11.9,10.61Z"/></g><path class="cls-8" d="M9.69,113.77a7.51,7.51,0,0,0,7.73,7.51,7.79,7.79,0,0,0,7.29-7.77A7.51,7.51,0,0,1,33,106.3,7.76,7.76,0,0,1,39.74,114,7.51,7.51,0,0,0,48,121.24a7.76,7.76,0,0,0,6.73-7.69,7.51,7.51,0,0,1,8.29-7.25A7.76,7.76,0,0,1,69.79,114a7.51,7.51,0,0,0,8.29,7.25,7.76,7.76,0,0,0,6.73-7.69,7.51,7.51,0,0,1,8.29-7.25A7.76,7.76,0,0,1,99.84,114a7.51,7.51,0,0,0,8.29,7.25,7.76,7.76,0,0,0,6.73-7.69,7.51,7.51,0,0,1,8.29-7.25,7.76,7.76,0,0,1,6.73,7.69,7.51,7.51,0,0,0,8.29,7.25,7.76,7.76,0,0,0,6.73-7.69,7.51,7.51,0,0,1,8.29-7.25,7.76,7.76,0,0,1,6.73,7.69,7.51,7.51,0,0,0,8.29,7.25,7.76,7.76,0,0,0,6.73-7.69c.15-5.35,5.89-9.29,11.59-6.21,2.27,1.23,3.48,16,3.43,18.56a7.51,7.51,0,0,0,8.51,7.58,7.65,7.65,0,0,0,6.51-7.65c0-3.57,0-26.32,0-35.87a18,18,0,0,0-18-18H27.7a18,18,0,0,0-18,18Z"/><path class="cls-9" d="M27.69,71.95H187a18,18,0,0,1,18,18v0a0,0,0,0,1,0,0H9.69a0,0,0,0,1,0,0v0a18,18,0,0,1,18-18Z"/><path class="cls-5" d="M197.5,137.75A10.51,10.51,0,0,1,187,127c0-.69,0-12.31,0-12.91-.13-3.23-.67-3.52-1.84-4.16a4.83,4.83,0,0,0-4.9-.12,4.48,4.48,0,0,0-2.26,3.78,10.78,10.78,0,0,1-9.43,10.59,10.44,10.44,0,0,1-8-2.56,10.55,10.55,0,0,1-3.57-7.59,4.77,4.77,0,0,0-4-4.79,4.51,4.51,0,0,0-5,4.35,10.78,10.78,0,0,1-9.43,10.59,10.44,10.44,0,0,1-8-2.56,10.55,10.55,0,0,1-3.57-7.59,4.77,4.77,0,0,0-4-4.79,4.51,4.51,0,0,0-5,4.35,10.78,10.78,0,0,1-9.43,10.59,10.51,10.51,0,0,1-11.59-10.15,4.78,4.78,0,0,0-4-4.79,4.51,4.51,0,0,0-5,4.35,10.78,10.78,0,0,1-9.43,10.59,10.51,10.51,0,0,1-11.59-10.15,4.77,4.77,0,0,0-4-4.79,4.51,4.51,0,0,0-5,4.35,10.78,10.78,0,0,1-9.43,10.59,10.51,10.51,0,0,1-11.59-10.15,4.77,4.77,0,0,0-4-4.79,4.51,4.51,0,0,0-5,4.33,10.81,10.81,0,0,1-10.21,10.66A10.51,10.51,0,0,1,6.69,113.77V90a21,21,0,0,1,21-21H187a21,21,0,0,1,21,21V127a10.49,10.49,0,0,1-10.5,10.72Zm-15.05-34.5a11.58,11.58,0,0,1,5.52,1.45c2.91,1.58,4.76,3.67,5,9.22,0,.62,0,13.14,0,13.23a4.51,4.51,0,0,0,5.13,4.56A4.63,4.63,0,0,0,202,127V90a15,15,0,0,0-15-15H27.7a15,15,0,0,0-15,15v23.81A4.48,4.48,0,0,0,14.06,117a4.58,4.58,0,0,0,3.28,1.27,4.81,4.81,0,0,0,4.38-4.87,10.51,10.51,0,0,1,11.59-10.1,10.78,10.78,0,0,1,9.43,10.59,4.51,4.51,0,0,0,5,4.35,4.77,4.77,0,0,0,4-4.79,10.52,10.52,0,0,1,11.59-10.15,10.78,10.78,0,0,1,9.43,10.59,4.51,4.51,0,0,0,5,4.35,4.77,4.77,0,0,0,4-4.79,10.51,10.51,0,0,1,11.59-10.15,10.78,10.78,0,0,1,9.43,10.59,4.51,4.51,0,0,0,5,4.35,4.77,4.77,0,0,0,4-4.79,10.51,10.51,0,0,1,11.59-10.15,10.78,10.78,0,0,1,9.43,10.59,4.51,4.51,0,0,0,5,4.35,4.78,4.78,0,0,0,4-4.79,10.51,10.51,0,0,1,11.59-10.15,10.78,10.78,0,0,1,9.43,10.59,4.51,4.51,0,0,0,5,4.35,4.77,4.77,0,0,0,4-4.79,10.53,10.53,0,0,1,10.5-10.21Z"/><rect class="cls-10" x="101.47" y="25.94" width="12.05" height="46.01"/><rect class="cls-10" x="127.79" y="37.32" width="12.05" height="34.63"/><rect class="cls-10" x="75.34" y="44.77" width="12.08" height="27.18"/><path class="cls-5" d="M113.53,74.95H101.47a3,3,0,0,1-3-3v-46a3,3,0,0,1,3-3h12.05a3,3,0,0,1,3,3v46A3,3,0,0,1,113.53,74.95Zm-9.05-6h6.05v-40h-6.05Z"/><path class="cls-5" d="M139.84,74.95H127.79a3,3,0,0,1-3-3V37.32a3,3,0,0,1,3-3h12.05a3,3,0,0,1,3,3V71.95A3,3,0,0,1,139.84,74.95Zm-9.05-6h6.05V40.32h-6.05Z"/><path class="cls-5" d="M87.42,74.95H75.34a3,3,0,0,1-3-3V44.77a3,3,0,0,1,3-3H87.42a3,3,0,0,1,3,3V71.95A3,3,0,0,1,87.42,74.95Zm-9.08-6h6.08V47.77H78.34Z"/><path class="cls-8" d="M113.43,16a5.93,5.93,0,1,1-11.86,0c0-3.27,3.55-11.11,5.93-13C108.91,8.41,113.43,12.74,113.43,16Z"/><path class="cls-8" d="M139.74,29.49a5.93,5.93,0,0,1-11.86,0c0-3.27,3.55-11.11,5.93-13C135.22,21.88,139.74,26.21,139.74,29.49Z"/><path class="cls-8" d="M87.31,38a5.93,5.93,0,1,1-11.86,0c0-3.27,3.55-11.11,5.93-13C82.79,30.35,87.31,34.69,87.31,38Z"/><path class="cls-5" d="M107.5,24.95A8.94,8.94,0,0,1,98.57,16c0-4.27,4-12.88,7.06-15.36a3,3,0,0,1,4.78,1.59,25.37,25.37,0,0,0,3.1,6.42c1.51,2.5,2.93,4.86,2.93,7.36A8.94,8.94,0,0,1,107.5,24.95ZM106.87,9.2c-1.21,2.44-2.3,5.35-2.3,6.82a2.93,2.93,0,0,0,5.86,0c0-.83-1.15-2.73-2.07-4.26C107.87,10.95,107.36,10.1,106.87,9.2Z"/><path class="cls-5" d="M133.81,38.42a8.94,8.94,0,0,1-8.93-8.93c0-4.27,4-12.88,7.06-15.36a3,3,0,0,1,4.78,1.59,25.37,25.37,0,0,0,3.1,6.42c1.51,2.5,2.93,4.86,2.93,7.36A8.94,8.94,0,0,1,133.81,38.42Zm-.63-15.75c-1.21,2.44-2.3,5.35-2.3,6.82a2.93,2.93,0,0,0,5.86,0c0-.83-1.15-2.73-2.07-4.26C134.19,24.41,133.68,23.56,133.18,22.67Z"/><path class="cls-5" d="M81.38,46.89A8.94,8.94,0,0,1,72.45,38c0-4.27,4-12.88,7.06-15.36a3,3,0,0,1,4.78,1.59,25.37,25.37,0,0,0,3.1,6.42c1.51,2.5,2.93,4.86,2.93,7.36A8.94,8.94,0,0,1,81.38,46.89Zm-.63-15.75c-1.21,2.44-2.3,5.35-2.3,6.82a2.93,2.93,0,1,0,5.86,0c0-.83-1.15-2.73-2.07-4.26C81.75,32.89,81.24,32,80.75,31.14Z"/><path class="cls-5" d="M196,152.95a50.22,50.22,0,0,1-18.66-3.16,44.54,44.54,0,0,0-16.74-2.84,44.54,44.54,0,0,0-16.74,2.84,50.22,50.22,0,0,1-18.66,3.16,50.22,50.22,0,0,1-18.66-3.16,44.54,44.54,0,0,0-16.74-2.84,44.55,44.55,0,0,0-16.74,2.84,50.23,50.23,0,0,1-18.67,3.16,50.23,50.23,0,0,1-18.66-3.16A44.54,44.54,0,0,0,19,146.95v-6a50.23,50.23,0,0,1,18.66,3.16,44.54,44.54,0,0,0,16.74,2.84,44.55,44.55,0,0,0,16.74-2.84,50.23,50.23,0,0,1,18.66-3.16,50.22,50.22,0,0,1,18.66,3.16,44.53,44.53,0,0,0,16.74,2.84,44.54,44.54,0,0,0,16.74-2.84,50.22,50.22,0,0,1,18.66-3.16,50.22,50.22,0,0,1,18.66,3.16A44.53,44.53,0,0,0,196,146.95Z"/></g></g></g></svg>