<svg xmlns="http://www.w3.org/2000/svg" viewBox="0 0 28 32"><defs><style>.cls-1{fill:#469fcc;}.cls-2{fill:#434854;}.cls-3{fill:#eaca44;}.cls-4{fill:#ef4d4d;}.cls-5{opacity:0.3;}.cls-6{fill:#fff;}.cls-7{fill:#dae2e5;}</style></defs><title>Asset 2</title><g id="Layer_2" data-name="Layer 2"><g id="Layer_1-2" data-name="Layer 1"><path class="cls-1" d="M14,0S6,8,6,17c0,8,2,10,2,10,.45.52.81,1,1.5,1h9c.64,0,1-.43,1.5-1,0,0,2-2,2-10C22,8,14,0,14,0Z"/><path class="cls-2" d="M27,23l-5-5.51C21.91,25.07,20,27,20,27a4,4,0,0,1-.66.7L27,30c.53.13,1-.45,1-1V25A3.09,3.09,0,0,0,27,23Z"/><path class="cls-2" d="M8,27S6.09,25,6,17.47L1,23a3.09,3.09,0,0,0-1,2v4c0,.55.47,1.16,1,1l7.67-2.3A5.55,5.55,0,0,1,8,27Z"/><path class="cls-3" d="M12.18,28A3.06,3.06,0,0,0,12,29c0,1.66,1.45,3,2,3s2-1.34,2-3a3.06,3.06,0,0,0-.18-1Z"/><path class="cls-4" d="M13.2,28a2.42,2.42,0,0,0,.8,2.93A2.68,2.68,0,0,0,15,29a3.31,3.31,0,0,0-.2-1Z"/><g class="cls-5"><path d="M22,17.46C21.94,25,20,27,20,27a4,4,0,0,1-.66.7l1.11.33.32-.38c.37-.41,2-2.58,2.21-9.08Z"/><path d="M8,27S6.06,25,6,17.46L5,18.54c.23,6.63,1.9,8.75,2.23,9.1l.09.11.22.25,1.1-.33A5.55,5.55,0,0,1,8,27Z"/></g><path class="cls-6" d="M14,8a4,4,0,1,0,4,4A4,4,0,0,0,14,8Zm0,7a3,3,0,1,1,3-3A3,3,0,0,1,14,15Z"/><circle class="cls-2" cx="14" cy="12" r="3"/><path class="cls-5" d="M14,10a4,4,0,0,1,2.89,1.25,3,3,0,0,0-5.79,0A4,4,0,0,1,14,10Z"/><path class="cls-7" d="M6.32,22H21.68c.09-.6.16-1.27.21-2H6.11C6.16,20.73,6.24,21.4,6.32,22Z"/></g></g></svg>