<svg xmlns="http://www.w3.org/2000/svg" viewBox="0 0 32 23"><defs><style>.cls-1{fill:#dae2e5;}.cls-2{opacity:0.1;}.cls-3{fill:#469fcc;}.cls-4{opacity:0.15;}.cls-5{fill:#ef4d4d;}.cls-6{fill:#434854;}.cls-7{opacity:0.3;}</style></defs><title>Asset 5icon-</title><g id="Layer_2" data-name="Layer 2"><g id="Layer_1-2" data-name="Layer 1"><path class="cls-1" d="M26,11H8A6,6,0,0,0,8,23H26a6,6,0,0,0,0-12Z"/><path class="cls-2" d="M26,21H8a6,6,0,0,1-5.91-5A6,6,0,0,0,8,23H26a6,6,0,0,0,5.91-7A6,6,0,0,1,26,21Z"/><circle class="cls-3" cx="8" cy="17" r="2"/><circle class="cls-3" cx="14" cy="17" r="2"/><circle class="cls-3" cx="20" cy="17" r="2"/><circle class="cls-3" cx="26" cy="17" r="2"/><g class="cls-4"><path d="M26,15a2,2,0,0,0-1.93,2.5,2,2,0,0,1,3.86,0A2,2,0,0,0,26,15Z"/><path d="M20,15a2,2,0,0,0-1.93,2.5,2,2,0,0,1,3.86,0A2,2,0,0,0,20,15Z"/><path d="M14,15a2,2,0,0,0-1.93,2.5,2,2,0,0,1,3.86,0A2,2,0,0,0,14,15Z"/><path d="M8,15a2,2,0,0,0-1.93,2.5,2,2,0,0,1,3.86,0A2,2,0,0,0,8,15Z"/></g><path class="cls-5" d="M20,11,17,6c-.3-.5-.7-1-1.25-1H13a1,1,0,0,0-1,1v5Z"/><path class="cls-6" d="M16,0a3,3,0,0,0-3,3V5h2V3a1,1,0,0,1,1-1h2V0Z"/><polygon class="cls-4" points="12 10 12 11 20 11 19.4 10 12 10"/><path class="cls-5" d="M2,20.5a.5.5,0,0,1-.5.5h0a.5.5,0,0,1-.5-.5v-7a.5.5,0,0,1,.5-.5h0a.5.5,0,0,1,.5.5Z"/><path class="cls-6" d="M2,17a6,6,0,0,1,.09-1H1a1,1,0,0,0,0,2H2.09A6,6,0,0,1,2,17Z"/><path class="cls-7" d="M0,17a1,1,0,0,0,1,1H2.09A6,6,0,0,1,2,17Z"/></g></g></svg>