<svg xmlns="http://www.w3.org/2000/svg" viewBox="0 0 210.01 224.08"><defs><style>.cls-1{isolation:isolate;}.cls-2{opacity:0.3;}.cls-3{fill:#666;}.cls-4{fill:#5f4e56;}.cls-5{fill:#ffe252;}.cls-6{fill:#fff4bf;}.cls-7{mix-blend-mode:multiply;}.cls-8{fill:#e2e2e2;}.cls-9{fill:#b9a9d6;}.cls-10{fill:#cabfde;}</style></defs><title>icon-musica</title><g class="cls-1"><g id="Layer_2" data-name="Layer 2"><g id="Layer_1-2" data-name="Layer 1"><g class="cls-2"><path class="cls-3" d="M204.65,94.34a23.3,23.3,0,0,0-21.82-15.29,23.06,23.06,0,0,0-5,.57,80.21,80.21,0,0,0-28.74-24.18A23.49,23.49,0,0,0,129.94,31.5a23.63,23.63,0,0,0-4.05-.5h0A23.28,23.28,0,0,0,103.8,47.33a80.7,80.7,0,0,0-35.4,13,22.11,22.11,0,0,0-12.52-3.6h0A23.15,23.15,0,0,0,32.89,82a23.07,23.07,0,0,0,6,13.59,81.31,81.31,0,0,0-5.42,18.13c-.2,1.15-.36,2.31-.51,3.46s-.49,2.27-.69,3.42A81,81,0,0,0,31,133.3a23.24,23.24,0,0,0-9.7,27.76,23.29,23.29,0,0,0,21.38,15.27A80.86,80.86,0,0,0,78,207.92,23.35,23.35,0,0,0,96.06,223.7a23.46,23.46,0,0,0,4.06.38,23.14,23.14,0,0,0,18.35-9,80.87,80.87,0,0,0,43.94-17.63A23.22,23.22,0,0,0,188.09,161a80.92,80.92,0,0,0,3.23-12.38c.2-1.13.36-2.26.51-3.39s.5-2.32.7-3.49a81.32,81.32,0,0,0,1.09-18.88A23.25,23.25,0,0,0,204.65,94.34Z"/></g><circle class="cls-4" cx="115.74" cy="125.34" r="77.75" transform="translate(-27.79 217.56) rotate(-80)"/><path class="cls-4" d="M115.91,206.12a81.65,81.65,0,0,1-14.19-1.25,80.38,80.38,0,1,1,14.19,1.25Zm-.33-155.55a74.86,74.86,0,1,0,13.14,1.16A75.71,75.71,0,0,0,115.58,50.57Z"/><circle class="cls-5" cx="129.86" cy="45.28" r="19.22" transform="translate(62.71 165.31) rotate(-80)"/><path class="cls-6" d="M148.79,48.62a19.22,19.22,0,0,1-22.27,15.59l6.68-37.86A19.22,19.22,0,0,1,148.79,48.62Z"/><g class="cls-7"><path class="cls-8" d="M114.05,34.37a19.22,19.22,0,1,0,34.4,6.07,84.4,84.4,0,0,0-34.4-6.07Z"/></g><path class="cls-4" d="M129.84,26.06a19.22,19.22,0,1,1-18.91,15.89,19.33,19.33,0,0,1,18.91-15.89m0-4h0a23.22,23.22,0,0,0-4,46.1,23.42,23.42,0,0,0,4.06.36,23.22,23.22,0,0,0,4-46.1,23.41,23.41,0,0,0-4.05-.36Z"/><circle class="cls-5" cx="186.78" cy="93.05" r="19.22" transform="translate(-20.56 69.5) rotate(-20)"/><path class="cls-6" d="M204.85,86.48a19.22,19.22,0,0,1-11.49,24.64L180.21,75A19.22,19.22,0,0,1,204.85,86.48Z"/><g class="cls-7"><path class="cls-8" d="M188.33,73.9a19.22,19.22,0,1,0,11.95,32.82A84.4,84.4,0,0,0,188.33,73.9Z"/></g><path class="cls-4" d="M186.78,73.82A19.24,19.24,0,1,1,180.21,75a19.23,19.23,0,0,1,6.57-1.16m0-4a23.23,23.23,0,1,0,21.82,15.29,23.15,23.15,0,0,0-21.82-15.29Z"/><circle class="cls-6" cx="173.88" cy="166.23" r="19.22" transform="translate(-65.23 192.58) rotate(-50)"/><g class="cls-7"><path class="cls-8" d="M191.23,158a19.22,19.22,0,1,0-22.45,26.76A84.4,84.4,0,0,0,191.23,158Z"/></g><path class="cls-4" d="M173.89,147a19.22,19.22,0,1,1-14.74,6.87A19.14,19.14,0,0,1,173.89,147m0-4h0a23.22,23.22,0,1,0,14.92,5.43A23.18,23.18,0,0,0,173.89,143Z"/><circle class="cls-5" cx="104.05" cy="191.65" r="19.22" transform="translate(-102.75 260.84) rotate(-80)"/><path class="cls-6" d="M123,195a19.22,19.22,0,0,1-22.27,15.59l6.68-37.86A19.22,19.22,0,0,1,123,195Z"/><g class="cls-7"><path class="cls-8" d="M119.86,202.56a19.22,19.22,0,1,0-34.4-6.07,84.4,84.4,0,0,0,34.4,6.07Z"/></g><path class="cls-4" d="M104,172.42a19.22,19.22,0,1,1-18.91,15.89A19.33,19.33,0,0,1,104,172.42m0-4h0a23.22,23.22,0,0,0-4,46.1,23.42,23.42,0,0,0,4.06.36,23.23,23.23,0,0,0,0-46.45Z"/><circle class="cls-5" cx="47.13" cy="143.88" r="19.22" transform="translate(-46.37 24.8) rotate(-20)"/><g class="cls-7"><path class="cls-8" d="M45.58,163a19.22,19.22,0,1,0-11.95-32.82A84.4,84.4,0,0,0,45.58,163Z"/></g><path class="cls-4" d="M47.12,124.65a19.24,19.24,0,1,1-6.57,1.16,19.23,19.23,0,0,1,6.57-1.16m0-4a23.23,23.23,0,1,0,21.82,15.29,23.15,23.15,0,0,0-21.82-15.29Z"/><circle class="cls-5" cx="60.03" cy="70.7" r="19.22" transform="translate(-32.72 71.24) rotate(-50)"/><g class="cls-7"><path class="cls-8" d="M42.68,78.94A19.22,19.22,0,1,0,65.13,52.18,84.4,84.4,0,0,0,42.68,78.94Z"/></g><path class="cls-4" d="M60,51.48A19.22,19.22,0,1,1,45.3,58.34,19.14,19.14,0,0,1,60,51.48m0-4h0A23.22,23.22,0,1,0,75,52.91,23.18,23.18,0,0,0,60,47.48Z"/><circle class="cls-9" cx="116.96" cy="118.47" r="77.75" transform="translate(-20.02 213.07) rotate(-80)"/><circle class="cls-10" cx="123.54" cy="115.46" r="70.32" transform="translate(-11.61 217.07) rotate(-80)"/><path class="cls-4" d="M117,199.23a80.76,80.76,0,1,1,79.49-66.74A80.9,80.9,0,0,1,117,199.23Zm-.07-155.52a74.76,74.76,0,1,0,73.65,87.74h0a74.79,74.79,0,0,0-73.65-87.74Z"/><g class="cls-2"><path class="cls-3" d="M94.88,66.75V20.44A13.45,13.45,0,0,0,81.44,7H36.32A13.45,13.45,0,0,0,22.88,20.44v50a14.34,14.34,0,1,0,5.76,12.76A3,3,0,0,0,28.88,82V32h60V55.85a14.34,14.34,0,1,0,6,11.69C94.92,67.27,94.9,67,94.88,66.75Z"/></g><circle class="cls-4" cx="16.35" cy="74.94" r="14.35"/><circle class="cls-4" cx="82.57" cy="60.54" r="14.35"/><path class="cls-5" d="M93.88,13.44V22h-66V13.44A10.43,10.43,0,0,1,38.32,3H83.44A10.43,10.43,0,0,1,93.88,13.44Z"/><path class="cls-6" d="M93.88,13.44V22h-47V13.44A10.43,10.43,0,0,1,57.32,3H83.44A10.43,10.43,0,0,1,93.88,13.44Z"/><path class="cls-4" d="M27.88,78a3,3,0,0,1-3-3V13.44A13.45,13.45,0,0,1,38.32,0H83.44A13.45,13.45,0,0,1,96.88,13.44V61a3,3,0,0,1-6,0V13.44A7.45,7.45,0,0,0,83.44,6H38.32a7.45,7.45,0,0,0-7.44,7.44V75A3,3,0,0,1,27.88,78Z"/><rect class="cls-4" x="27.88" y="19" width="66" height="6"/></g></g></g></svg>