<svg xmlns="http://www.w3.org/2000/svg" viewBox="0 0 24 32"><defs><style>.cls-1{fill:#434854;}.cls-2{opacity:0.3;}.cls-3{fill:#dae2e5;}.cls-4{fill:#3aad73;}.cls-5{fill:#469fcc;}.cls-6{fill:#eaca44;}.cls-7{fill:#ef4d4d;}.cls-8{fill:#fff;opacity:0.2;}.cls-9{opacity:0.1;}</style></defs><title>icon-Asset 1</title><g id="Layer_2" data-name="Layer 2"><g id="Layer_1-2" data-name="Layer 1"><rect class="cls-1" x="9" y="26" width="6" height="6" rx="1" ry="1"/><path class="cls-2" d="M15,27a1,1,0,0,1-1,1H10a1,1,0,0,1-1-1H9a1,1,0,0,1,1-1h4a1,1,0,0,1,1,1Z"/><path class="cls-3" d="M10.42.12A40.84,40.84,0,0,0,9,12c0,5.36.64,10,1.59,12.36a2.95,2.95,0,0,1,2.82,0C14.36,22,15,17.36,15,12A40.84,40.84,0,0,0,13.58.12,12,12,0,0,0,12,0,12,12,0,0,0,10.42.12Z"/><path class="cls-4" d="M20,12.5C20,7.34,18.28,2.88,15.77.61a12,12,0,0,0-2.18-.5A41,41,0,0,1,15,12c0,5.36-.65,10-1.59,12.36a3,3,0,0,1,1,.89l.07.07C17.69,23.56,20,18.49,20,12.5Z"/><path class="cls-5" d="M9,12A41,41,0,0,1,10.42.12a12,12,0,0,0-2.18.5C5.72,2.88,4,7.34,4,12.5c0,6,2.31,11.06,5.51,12.83l.07-.07a3,3,0,0,1,1-.89C9.65,22,9,17.36,9,12Z"/><path class="cls-6" d="M14.71.32q.54.12,1.05.29C15.42.5,15.06.4,14.71.32Z"/><path class="cls-6" d="M13.59.12q.56.07,1.1.2Q14.15.19,13.59.12Z"/><path class="cls-6" d="M15.77.61C18.28,2.88,20,7.35,20,12.5c0,6-2.31,11.06-5.51,12.83l-.07-.07h0a3,3,0,0,1,.36.64C20.93,21.12,24,17.81,24,12A12,12,0,0,0,15.77.61Z"/><path class="cls-7" d="M9.31.31q.54-.12,1.1-.2Q9.85.19,9.31.31Z"/><path class="cls-7" d="M8.24.61Q8.76.44,9.29.32C8.94.4,8.58.5,8.24.61Z"/><path class="cls-7" d="M9.58,25.25l-.07.07C6.31,23.56,4,18.49,4,12.5,4,7.35,5.72,2.88,8.23.61A12,12,0,0,0,0,12c0,5.81,3.07,9.12,9.22,13.89a3,3,0,0,1,.36-.64Z"/><path class="cls-8" d="M12,3.11A13.83,13.83,0,0,1,23.77,9.69a12,12,0,0,0-23.55,0A13.83,13.83,0,0,1,12,3.11Z"/><path class="cls-9" d="M12,19a8.88,8.88,0,0,0-7.09,3.25c1.21,1.16,2.64,2.34,4.31,3.63a3,3,0,0,1,5.56,0c1.66-1.29,3.09-2.47,4.31-3.63A8.88,8.88,0,0,0,12,19Z"/></g></g></svg>