<svg xmlns="http://www.w3.org/2000/svg" viewBox="0 0 213.44 185.5"><defs><style>.cls-1{isolation:isolate;}.cls-2{opacity:0.3;}.cls-3{fill:#5f4e56;}.cls-4{fill:#666;}.cls-5{fill:#ffe252;}.cls-6{fill:#c48825;}.cls-7{fill:#faba51;}.cls-8{mix-blend-mode:multiply;}.cls-9{fill:#e2e2e2;}.cls-10{fill:#715d94;}.cls-11{fill:#cabfde;}</style></defs><title>icon-diversao</title><g class="cls-1"><g id="Layer_2" data-name="Layer 2"><g id="Layer_1-2" data-name="Layer 1"><g class="cls-2"><path class="cls-3" d="M193.11,44.78A66.78,66.78,0,1,0,168.66,136,66.36,66.36,0,0,0,193.11,44.78Z"/></g><g class="cls-2"><path class="cls-4" d="M106.29,54.94l3.47-7.45c2.44-5.25-.41-11.88-5.64-14.31l-8.29-3.86c-5-2.33-10.73.08-13.26,5.51L79,42.39A67,67,0,0,0,3.74,79.81c-15.5,33.26,22,100.62,23.65,103.47l1.23,2.22,2.51-.48c3.23-.6,79.37-15,94.86-48.27A67.73,67.73,0,0,0,106.29,54.94Z"/></g><circle class="cls-5" cx="147.25" cy="66.19" r="63.2" transform="translate(-13.37 82.49) rotate(-30)"/><path class="cls-6" d="M178.85,120.92a63.2,63.2,0,0,1-63.2-109.47Z"/><ellipse class="cls-7" cx="147.25" cy="66.19" rx="32.32" ry="63.2" transform="translate(-13.37 82.49) rotate(-30)"/><g class="cls-8"><path class="cls-9" d="M178.85,120.92a63.2,63.2,0,0,1-63.2-109.47Z"/></g><path class="cls-3" d="M147.36,132.42a66.57,66.57,0,0,1-17.24-2.28,66.2,66.2,0,1,1,74.47-97h0a66.25,66.25,0,0,1-57.23,99.33ZM147.15,6a60.19,60.19,0,0,0-52,90.29A60.2,60.2,0,1,0,147.15,6Z"/><path class="cls-9" d="M131.55,124.8c-14.89,32-92.19,46.28-92.19,46.28S.89,102.84,15.78,70.87A63.72,63.72,0,0,1,89.72,36l4.77-10.23c1.59-3.41,5.42-5.64,8.83-4.05l8.29,3.86c3.41,1.59,5.31,6.49,3.72,9.9l-4.72,10.13A63.52,63.52,0,0,1,131.55,124.8Z"/><path class="cls-10" d="M15.54,71.18S33.66,90,69.41,106.66,131.26,125,131.26,125h0c-15.18,31.78-92,46.06-92,46.06S1.08,103.28,15.54,71.18Z"/><g class="cls-8"><path class="cls-11" d="M39.31,171S.87,102.79,15.76,70.82A63.72,63.72,0,0,1,89.72,36l4.77-10.23c1.59-3.41,5.42-5.64,8.83-4.05L108,23.93Z"/></g><path class="cls-3" d="M37.8,174.42l-1.05-1.87c-1.6-2.84-39-70-23.68-103a66.82,66.82,0,0,1,75-37l3.73-8c2.42-5.2,8.17-7.67,12.82-5.5l8.29,3.86c4.92,2.29,7.43,9,5.17,13.89l-3.68,7.89a66.53,66.53,0,0,1,19.89,81.38c-15.37,33-91.15,47.37-94.37,48ZM102.05,24.49c-1.79-.83-3.95.67-4.85,2.6L91.39,39.58,89,39A60.82,60.82,0,0,0,18.5,72.13C5.77,99.46,35,156.56,40.94,167.7c12.4-2.57,75.17-16.85,87.9-44.17A60.51,60.51,0,0,0,108.9,48.12l-2.07-1.44,5.78-12.42c.87-1.86-.34-5-2.27-5.91Z"/><path class="cls-3" d="M68.14,109.38C32.3,92.68,13.77,73.74,13,72.94l4.29-4.11h0c.31,0,18.68,19,53.36,35.16s60.76,18,61,18l-.38,6C130.2,127.93,104,126.08,68.14,109.38Z"/><path class="cls-3" d="M96.86,47.51C86.43,42.65,81,37,80.73,36.81L85,32.64a52.61,52.61,0,0,0,14.34,9.44c9.33,4.35,16.3,4.87,16.37,4.88l-.39,6C115,52.92,107.29,52.37,96.86,47.51Z"/></g></g></g></svg>