<svg xmlns="http://www.w3.org/2000/svg" viewBox="0 0 24 32"><defs><style>.cls-1{fill:#ef4d4d;}.cls-2{opacity:0.15;}.cls-3{fill:#3aad73;}.cls-4{fill:#4f3923;}</style></defs><title>icon-vaso</title><g id="Layer_2" data-name="Layer 2"><g id="Layer_1-2" data-name="Layer 1"><path class="cls-1" d="M20,18H4a1,1,0,0,0-1,1v1a1,1,0,0,0,1,1H5L6,31a1,1,0,0,0,1,1H17a1,1,0,0,0,1-1l1-10h1a1,1,0,0,0,1-1V19A1,1,0,0,0,20,18Z"/><polygon class="cls-2" points="18.91 22 19 21 5 21 5.09 22 18.91 22"/><path class="cls-3" d="M19,6h-.08A7,7,0,0,0,5.08,6H5A5,5,0,0,0,5,16H19A5,5,0,0,0,19,6Z"/><path class="cls-4" d="M15.54,9.29a1,1,0,0,0-1.41,0L12,11.41,9.88,9.29a1,1,0,1,0-1.41,1.41L11,13.24V18h2V13.24l2.54-2.54A1,1,0,0,0,15.54,9.29Z"/></g></g></svg>