<svg xmlns="http://www.w3.org/2000/svg" viewBox="0 0 188.58 142.69"><defs><style>.cls-1{isolation:isolate;}.cls-2,.cls-8{fill:#faba51;}.cls-3,.cls-5{fill:#cabfde;}.cls-3{mix-blend-mode:multiply;}.cls-4,.cls-7,.cls-9{fill:none;}.cls-4,.cls-7,.cls-8,.cls-9{stroke:#5f4e56;stroke-linecap:round;stroke-linejoin:round;}.cls-4{stroke-width:6px;}.cls-6{fill:#715d94;}.cls-7{stroke-width:4px;}.cls-8,.cls-9{stroke-width:3px;}</style></defs><title>icon-phone</title><g class="cls-1"><g id="Layer_2" data-name="Layer 2"><g id="Layer_1-2" data-name="Layer 1"><rect class="cls-2" x="4.97" y="50.44" width="43.73" height="13.24" transform="translate(-24.93 21.06) rotate(-30)"/><rect class="cls-3" x="7.27" y="59.01" width="9.42" height="13.24" transform="translate(-31.21 14.78) rotate(-30)"/><rect class="cls-2" x="139.88" y="50.44" width="43.73" height="13.24" transform="translate(273.29 187.34) rotate(-150)"/><rect class="cls-4" x="4.97" y="50.44" width="43.73" height="13.24" transform="translate(-24.93 21.06) rotate(-30)"/><rect class="cls-4" x="139.88" y="50.44" width="43.73" height="13.24" transform="translate(273.29 187.34) rotate(-150)"/><path class="cls-5" d="M94.29,28.42l47.85,1.76A4,4,0,0,1,146,34.12l.11,6.27L184,62.26c3.12-5.4,2.14-30.42-7.34-43.31,0,0-40.56-16.68-82.36-15.92-41.8-.76-82.36,15.92-82.36,15.92C2.45,31.84,1.47,56.85,4.59,62.26L42.46,40.39l.11-6.27a4,4,0,0,1,3.87-3.94Z"/><path class="cls-3" d="M94.29,3c-41.8-.76-82.36,15.92-82.36,15.92C2.45,31.84,1.47,56.85,4.59,62.26L42.46,40.39l.11-6.27a4,4,0,0,1,3.87-3.94l47.85-1.76Z"/><path class="cls-3" d="M25.73,14.1c-8.6,2.71-13.8,4.85-13.8,4.85C2.45,31.84,1.47,56.85,4.59,62.26l13.18-7.61C15.85,46.45,17.49,25.66,25.73,14.1Z"/><path class="cls-4" d="M94.29,28.42l47.85,1.76A4,4,0,0,1,146,34.12l.11,6.27L184,62.26c3.12-5.4,2.14-30.42-7.34-43.31,0,0-40.56-16.68-82.36-15.92-41.8-.76-82.36,15.92-82.36,15.92C2.45,31.84,1.47,56.85,4.59,62.26L42.46,40.39l.11-6.27a4,4,0,0,1,3.87-3.94Z"/><polygon class="cls-5" points="146.99 111.69 43.3 111.69 56.48 21.69 66.52 21.69 66.52 35.69 123.52 35.69 123.52 21.69 133.8 21.69 146.99 111.69"/><polygon class="cls-3" points="44.44 103.69 43.3 111.69 146.99 111.69 145.85 103.69 44.44 103.69"/><polygon class="cls-3" points="94.52 35.69 66.52 35.69 66.52 21.69 56.48 21.69 43.3 111.69 94.52 111.69 94.52 35.69"/><polygon class="cls-4" points="146.99 111.69 43.3 111.69 56.48 21.69 66.52 21.69 66.52 35.69 123.52 35.69 123.52 21.69 133.8 21.69 146.99 111.69"/><rect class="cls-5" x="36.57" y="111.77" width="115.43" height="19.38"/><rect class="cls-3" x="36.57" y="111.77" width="57.72" height="19.38"/><polygon class="cls-3" points="152.01 131.16 36.57 131.16 36.57 111.78 45.59 111.78 45.59 124.04 152.01 124.04 152.01 131.16"/><rect class="cls-5" x="129.83" y="131.16" width="19.33" height="8.53"/><rect class="cls-6" x="39.42" y="131.16" width="19.33" height="8.53"/><rect class="cls-4" x="36.57" y="111.77" width="115.43" height="19.38"/><rect class="cls-4" x="129.83" y="131.16" width="19.33" height="8.53"/><rect class="cls-4" x="39.42" y="131.16" width="19.33" height="8.53"/><circle class="cls-5" cx="94.29" cy="72.33" r="31.6"/><path class="cls-3" d="M103.29,95.94a31.6,31.6,0,0,1-25.1-50.79,31.6,31.6,0,1,0,41.2,46.38A31.45,31.45,0,0,1,103.29,95.94Z"/><circle class="cls-2" cx="94.29" cy="72.33" r="8.96"/><circle class="cls-7" cx="94.29" cy="72.33" r="8.96"/><circle class="cls-8" cx="94.29" cy="51.86" r="2.84"/><circle class="cls-8" cx="79.81" cy="57.86" r="2.84" transform="translate(-17.54 73.38) rotate(-45)"/><circle class="cls-8" cx="73.82" cy="72.33" r="2.84"/><circle class="cls-8" cx="79.81" cy="86.81" r="2.84" transform="translate(-38.01 81.86) rotate(-45)"/><circle class="cls-8" cx="94.29" cy="92.81" r="2.84"/><circle class="cls-8" cx="108.77" cy="86.81" r="2.84" transform="translate(-29.53 102.33) rotate(-45)"/><path class="cls-9" d="M125.7,73.91a6.88,6.88,0,1,1-13.22-3.77"/><circle class="cls-8" cx="108.77" cy="57.86" r="2.84" transform="translate(-9.06 93.85) rotate(-45)"/><circle class="cls-7" cx="94.29" cy="72.33" r="31.6"/></g></g></g></svg>