<svg xmlns="http://www.w3.org/2000/svg" viewBox="0 0 180.91 169.14"><defs><style>.cls-1{fill:#5f4e56;}.cls-2{fill:#d3793f;}.cls-3{fill:#faba51;}</style></defs><title>icon-cutia_nav</title><g id="Layer_2" data-name="Layer 2"><g id="Layer_1-2" data-name="Layer 1"><path class="cls-1" d="M84.57,0a84.57,84.57,0,1,0,84.57,84.57A84.67,84.67,0,0,0,84.57,0Z"/><g id="draw-olho"><path class="cls-2" d="M123.22,80.46c-2.65,0-1.81-3-1.62-4.71s.21-4.58,2.12-5.05c2.9-.71,2.3,3.14,2,4.66s-.13,5.1-2.57,5.1h.08Z"/></g><g id="draw-boca"><path class="cls-2" d="M78.93,144.46c-1-1.85.24-4.21,1.29-5.73a15.15,15.15,0,0,1,5.5-4.61c5.15-2.75,10.52-3.4,16.19-3.69a302.84,302.84,0,0,0,35.14-3.74c-1.13-3.5-2.31-6.93-1.2-10.6a11.33,11.33,0,0,1,5.1-7c-2.35,4.45-4.11,9-1.36,13.76a6.78,6.78,0,0,0,2,2.57c1.1.63,2.51,0,3.64-.24,2.67-.6,5.36-1.18,8.09-1.88a90.65,90.65,0,0,0,15.13-5.16,44.62,44.62,0,0,0,6.65-3.72,24.44,24.44,0,0,0,3-2.28,23.47,23.47,0,0,1,2.41-2.44c-1.41,7-6.59,12.75-12.35,16.61-6.47,4.37-14.16,6.64-21.75,8.26-16.19,3.43-32.6,3.43-49,3.24-6.7,0-14.34.52-18.42,6.62-.6-1.15,1.36-2,0,0C77.86,142.41,80.44,142.21,78.93,144.46Z"/></g><path class="cls-3" d="M169.67,83.83l-.54-.58q-3-3.27-6.35-6.23a96.26,96.26,0,0,0-15-11,122.54,122.54,0,0,0-28.31-12.11c-5-1.45-10.13-2.72-15.18-3.72s-10.22-1.5-15.18-2.86c-3.55-1-8.15-2.56-10-6.09A5.22,5.22,0,0,1,79.23,36c1-1.41,2.93-1.8,4-3.24a8.68,8.68,0,0,0-1-11.33,12.81,12.81,0,0,0-12.06-3.58C62.25,19.47,56.45,27.06,55.77,35a16.72,16.72,0,0,0,3.38,12,18.32,18.32,0,0,0,11.51,5.76c-8.49,5.36-17.75,10.49-27.69,13-7.88,2-23.2-.15-33.93-2.77a78.58,78.58,0,0,0,69.84,100c2.51-3,4.37-6.38,4-9.83-.32-2.64-4.46-3.72-4.31-6.62,0-.69.47-1.5.49-2s-.33-1-.33-1.51a8.08,8.08,0,0,1,1.49-4c2.87-4.49,8.53-6.54,13.5-7.72a50.52,50.52,0,0,1,10.12-1c3.64-.11,7.3-.44,10.92-.76,7.51-.68,15.06-1.55,22.49-2.82-1.2-3.49-2.32-6.92-1.2-10.6a11.29,11.29,0,0,1,5.1-7,21.28,21.28,0,0,0-2.66,6.31,10.76,10.76,0,0,0,.94,6.81c.78,1.59,2,3.66,4,3.4a91.61,91.61,0,0,0,9.31-2c2-.54,4-1.14,6-1.81l2-.62a66.06,66.06,0,0,0,12-5.26c3-1.78,8.23-4.59,8.1-8.64C180.6,98.15,175.74,90.46,169.67,83.83Zm-43.94-8.47c-.34,1.66-.14,5-2.54,5.09-2.67,0-1.81-3.22-1.57-4.7s.19-4.44,2-5C126.57,69.78,126.07,73.69,125.73,75.36Z"/></g></g></svg>