<svg xmlns="http://www.w3.org/2000/svg" viewBox="0 0 25 32"><defs><style>.cls-1{fill:#469fcc;}.cls-2{fill:#434854;}.cls-3{opacity:0.3;}.cls-4{fill:#fff;opacity:0.1;}.cls-5{fill:#dae2e5;}.cls-6{fill:#eaca44;}</style></defs><title>Asset 4icon-</title><g id="Layer_2" data-name="Layer 2"><g id="Layer_1-2" data-name="Layer 1"><path class="cls-1" d="M15.3,0a4.46,4.46,0,0,1-2.8,1A4.46,4.46,0,0,1,9.7,0H3A1,1,0,0,1,4,1H9.38A5.63,5.63,0,0,0,11,1.77V3.51a2.48,2.48,0,0,0,0,4V9.35A3.49,3.49,0,0,0,9,12.5V21H8.5a.5.5,0,0,0,0,1H10V12.5a2.5,2.5,0,0,1,5,0V22h1.5a.5.5,0,0,0,0-1H16V12.5a3.49,3.49,0,0,0-2-3.15V7.49a2.48,2.48,0,0,0,0-4V1.77A5.63,5.63,0,0,0,15.62,1H21a1,1,0,0,1,1-1Z"/><path class="cls-2" d="M14,12.5a1.5,1.5,0,0,0-3,0v18a1.5,1.5,0,0,0,3,0Z"/><path class="cls-3" d="M12.5,30A1.5,1.5,0,0,1,11,28.5v2a1.5,1.5,0,0,0,3,0v-2A1.5,1.5,0,0,1,12.5,30Z"/><path class="cls-4" d="M12.5,13A1.5,1.5,0,0,1,14,14.5v-2a1.5,1.5,0,0,0-3,0v2A1.5,1.5,0,0,1,12.5,13Z"/><circle class="cls-5" cx="12.5" cy="5.5" r="1.5"/><path class="cls-6" d="M3,0H1A1,1,0,0,0,1,2H3A1,1,0,0,0,3,0Z"/><path class="cls-6" d="M24,0H22a1,1,0,0,0,0,2h2a1,1,0,0,0,0-2Z"/></g></g></svg>