<svg xmlns="http://www.w3.org/2000/svg" viewBox="0 0 201.31 186.95"><defs><style>.cls-1{isolation:isolate;}.cls-2{fill:#cabfde;}.cls-3{mix-blend-mode:multiply;}.cls-4{fill:#5f4e56;}.cls-5{opacity:0.3;}.cls-6{fill:#666;}.cls-7{fill:#eceaee;}.cls-8{fill:#e2e2e2;}.cls-9{fill:#ffe252;}</style></defs><title>icon-festa</title><g class="cls-1"><g id="Layer_2" data-name="Layer 2"><g id="Layer_1-2" data-name="Layer 1"><path class="cls-2" d="M12.31,103.95h177a0,0,0,0,1,0,0v72a8,8,0,0,1-8,8h-161a8,8,0,0,1-8-8v-72A0,0,0,0,1,12.31,103.95Z"/><g class="cls-3"><path class="cls-2" d="M12.31,103.95H162.8a0,0,0,0,1,0,0v80a0,0,0,0,1,0,0H20.31a8,8,0,0,1-8-8v-72a0,0,0,0,1,0,0Z"/></g><path class="cls-4" d="M12.31,169.66h177a0,0,0,0,1,0,0v6.29a8,8,0,0,1-8,8h-161a8,8,0,0,1-8-8v-6.29A0,0,0,0,1,12.31,169.66Z"/><path class="cls-4" d="M181.31,186.95h-161a11,11,0,0,1-11-11v-72a3,3,0,0,1,3-3h177a3,3,0,0,1,3,3v72A11,11,0,0,1,181.31,186.95Zm-166-80v69a5,5,0,0,0,5,5h161a5,5,0,0,0,5-5v-69Z"/><g class="cls-5"><path class="cls-6" d="M190.51,102.95H10.87l0,30.6A10.82,10.82,0,0,0,21,122.88a4.52,4.52,0,0,1,5-4.34,4.77,4.77,0,0,1,4,4.79,10.51,10.51,0,0,0,11.59,10.15,10.78,10.78,0,0,0,9.43-10.59,4.51,4.51,0,0,1,5-4.35,4.78,4.78,0,0,1,4,4.79,10.51,10.51,0,0,0,11.59,10.15,10.78,10.78,0,0,0,9.43-10.59,4.51,4.51,0,0,1,5-4.35,4.78,4.78,0,0,1,4,4.79,10.51,10.51,0,0,0,11.59,10.15,10.78,10.78,0,0,0,9.43-10.59,4.51,4.51,0,0,1,5-4.35,4.78,4.78,0,0,1,4,4.79,10.51,10.51,0,0,0,11.59,10.15,10.78,10.78,0,0,0,9.43-10.59,4.51,4.51,0,0,1,5-4.35,4.78,4.78,0,0,1,4,4.79,10.54,10.54,0,0,0,3.57,7.59,10.44,10.44,0,0,0,8,2.56,10.78,10.78,0,0,0,9.43-10.59,4.49,4.49,0,0,1,2.26-3.78,4.83,4.83,0,0,1,4.9.12,3.92,3.92,0,0,1,1.86,3.6,10.51,10.51,0,0,0,11.9,10.61Z"/></g><path class="cls-2" d="M3,113.77a7.51,7.51,0,0,0,7.73,7.51A7.79,7.79,0,0,0,18,113.51a7.51,7.51,0,0,1,8.29-7.21A7.76,7.76,0,0,1,33.05,114a7.51,7.51,0,0,0,8.29,7.25,7.76,7.76,0,0,0,6.73-7.69,7.51,7.51,0,0,1,8.29-7.25A7.76,7.76,0,0,1,63.1,114a7.51,7.51,0,0,0,8.29,7.25,7.76,7.76,0,0,0,6.73-7.69,7.51,7.51,0,0,1,8.29-7.25A7.76,7.76,0,0,1,93.15,114a7.51,7.51,0,0,0,8.29,7.25,7.76,7.76,0,0,0,6.73-7.69,7.51,7.51,0,0,1,8.29-7.25,7.76,7.76,0,0,1,6.73,7.69,7.51,7.51,0,0,0,8.29,7.25,7.76,7.76,0,0,0,6.73-7.69,7.51,7.51,0,0,1,8.29-7.25,7.76,7.76,0,0,1,6.73,7.69,7.51,7.51,0,0,0,8.29,7.25,7.76,7.76,0,0,0,6.73-7.69c.15-5.35,5.89-9.29,11.59-6.21,2.27,1.23,3.48,16,3.43,18.56a7.51,7.51,0,0,0,8.51,7.58,7.65,7.65,0,0,0,6.51-7.65c0-3.57,0-26.32,0-35.87a18,18,0,0,0-18-18H21A18,18,0,0,0,3,90Z"/><path class="cls-7" d="M21,71.95H180.31a18,18,0,0,1,18,18v0a0,0,0,0,1,0,0H3a0,0,0,0,1,0,0v0a18,18,0,0,1,18-18Z"/><path class="cls-4" d="M190.81,137.75A10.51,10.51,0,0,1,180.29,127c0-.69,0-12.31,0-12.91-.13-3.23-.67-3.52-1.84-4.16a4.83,4.83,0,0,0-4.9-.12,4.48,4.48,0,0,0-2.26,3.78,10.78,10.78,0,0,1-9.43,10.59,10.44,10.44,0,0,1-8-2.56,10.55,10.55,0,0,1-3.57-7.59,4.77,4.77,0,0,0-4-4.79,4.51,4.51,0,0,0-5,4.35,10.78,10.78,0,0,1-9.43,10.59,10.44,10.44,0,0,1-8-2.56,10.55,10.55,0,0,1-3.57-7.59,4.77,4.77,0,0,0-4-4.79,4.51,4.51,0,0,0-5,4.35,10.78,10.78,0,0,1-9.43,10.59,10.51,10.51,0,0,1-11.59-10.15,4.78,4.78,0,0,0-4-4.79,4.51,4.51,0,0,0-5,4.35,10.78,10.78,0,0,1-9.43,10.59A10.51,10.51,0,0,1,60.1,114.08a4.77,4.77,0,0,0-4-4.79,4.51,4.51,0,0,0-5,4.35,10.78,10.78,0,0,1-9.43,10.59,10.51,10.51,0,0,1-11.59-10.15,4.77,4.77,0,0,0-4-4.79,4.51,4.51,0,0,0-5,4.33,10.81,10.81,0,0,1-10.21,10.66A10.51,10.51,0,0,1,0,113.77V90a21,21,0,0,1,21-21H180.3a21,21,0,0,1,21,21V127a10.49,10.49,0,0,1-10.5,10.72Zm-15.05-34.5a11.58,11.58,0,0,1,5.52,1.45c2.91,1.58,4.76,3.67,5,9.22,0,.62,0,13.14,0,13.23a4.51,4.51,0,0,0,5.13,4.56,4.63,4.63,0,0,0,3.89-4.68V90a15,15,0,0,0-15-15H21A15,15,0,0,0,6,90v23.81A4.48,4.48,0,0,0,7.37,117a4.58,4.58,0,0,0,3.28,1.27A4.81,4.81,0,0,0,15,113.41a10.51,10.51,0,0,1,11.59-10.1A10.78,10.78,0,0,1,36,113.9a4.51,4.51,0,0,0,5,4.35,4.77,4.77,0,0,0,4-4.79,10.52,10.52,0,0,1,11.59-10.15A10.78,10.78,0,0,1,66.1,113.9a4.51,4.51,0,0,0,5,4.35,4.77,4.77,0,0,0,4-4.79,10.51,10.51,0,0,1,11.59-10.15,10.78,10.78,0,0,1,9.43,10.59,4.51,4.51,0,0,0,5,4.35,4.77,4.77,0,0,0,4-4.79,10.51,10.51,0,0,1,11.59-10.15,10.78,10.78,0,0,1,9.43,10.59,4.51,4.51,0,0,0,5,4.35,4.78,4.78,0,0,0,4-4.79,10.51,10.51,0,0,1,11.59-10.15,10.78,10.78,0,0,1,9.43,10.59,4.51,4.51,0,0,0,5,4.35,4.77,4.77,0,0,0,4-4.79,10.53,10.53,0,0,1,10.5-10.21Z"/><rect class="cls-8" x="94.78" y="25.94" width="12.05" height="46.01"/><rect class="cls-8" x="121.1" y="37.32" width="12.05" height="34.63"/><rect class="cls-8" x="68.65" y="44.77" width="12.08" height="27.18"/><path class="cls-4" d="M106.84,74.95H94.78a3,3,0,0,1-3-3v-46a3,3,0,0,1,3-3h12.05a3,3,0,0,1,3,3v46A3,3,0,0,1,106.84,74.95Zm-9.05-6h6.05v-40H97.78Z"/><path class="cls-4" d="M133.15,74.95H121.1a3,3,0,0,1-3-3V37.32a3,3,0,0,1,3-3h12.05a3,3,0,0,1,3,3V71.95A3,3,0,0,1,133.15,74.95Zm-9.05-6h6.05V40.32H124.1Z"/><path class="cls-4" d="M80.73,74.95H68.65a3,3,0,0,1-3-3V44.77a3,3,0,0,1,3-3H80.73a3,3,0,0,1,3,3V71.95A3,3,0,0,1,80.73,74.95Zm-9.08-6h6.08V47.77H71.65Z"/><path class="cls-9" d="M106.74,16a5.93,5.93,0,0,1-11.86,0c0-3.27,3.55-11.11,5.93-13C102.22,8.41,106.74,12.74,106.74,16Z"/><path class="cls-9" d="M133.05,29.49a5.93,5.93,0,1,1-11.86,0c0-3.27,3.55-11.11,5.93-13C128.53,21.88,133.05,26.21,133.05,29.49Z"/><path class="cls-9" d="M80.62,38a5.93,5.93,0,0,1-11.86,0c0-3.27,3.55-11.11,5.93-13C76.1,30.35,80.62,34.69,80.62,38Z"/><path class="cls-4" d="M100.81,24.95A8.94,8.94,0,0,1,91.88,16c0-4.27,4-12.88,7.06-15.36a3,3,0,0,1,4.78,1.59,25.37,25.37,0,0,0,3.1,6.42c1.51,2.5,2.93,4.86,2.93,7.36A8.94,8.94,0,0,1,100.81,24.95ZM100.18,9.2c-1.21,2.44-2.3,5.35-2.3,6.82a2.93,2.93,0,1,0,5.86,0c0-.83-1.15-2.73-2.07-4.26C101.18,10.95,100.67,10.1,100.18,9.2Z"/><path class="cls-4" d="M127.12,38.42a8.94,8.94,0,0,1-8.93-8.93c0-4.27,4-12.88,7.06-15.36A3,3,0,0,1,130,15.71a25.37,25.37,0,0,0,3.1,6.42c1.51,2.5,2.93,4.86,2.93,7.36A8.94,8.94,0,0,1,127.12,38.42Zm-.63-15.75c-1.21,2.44-2.3,5.35-2.3,6.82a2.93,2.93,0,0,0,5.86,0c0-.83-1.15-2.73-2.07-4.26C127.5,24.41,127,23.56,126.49,22.67Z"/><path class="cls-4" d="M74.69,46.89A8.94,8.94,0,0,1,65.76,38c0-4.27,4-12.88,7.06-15.36a3,3,0,0,1,4.78,1.59,25.37,25.37,0,0,0,3.1,6.42c1.51,2.5,2.93,4.86,2.93,7.36A8.94,8.94,0,0,1,74.69,46.89Zm-.63-15.75c-1.21,2.44-2.3,5.35-2.3,6.82a2.93,2.93,0,1,0,5.86,0c0-.83-1.15-2.73-2.07-4.26C75.06,32.89,74.55,32,74.06,31.14Z"/><path class="cls-4" d="M189.31,152.95a50.22,50.22,0,0,1-18.66-3.16,44.54,44.54,0,0,0-16.74-2.84,44.54,44.54,0,0,0-16.74,2.84,50.22,50.22,0,0,1-18.66,3.16,50.22,50.22,0,0,1-18.66-3.16,44.54,44.54,0,0,0-16.74-2.84,44.55,44.55,0,0,0-16.74,2.84,50.23,50.23,0,0,1-18.67,3.16A50.23,50.23,0,0,1,29,149.79a44.54,44.54,0,0,0-16.74-2.84v-6A50.23,50.23,0,0,1,31,144.11a44.54,44.54,0,0,0,16.74,2.84,44.55,44.55,0,0,0,16.74-2.84,50.23,50.23,0,0,1,18.66-3.16,50.22,50.22,0,0,1,18.66,3.16,44.53,44.53,0,0,0,16.74,2.84,44.54,44.54,0,0,0,16.74-2.84,50.22,50.22,0,0,1,18.66-3.16,50.22,50.22,0,0,1,18.66,3.16,44.53,44.53,0,0,0,16.74,2.84Z"/></g></g></g></svg>