<svg xmlns="http://www.w3.org/2000/svg" viewBox="0 0 32 32"><defs><style>.cls-1{fill:#ef4d4d;}.cls-2{opacity:0.15;}.cls-3{fill:#eaeaea;}.cls-4{opacity:0.1;}.cls-5{fill:#434854;}</style></defs><title>icon-fone</title><g id="Layer_2" data-name="Layer 2"><g id="Layer_1-2" data-name="Layer 1"><path class="cls-1" d="M27,17c-1-3-3.24-5-6-5H11c-2.76,0-5,2-6,5L0,28v2a2,2,0,0,0,2,2H30a2,2,0,0,0,2-2V28Z"/><path class="cls-1" d="M31,2.53A48,48,0,0,0,16,0,48,48,0,0,0,1,2.53,1.48,1.48,0,0,0,0,4V9a1,1,0,0,0,1,1H9a1,1,0,0,0,1-1V6H22V9a1,1,0,0,0,1,1h8a1,1,0,0,0,1-1V4A1.66,1.66,0,0,0,31,2.53Z"/><path class="cls-2" d="M0,30a2,2,0,0,0,2,2H30a2,2,0,0,0,2-2V28H0Z"/><circle class="cls-3" cx="16" cy="20" r="6"/><g class="cls-4"><circle cx="12" cy="20" r="1"/><circle cx="13.17" cy="17.17" r="1" transform="translate(-8.28 14.34) rotate(-45)"/><circle cx="16" cy="16" r="1"/><circle cx="18.83" cy="17.17" r="1" transform="translate(-6.63 18.34) rotate(-45)"/><circle cx="20" cy="20" r="1"/><circle cx="16" cy="24" r="1"/><circle cx="13.17" cy="22.83" r="1" transform="translate(-12.28 16) rotate(-45)"/></g><path class="cls-5" d="M16.71,22.12l2.77,2.77a5.7,5.7,0,0,0,1.41-1.41l-2.77-2.77a1,1,0,1,0-1.41,1.41Z"/><g class="cls-4"><path d="M16,15a1,1,0,0,0-1,1,1,1,0,0,0,.15.5,1,1,0,0,1,1.69,0A1,1,0,0,0,17,16,1,1,0,0,0,16,15Z"/><path d="M19.67,17.67a1,1,0,0,0,.15-.5,1,1,0,1,0-2,0,1,1,0,0,0,.15.5,1,1,0,0,1,1.69,0Z"/><path d="M20,19a1,1,0,0,0-1,1,1,1,0,0,0,.15.5,1,1,0,0,1,1.69,0A1,1,0,0,0,21,20,1,1,0,0,0,20,19Z"/><path d="M13.17,16.17a1,1,0,0,0-1,1,1,1,0,0,0,.15.5,1,1,0,0,1,1.69,0,1,1,0,0,0,.15-.5A1,1,0,0,0,13.17,16.17Z"/><path d="M12.85,20.5A1,1,0,0,0,13,20a1,1,0,0,0-2,0,1,1,0,0,0,.15.5,1,1,0,0,1,1.69,0Z"/><path d="M13.17,21.83a1,1,0,0,0-1,1,1,1,0,0,0,.15.5,1,1,0,0,1,1.69,0,1,1,0,0,0,.15-.5A1,1,0,0,0,13.17,21.83Z"/><path d="M16,23a1,1,0,0,0-1,1,1,1,0,0,0,.15.5,1,1,0,0,1,1.69,0A1,1,0,0,0,17,24,1,1,0,0,0,16,23Z"/></g><path class="cls-4" d="M20.44,24h0c-.07.07-.12.16-.19.23a6,6,0,0,1-.77.64l-2.77-2.77a1,1,0,0,1-.14-.21,1,1,0,0,0,.14,1.21l2.15,2.15A6,6,0,0,0,20.44,24Z"/><g class="cls-2"><path d="M22,7V9a1,1,0,0,0,1,1h8a1,1,0,0,0,1-1V7Z"/><path d="M0,7V9a1,1,0,0,0,1,1H9a1,1,0,0,0,1-1V7Z"/></g><path class="cls-5" d="M13,8a1,1,0,0,0-2,0v4h2Z"/><path class="cls-5" d="M21,8a1,1,0,0,0-2,0v4h2Z"/></g></g></svg>