<svg xmlns="http://www.w3.org/2000/svg" viewBox="0 0 202.15 207.57"><defs><style>.cls-1{opacity:0.3;}.cls-2{fill:#666;}.cls-3{fill:#e2e2e2;}.cls-4{fill:#715d94;}.cls-5{fill:#5f4e56;}.cls-6{fill:#ffe252;}</style></defs><title>icon-teatro</title><g id="Layer_2" data-name="Layer 2"><g id="Layer_1-2" data-name="Layer 1"><g class="cls-1"><path class="cls-2" d="M42.28,23.33h62.67a30,30,0,0,1,30,30v49.06a61.33,61.33,0,0,1-61.33,61.33h0a61.33,61.33,0,0,1-61.33-61.33V53.33a30,30,0,0,1,30-30Z" transform="translate(-15.19 14.28) rotate(-10.05)"/></g><path class="cls-3" d="M39.54,7.86h62.67a30,30,0,0,1,30,30V86.92a61.33,61.33,0,0,1-61.33,61.33h0A61.33,61.33,0,0,1,9.54,86.92V37.86a30,30,0,0,1,30-30Z" transform="translate(-12.53 13.56) rotate(-10.05)"/><path class="cls-4" d="M58.63,8.94,89.48,3.47a30,30,0,0,1,34.77,24.31l8.56,48.31a61.33,61.33,0,0,1-49.69,71.09h0Z"/><path class="cls-5" d="M72.29,151.13A64.37,64.37,0,0,1,9.07,98L.51,49.7A33,33,0,0,1,27.25,11.45L89,.51a33,33,0,0,1,38.25,26.74l8.56,48.31a64.41,64.41,0,0,1-52.12,74.57h0A65.06,65.06,0,0,1,72.29,151.13ZM94.77,6A27.28,27.28,0,0,0,90,6.42L28.3,17.36A27,27,0,0,0,6.42,48.65L15,97A58.4,58.4,0,0,0,82.6,144.22h0a58.33,58.33,0,0,0,47.26-67.62L121.3,28.3A27,27,0,0,0,94.77,6Z"/><g class="cls-1"><path class="cls-2" d="M91.71,67.21h62.67a30,30,0,0,1,30,30v49.06A61.33,61.33,0,0,1,123,207.61h0a61.33,61.33,0,0,1-61.33-61.33V97.21a30,30,0,0,1,30-30Z" transform="translate(13.7 -11.13) rotate(5.48)"/></g><path class="cls-5" d="M47.78,126.49a3,3,0,0,1-3-2.48c-1.2-6.75,1.27-13.67,6.94-19.48,5.41-5.54,13.17-9.43,21.85-11,18.28-3.24,35.1,5.15,37.5,18.7a3,3,0,0,1-5.91,1C103.39,103,89.69,96.81,74.67,99.47c-7.45,1.32-14.06,4.61-18.61,9.26-4.28,4.38-6.18,9.44-5.33,14.24a3,3,0,0,1-2.43,3.48A3,3,0,0,1,47.78,126.49Z"/><path class="cls-3" d="M102.78,56.51h62.67a30,30,0,0,1,30,30v49.06a61.33,61.33,0,0,1-61.33,61.33h0a61.33,61.33,0,0,1-61.33-61.33V86.51A30,30,0,0,1,102.78,56.51Z" transform="translate(12.73 -12.24) rotate(5.48)"/><path class="cls-6" d="M127.41,196.59h0a61.33,61.33,0,0,0,66.91-55.19L199,92.56a30,30,0,0,0-27-32.73l-31.19-3Z"/><path class="cls-5" d="M133.38,199.87q-3.12,0-6.27-.3a64.33,64.33,0,0,1-57.89-70.19l4.69-48.84a33,33,0,0,1,36-29.69l62.38,6a33,33,0,0,1,29.69,36l-4.69,48.84a64.35,64.35,0,0,1-63.92,58.19ZM106.72,56.7A27,27,0,0,0,79.89,81.12L75.2,130a58.33,58.33,0,0,0,52.49,63.64h0a58.33,58.33,0,0,0,63.64-52.49L196,92.27a27,27,0,0,0-24.3-29.46l-62.38-6C108.47,56.74,107.59,56.7,106.72,56.7Z"/><path class="cls-5" d="M134.22,171.82c-1.46,0-2.94-.07-4.42-.21-18.48-1.77-32.44-14.36-31.13-28.06a3,3,0,0,1,6,.57c-1,10.4,10.54,20.06,25.73,21.51,7.53.73,14.78-.68,20.41-3.94,5.3-3.08,8.48-7.44,8.94-12.29a3,3,0,0,1,6,.57c-.66,6.83-4.88,12.83-11.91,16.9A39.15,39.15,0,0,1,134.22,171.82Z"/><path class="cls-5" d="M170.38,113.46h-.29a3,3,0,0,1-2.7-3.27,8.69,8.69,0,0,0-17.31-1.66,3,3,0,1,1-6-.57,14.69,14.69,0,0,1,29.25,2.81A3,3,0,0,1,170.38,113.46Z"/><path class="cls-5" d="M125.11,109.12h-.29a3,3,0,0,1-2.7-3.27,8.7,8.7,0,0,0-7.82-9.48,8.69,8.69,0,0,0-9.48,7.82,3,3,0,0,1-6-.57,14.69,14.69,0,0,1,29.25,2.81A3,3,0,0,1,125.11,109.12Z"/><path class="cls-5" d="M30.85,65.88a3,3,0,0,1-3-2.48,14.69,14.69,0,0,1,28.94-5.13,3,3,0,1,1-5.91,1,8.69,8.69,0,0,0-17.12,3,3,3,0,0,1-2.43,3.48A3,3,0,0,1,30.85,65.88Z"/><path class="cls-5" d="M81,54.19a3,3,0,0,1-3-2.48A14.69,14.69,0,1,1,107,46.58a3,3,0,0,1-5.91,1,8.69,8.69,0,1,0-17.12,3,3,3,0,0,1-2.43,3.48A3,3,0,0,1,81,54.19Z"/></g></g></svg>