<svg xmlns="http://www.w3.org/2000/svg" viewBox="0 0 22 32"><defs><style>.cls-1{fill:#ef4d4d;}.cls-2{fill:#fff;}.cls-3{opacity:0.15;}.cls-4{fill:#4f3923;}.cls-5{fill:#3aad73;}.cls-6{opacity:0.2;}.cls-7{fill:#eaca44;}.cls-8{opacity:0.1;}</style></defs><title>icon-flor</title><g id="Layer_2" data-name="Layer 2"><g id="Layer_1-2" data-name="Layer 1"><path class="cls-1" d="M22,11a4,4,0,0,0-2.3-3.61,4,4,0,0,0-5.1-5.1,4,4,0,0,0-7.21,0,4,4,0,0,0-5.1,5.1,4,4,0,0,0,0,7.21,4,4,0,0,0,5.1,5.1,4,4,0,0,0,7.21,0,4,4,0,0,0,5.1-5.1A4,4,0,0,0,22,11Z"/><circle class="cls-2" cx="11" cy="11" r="5"/><path class="cls-3" d="M11,5a6,6,0,1,0,6,6A6,6,0,0,0,11,5Zm0,11a5,5,0,1,1,5-5A5,5,0,0,1,11,16Z"/><path class="cls-4" d="M11,22a4,4,0,0,1-1-.13V31a1,1,0,0,0,2,0V21.86A4,4,0,0,1,11,22Z"/><path class="cls-5" d="M14.46,27.54s2.83,1.41,4.95-.71.71-5,.71-5-2.83-1.41-4.95.71S14.46,27.54,14.46,27.54Z"/><path class="cls-3" d="M20.12,21.88s-2.83-1.41-4.95.71-.71,5-.71,5Z"/><path class="cls-5" d="M7.54,27.54S9,24.71,6.83,22.59s-5-.71-5-.71-1.41,2.83.71,4.95S7.54,27.54,7.54,27.54Z"/><path class="cls-3" d="M1.88,21.88s-1.41,2.83.71,4.95,5,.71,5,.71Z"/><path class="cls-6" d="M12,22.89v-1h0a3.94,3.94,0,0,1-.47.09,3.54,3.54,0,0,1-1,0,3.85,3.85,0,0,1-.47-.09h0v1a4.53,4.53,0,0,0,2,0Z"/><circle class="cls-7" cx="11" cy="11" r="4"/><path class="cls-8" d="M11,13a6,6,0,0,1-3.95-1.49,4,4,0,0,0,7.9,0A6,6,0,0,1,11,13Z"/></g></g></svg>