<svg xmlns="http://www.w3.org/2000/svg" viewBox="0 0 31.99 31.99"><defs><style>.cls-1{fill:#3aad73;}.cls-2{opacity:0.15;}.cls-3{fill:#4f3923;}.cls-4{opacity:0.4;}</style></defs><title>icon-folha</title><g id="Layer_2" data-name="Layer 2"><g id="Layer_1-2" data-name="Layer 1"><path class="cls-1" d="M7.85,7.54c-5.83,5.83-4.58,12,0,16.59s10.76,5.83,16.59,0S28.8,5.33,32,0C25.6,0,13.69,1.71,7.85,7.54Z"/><path class="cls-2" d="M10.87,21.12C7.57,17.82,5.67,13.85,6,9.69c-3.65,5.17-2.2,10.42,1.83,14.44S17.13,29.61,22.3,26C18.14,26.32,14.17,24.42,10.87,21.12Z"/><path class="cls-3" d="M7.85,24.13c-.25-.25-.5-.52-.73-.78L.31,30.17a1.07,1.07,0,0,0,1.51,1.51l6.81-6.81C8.37,24.63,8.11,24.39,7.85,24.13Z"/><path class="cls-4" d="M7.85,24.13c-.25-.25-.5-.52-.73-.78l-.78.78,1.51,1.51.78-.78C8.37,24.63,8.11,24.39,7.85,24.13Z"/><path class="cls-2" d="M7.13,23.35c.23.26.47.53.73.78s.52.5.78.73L26,6Z"/></g></g></svg>