<svg xmlns="http://www.w3.org/2000/svg" viewBox="0 0 32 28"><defs><style>.cls-1{fill:#434854;}.cls-2{fill:#469fcc;}.cls-3{fill:#eaca44;}.cls-4{fill:#fff;opacity:0.2;}.cls-5{opacity:0.15;}.cls-6{fill:#eaeaea;}.cls-7{opacity:0.1;}.cls-8{opacity:0.3;}</style></defs><title>Asset 3icon-</title><g id="Layer_2" data-name="Layer 2"><g id="Layer_1-2" data-name="Layer 1"><path class="cls-1" d="M17.24,24c-.38,0-.78,0-1.24,0s-.87,0-1.24,0A20.68,20.68,0,0,1,11,23.39V27a1,1,0,0,0,1,1h8a1,1,0,0,0,1-1V23.39A20.68,20.68,0,0,1,17.24,24Z"/><ellipse class="cls-2" cx="16" cy="12" rx="16" ry="12"/><path class="cls-3" d="M32,12a9.69,9.69,0,0,0-1.91-5.68,6,6,0,0,0,0,11.37A9.69,9.69,0,0,0,32,12Z"/><path class="cls-4" d="M16,6c8.84,0,16,2.69,16,6C32,5.37,24.84,0,16,0S0,5.37,0,12C0,8.69,7.16,6,16,6Z"/><g class="cls-5"><path d="M16,18C7.16,18,0,15.31,0,12c0,6.63,7.16,12,16,12s16-5.37,16-12C32,15.31,24.84,18,16,18Z"/></g><path class="cls-3" d="M1.94,3C1,1.78,0,1.59,0,3v9A10.19,10.19,0,0,1,3.31,4.71Z"/><path class="cls-3" d="M0,12H0v9.9c0,1.53,1,1.37,1.94.05l1.68-2.37A10.32,10.32,0,0,1,0,12Z"/><circle class="cls-6" cx="16.5" cy="25.5" r="0.5"/><circle class="cls-6" cx="14.5" cy="25.5" r="0.5"/><path class="cls-6" d="M18.5,25a.5.5,0,0,0,0,1H21V25Z"/><g class="cls-7"><path d="M.15,10.47c0-.23.08-.45.14-.67s.09-.34.14-.51.11-.35.18-.52.15-.39.23-.58L1,7.85a11.53,11.53,0,0,1,2.3-3.13L2.7,3.93A12.54,12.54,0,0,0,0,7.65V12a9,9,0,0,1,.08-1.13C.09,10.74.12,10.6.15,10.47Z"/><path d="M2.79,18.77c-.12-.13-.22-.26-.33-.39S2.17,18,2,17.84s-.2-.29-.3-.43-.24-.36-.35-.55-.17-.3-.25-.45-.2-.39-.29-.59-.13-.3-.19-.46-.15-.43-.22-.64-.09-.29-.13-.44-.11-.49-.15-.74-.05-.25-.07-.38A9,9,0,0,1,0,12v4.35a12.7,12.7,0,0,0,3,4l.57-.8Q3.18,19.2,2.79,18.77Z"/></g><path class="cls-6" d="M31.78,10a2,2,0,0,0,0,4,8.82,8.82,0,0,0,0-4Z"/><path class="cls-8" d="M14.75,24h-.34c-.45,0-.89-.09-1.33-.15l-.19,0c-.59-.09-1.17-.21-1.73-.34l-.16,0v1a21.18,21.18,0,0,0,10,0v-1l-.16,0c-.57.14-1.14.26-1.73.34l-.19,0c-.44.06-.88.11-1.33.15h-.35c-.38,0-.78,0-1.24,0s-.87,0-1.24,0Z"/></g></g></svg>