<svg xmlns="http://www.w3.org/2000/svg" viewBox="0 0 129.83 233.12"><defs><style>.cls-1{opacity:0.3;}.cls-2{fill:#666;}.cls-3{fill:#ffe252;}.cls-4{fill:#fff4bf;}.cls-5{fill:#5f4e56;}.cls-6{fill:#c4c4c4;}.cls-7{fill:#e2e2e2;}</style></defs><title>icon-criatividade</title><g id="Layer_2" data-name="Layer 2"><g id="Layer_1-2" data-name="Layer 1"><g class="cls-1"><path class="cls-2" d="M120.83,134.17a60.42,60.42,0,1,0-91,52.08A11.81,11.81,0,0,0,34,209.08a11.94,11.94,0,0,0-12,11.82v.2a12.23,12.23,0,0,0,12.09,12H86.74A12.38,12.38,0,0,0,99,221.1V221a12.05,12.05,0,0,0-12-11.87,11.75,11.75,0,0,0,11.71-11.84,11.88,11.88,0,0,0-7.58-11A60.35,60.35,0,0,0,120.83,134.17Z"/></g><circle class="cls-3" cx="66.42" cy="121.17" r="60.42"/><circle class="cls-4" cx="57.97" cy="129.62" r="49.46"/><path class="cls-5" d="M66.42,184.59a63.42,63.42,0,1,1,63.42-63.42A63.49,63.49,0,0,1,66.42,184.59Zm0-120.83a57.42,57.42,0,1,0,57.42,57.42A57.48,57.48,0,0,0,66.42,63.76Z"/><rect class="cls-6" x="28.28" y="172.44" width="76.28" height="23.64" rx="11.82" ry="11.82"/><rect class="cls-6" x="28.28" y="196.08" width="76.28" height="23.64" rx="11.82" ry="11.82"/><rect class="cls-7" x="28.28" y="172.44" width="62.06" height="23.64" rx="11.82" ry="11.82"/><rect class="cls-7" x="28.28" y="196.08" width="62.06" height="23.64" rx="11.82" ry="11.82"/><path class="cls-5" d="M66,175.12a3,3,0,0,1-3-3V140.93c-4.84,0-9.52-.87-12.81-3.3a11.57,11.57,0,0,1-4.66-9.76,12.07,12.07,0,0,1,3.52-9,11.26,11.26,0,0,1,7.87-3.08A12,12,0,0,1,69,128.12v6.42l1.25-.16a84.34,84.34,0,0,0,11.85-2.6,3,3,0,0,1,1.79,5.73A84.2,84.2,0,0,1,69,140.6v31.51A3,3,0,0,1,66,175.12Zm-9.08-53.37a5.3,5.3,0,0,0-3.71,1.4,6.37,6.37,0,0,0-1.68,4.72,5.59,5.59,0,0,0,2.21,4.92c1.89,1.39,5.08,2.11,9.26,2.12v-6.8A6,6,0,0,0,56.92,121.75Z"/><path class="cls-5" d="M111.36,53.38a3,3,0,0,1-2.59-4.5L122.21,25.6a3,3,0,1,1,5.2,3L114,51.88A3,3,0,0,1,111.36,53.38Z"/><path class="cls-5" d="M66.42,41.12a3,3,0,0,1-3-3V3a3,3,0,0,1,6,0V38.12A3,3,0,0,1,66.42,41.12Z"/><path class="cls-5" d="M21.36,53a3,3,0,0,1-2.6-1.5L4.83,27.33a3,3,0,1,1,5.2-3L24,48.47A3,3,0,0,1,21.36,53Z"/><path class="cls-5" d="M92.74,199.08H40.09a14.82,14.82,0,0,1,0-29.64H92.74a14.82,14.82,0,0,1,0,29.64ZM40.09,175.44a8.82,8.82,0,0,0,0,17.64H92.74a8.82,8.82,0,0,0,0-17.64Z"/><path class="cls-5" d="M92.74,222.71H40.09a14.82,14.82,0,1,1,0-29.64H92.74a14.82,14.82,0,0,1,0,29.64ZM40.09,199.08a8.82,8.82,0,1,0,0,17.64H92.74a8.82,8.82,0,1,0,0-17.64Z"/></g></g></svg>