<svg xmlns="http://www.w3.org/2000/svg" viewBox="0 0 224.07 182.91"><defs><style>.cls-1{fill:#cabfde;}.cls-2{fill:#5f4e56;}.cls-3{opacity:0.3;}.cls-4{fill:#666;}.cls-5{fill:#ffe252;}.cls-6{fill:#faba51;}</style></defs><title>icon-phone_vintage</title><g id="Layer_2" data-name="Layer 2"><g id="Layer_1-2" data-name="Layer 1"><path class="cls-1" d="M87,168.56,19.29,179.91V114L87,125.36a11.17,11.17,0,0,1,9.33,11v21.16A11.17,11.17,0,0,1,87,168.56Z"/><path class="cls-2" d="M19.29,182.91a3,3,0,0,1-3-3V114a3,3,0,0,1,3.5-3L87.5,122.4a14.13,14.13,0,0,1,11.83,14v21.16a14.13,14.13,0,0,1-11.83,14L19.79,182.87A3,3,0,0,1,19.29,182.91Zm3-65.37v58.82L86.51,165.6l.5,3-.5-3a8.15,8.15,0,0,0,6.82-8.06V136.38a8.15,8.15,0,0,0-6.82-8.06Z"/><path class="cls-2" d="M33.18,158.61a3,3,0,0,1-3-3v-39a3,3,0,0,1,6,0v39A3,3,0,0,1,33.18,158.61Z"/><path class="cls-2" d="M45.18,154.61a3,3,0,0,1-3-3v-32a3,3,0,0,1,6,0v32A3,3,0,0,1,45.18,154.61Z"/><path class="cls-2" d="M57.18,149.61a3,3,0,0,1-3-3v-23a3,3,0,0,1,6,0v23A3,3,0,0,1,57.18,149.61Z"/><path class="cls-1" d="M15.5,114h3.79a0,0,0,0,1,0,0v65.91a0,0,0,0,1,0,0H15.5a7.59,7.59,0,0,1-7.59-7.59V121.59A7.59,7.59,0,0,1,15.5,114Z"/><path class="cls-2" d="M19.29,182.91H15.5A10.6,10.6,0,0,1,4.91,172.32V121.59A10.6,10.6,0,0,1,15.5,111h3.79a3,3,0,0,1,3,3v65.91A3,3,0,0,1,19.29,182.91ZM15.5,117a4.6,4.6,0,0,0-4.59,4.59v50.73a4.6,4.6,0,0,0,4.59,4.59h.79V117Z"/><g class="cls-3"><path class="cls-4" d="M19.68,144.7V178l67.71-11.36a11.17,11.17,0,0,0,9.33-11V145.7Z"/></g><rect class="cls-1" x="96.88" y="140.09" width="7.45" height="15.05"/><path class="cls-2" d="M104.33,158.14H96.88a3,3,0,0,1-3-3V140.09a3,3,0,0,1,3-3h7.45a3,3,0,0,1,3,3v15.05A3,3,0,0,1,104.33,158.14Zm-4.45-6h1.45v-9.05H99.88Z"/><path class="cls-5" d="M95.24,14.36,162.95,3V68.91L95.24,57.56a11.17,11.17,0,0,1-9.33-11V25.38A11.17,11.17,0,0,1,95.24,14.36Z"/><g class="cls-3"><path class="cls-4" d="M162.95,35.61v33.3L95.24,57.56a11.17,11.17,0,0,1-9.33-11V36.61Z"/></g><path class="cls-2" d="M162.95,71.91a3,3,0,0,1-.5,0L94.74,60.51a14.13,14.13,0,0,1-11.83-14V25.38a14.13,14.13,0,0,1,11.83-14L162.45,0a3,3,0,0,1,3.5,3V68.91a3,3,0,0,1-3,3ZM95.24,14.36l.5,3a8.15,8.15,0,0,0-6.82,8.06V46.53a8.15,8.15,0,0,0,6.82,8.06l64.21,10.77V6.55L95.73,17.32Z"/><path class="cls-2" d="M149.18,69.61a3,3,0,0,1-3-3v-39a3,3,0,0,1,6,0v39A3,3,0,0,1,149.18,69.61Z"/><path class="cls-2" d="M137.18,66.61a3,3,0,0,1-3-3v-32a3,3,0,0,1,6,0v32A3,3,0,0,1,137.18,66.61Z"/><path class="cls-2" d="M125.18,62.61a3,3,0,0,1-3-3v-23a3,3,0,1,1,6,0v23A3,3,0,0,1,125.18,62.61Z"/><path class="cls-6" d="M170.54,3h3.79a0,0,0,0,1,0,0V68.91a0,0,0,0,1,0,0h-3.79a7.59,7.59,0,0,1-7.59-7.59V10.59A7.59,7.59,0,0,1,170.54,3Z" transform="translate(337.28 71.91) rotate(180)"/><path class="cls-2" d="M166.74,71.91h-3.79a3,3,0,0,1-3-3V3a3,3,0,0,1,3-3h3.79a10.6,10.6,0,0,1,10.59,10.59V61.32A10.6,10.6,0,0,1,166.74,71.91Zm-.79-6h.79a4.6,4.6,0,0,0,4.59-4.59V10.59A4.6,4.6,0,0,0,166.74,6h-.79Z"/><rect class="cls-6" x="77.91" y="27.78" width="7.45" height="15.05" transform="translate(163.27 70.6) rotate(180)"/><path class="cls-2" d="M85.36,45.83H77.91a3,3,0,0,1-3-3V27.77a3,3,0,0,1,3-3h7.45a3,3,0,0,1,3,3V42.83A3,3,0,0,1,85.36,45.83Zm-4.45-6h1.45V30.77H80.91Z"/><path class="cls-2" d="M77.18,38.61h-41a3,3,0,0,1,0-6h41a3,3,0,0,1,0,6Z"/><path class="cls-2" d="M149.18,150.61h-45a3,3,0,1,1,0-6h45a3,3,0,0,1,0,6Z"/><path class="cls-2" d="M35.91,104.43a35.91,35.91,0,1,1,0-71.82,3,3,0,0,1,0,6,29.91,29.91,0,0,0,0,59.82,3,3,0,1,1,0,6Z"/><path class="cls-2" d="M188.7,53.45a3,3,0,0,1,0-6,12.4,12.4,0,0,0,0-24.8,3,3,0,0,1,0-6,18.4,18.4,0,0,1,0,36.8Z"/><path class="cls-2" d="M189,70.1a3,3,0,0,1,0-6A29,29,0,0,0,189,6a3,3,0,1,1,0-6,35,35,0,0,1,0,70.1Z"/><path class="cls-2" d="M149,150.61a3,3,0,0,1,0-6,20.09,20.09,0,0,0,0-40.18H35.91a3,3,0,1,1,0-6H149a26.09,26.09,0,1,1,0,52.18Z"/></g></g></svg>