<svg xmlns="http://www.w3.org/2000/svg" viewBox="0 0 461.94 327.64"><defs><style>.cls-1{fill:#fff;}.cls-2{fill:#faba51;}.cls-3{fill:#e48b53;}.cls-4{fill:#e3874f;}.cls-5{fill:#d3793f;}.cls-6{fill:#d4b143;}.cls-7{fill:#fee63c;}</style></defs><title>logo-cc-fundo_roxo</title><g id="Layer_2" data-name="Layer 2"><g id="Layer_1-2" data-name="Layer 1"><path id="tipo-cutia" class="cls-1" d="M99.92,241.72a22.59,22.59,0,0,0-7-4.75,21.14,21.14,0,0,0-8.41-1.72,24.1,24.1,0,0,0-8.73,2A22.94,22.94,0,0,0,68.67,242,21.78,21.78,0,0,0,64,248.9a21.55,21.55,0,0,0-1.68,8.51,21.72,21.72,0,0,0,6.46,15.74,21.46,21.46,0,0,0,7,4.59,22.62,22.62,0,0,0,8.6,1.64A21.71,21.71,0,0,0,100,272.93a23.19,23.19,0,0,0,4.73-7,21.87,21.87,0,0,0,0-17.13A23.17,23.17,0,0,0,99.92,241.72Zm-2.75,21.12a14.86,14.86,0,0,1-2.94,4.39,13.68,13.68,0,0,1-4.38,3,13.49,13.49,0,0,1-5.44,1.12A13,13,0,0,1,79,270.26a14.5,14.5,0,0,1-4.35-3,14.11,14.11,0,0,1-3-4.42,13.26,13.26,0,0,1-1.12-5.41,13.56,13.56,0,0,1,1.13-5.53,13.73,13.73,0,0,1,3-4.39,14.3,14.3,0,0,1,4.36-2.89,13.72,13.72,0,0,1,5.34-1.06h.1a13.86,13.86,0,0,1,9.72,4.21,14.24,14.24,0,0,1,4.05,9.55v.11A13.37,13.37,0,0,1,97.17,262.84Zm39.07-26.21a4.76,4.76,0,0,1,1.37,3,3.7,3.7,0,0,1-1.17,2.74,4.36,4.36,0,0,1-3,1.27,13.58,13.58,0,0,0-9.69,4,14.23,14.23,0,0,0-3,4.37,13.66,13.66,0,0,0-1.12,5.52v18.37a4,4,0,0,1-1.21,2.68,3.92,3.92,0,0,1-3,1,3.8,3.8,0,0,1-2.83-1.07,4.51,4.51,0,0,1-1.27-3V256.86a20.55,20.55,0,0,1,1.86-8.21,22.31,22.31,0,0,1,4.74-6.76,22.91,22.91,0,0,1,7-4.57,24.35,24.35,0,0,1,8.47-1.88A3.82,3.82,0,0,1,136.24,236.62Zm26.06,0a4.76,4.76,0,0,1,1.37,3,3.7,3.7,0,0,1-1.17,2.74,4.35,4.35,0,0,1-3,1.27,13.56,13.56,0,0,0-9.69,4,14.27,14.27,0,0,0-3,4.37,13.66,13.66,0,0,0-1.13,5.52V275.9a4,4,0,0,1-1.21,2.67,3.93,3.93,0,0,1-3,1,3.8,3.8,0,0,1-2.83-1.07,4.5,4.5,0,0,1-1.27-3V256.86a20.51,20.51,0,0,1,1.86-8.21,22.26,22.26,0,0,1,4.74-6.76,22.91,22.91,0,0,1,7-4.57,24.37,24.37,0,0,1,8.47-1.88A3.82,3.82,0,0,1,162.3,236.62Zm39.57,5.45a24.3,24.3,0,0,0-7.14-4.92,20,20,0,0,0-8.31-1.81,20.19,20.19,0,0,0-8.4,1.81,23.54,23.54,0,0,0-7.07,4.91,23.93,23.93,0,0,0-4.83,7.13,20.19,20.19,0,0,0-1.76,8.22,21.19,21.19,0,0,0,1.77,8.46,23.11,23.11,0,0,0,4.86,7.19,23.44,23.44,0,0,0,7.11,4.86,18.3,18.3,0,0,0,8.22,1.57,29.43,29.43,0,0,0,6.59-.89,13.23,13.23,0,0,0,5-2.5,3.84,3.84,0,0,0,1-2.06,4,4,0,0,0-.31-2.24,4.38,4.38,0,0,0-3.83-2.54,3.45,3.45,0,0,0-1.08.17,15.27,15.27,0,0,0-1.48.61,14.36,14.36,0,0,1-2.4.86,12.92,12.92,0,0,1-3.4.4c-4.79,0-8.73-2.43-11.4-7l-2.17-3.75h31.69a4.81,4.81,0,0,0,3.05-.91,2.49,2.49,0,0,0,1-2.18,19.58,19.58,0,0,0-1.81-8.24A24.44,24.44,0,0,0,201.87,242.07ZM173,254.23l2-3.7a13.26,13.26,0,0,1,5-5.4,12.77,12.77,0,0,1,17.87,5.4l2,3.7Zm94.5-12.57a3.6,3.6,0,0,1,.9,2.72,3.78,3.78,0,0,1-1.2,2.68,4.46,4.46,0,0,1-3,1.15h-.2a3.29,3.29,0,0,1-2.56-1l-.15-.14a13.34,13.34,0,0,0-9.19-3.49,13,13,0,0,0-5.47,1.2,15.28,15.28,0,0,0-4.37,3,14.59,14.59,0,0,0-3,4.35,12.8,12.8,0,0,0-1.14,5.29,13.34,13.34,0,0,0,1.13,5.41,13.74,13.74,0,0,0,3.08,4.44,15.14,15.14,0,0,0,4.37,3,12.14,12.14,0,0,0,5.44,1,13.32,13.32,0,0,0,9.14-3.38l.2-.19a3.87,3.87,0,0,1,5.62,0l.2.2A3.24,3.24,0,0,1,268,269a3.73,3.73,0,0,1,.34,1.43,3.8,3.8,0,0,1-.22,1.46,3.62,3.62,0,0,1-.68,1.18,22.51,22.51,0,0,1-7,4.79,21.36,21.36,0,0,1-8.46,1.63,20.9,20.9,0,0,1-8.53-1.77,23,23,0,0,1-11.88-11.88,20.66,20.66,0,0,1-1.77-8.43,20.41,20.41,0,0,1,1.77-8.33,22.8,22.8,0,0,1,4.85-7,24.67,24.67,0,0,1,7.15-4.89,20.2,20.2,0,0,1,8.41-1.81A20.93,20.93,0,0,1,267.45,241.66Zm49.3-5.17a4.11,4.11,0,0,1,1.35,2.71v18.21a21.49,21.49,0,0,1-1.72,8.56,22.35,22.35,0,0,1-11.8,11.79,21.64,21.64,0,0,1-8.65,1.72h-.1a19.07,19.07,0,0,1-8.28-1.48,22.74,22.74,0,0,1-12-11.64,19.54,19.54,0,0,1-1.8-8.24V239.44a4.15,4.15,0,0,1,8.3.1v17.87a13.3,13.3,0,0,0,1.13,5.41,13.9,13.9,0,0,0,7.33,7.34,13.9,13.9,0,0,0,10.62.14,14.51,14.51,0,0,0,4.34-2.69,12.62,12.62,0,0,0,3.1-4.29,13.08,13.08,0,0,0,1.14-5.39V239.44a4.11,4.11,0,0,1,7.05-3Zm46.48,32.33a4.26,4.26,0,0,1,.35,1.53,4.42,4.42,0,0,1-.23,1.61,2.83,2.83,0,0,1-.68,1.12,23.43,23.43,0,0,1-7.07,4.78,20.56,20.56,0,0,1-8.16,1.63,25.31,25.31,0,0,1-9.06-1.62A22.58,22.58,0,0,1,331,273.3a21.72,21.72,0,0,1-5.06-7.11,23.47,23.47,0,0,1-2-9.28V223.5a3.31,3.31,0,0,1,1.23-2.69,4.6,4.6,0,0,1,3.16-1.21,3.92,3.92,0,0,1,3,1.22,5.06,5.06,0,0,1,1.42,3.27v10.54h20a3.65,3.65,0,0,1,2.91,1.2,4.38,4.38,0,0,1,1.19,3.1,4.09,4.09,0,0,1-1.32,3,3.78,3.78,0,0,1-2.78,1.33h-20v13.67a13.87,13.87,0,0,0,1.05,5.38,14.54,14.54,0,0,0,2.87,4.46,13.41,13.41,0,0,0,4.41,3.12,13.61,13.61,0,0,0,5.53,1.13,15.35,15.35,0,0,0,5.41-.87,11.82,11.82,0,0,0,4.11-2.62,4.85,4.85,0,0,1,3.16-1.23,4.45,4.45,0,0,1,3,1.34A3.58,3.58,0,0,1,363.23,268.82Zm14.14-47.5a4.11,4.11,0,0,1,0,5.8,3.52,3.52,0,0,1-2.66,1.2,4.62,4.62,0,0,1-3.15-1.2,4.1,4.1,0,0,1-1.1-3.11,3.72,3.72,0,0,1,1.27-2.72,4.14,4.14,0,0,1,2.94-1.17A3.53,3.53,0,0,1,377.37,221.31Zm-8.51,57.48a4.63,4.63,0,0,1-1.39-2.88V239.44a3.76,3.76,0,0,1,1.3-2.61,4.47,4.47,0,0,1,2.9-1.19,3.29,3.29,0,0,1,2.57,1.12,5,5,0,0,1,1.32,3.08v35.84a3.9,3.9,0,0,1-1,2.85,4.29,4.29,0,0,1-2.93,1.25A3.94,3.94,0,0,1,368.86,278.8Zm74.76-19.89a1.75,1.75,0,0,0-.83-2.5c-1.06-.52-2.69.74-2.69.74-.69-.51-1.64-3.83.84-7.37a7.93,7.93,0,0,1,6.71-3h.15c4.12.06,7,2.09,8.68,6.05,2.52,6.09.9,12.51-4.44,17.62a15.94,15.94,0,0,1-11,3.94c-7.33,0-15-4.17-15.48-13.49v-3.45a21.39,21.39,0,0,0-1.5-8,23.25,23.25,0,0,0-4.13-6.79,21.7,21.7,0,0,0-6.2-4.87,21.24,21.24,0,0,0-7.69-2.37,8,8,0,0,0-1.09-.09h-1.47a21.31,21.31,0,0,0-12.2,3.63,22.29,22.29,0,0,0-8.06,9.61,24.37,24.37,0,0,0-1.41,4.31,20.59,20.59,0,0,0,0,9,24.26,24.26,0,0,0,1.43,4.34,22.67,22.67,0,0,0,8.06,9.55,21.13,21.13,0,0,0,12.19,3.68,22.42,22.42,0,0,0,5-.54,24.28,24.28,0,0,0,4.43-1.54l.58-.33.09-.05a28.4,28.4,0,0,0,4-2.54,3.48,3.48,0,0,1,.67-.46,6.7,6.7,0,0,1,3.28-.87,6.3,6.3,0,0,1,3.43,1l.23.16A23.38,23.38,0,0,0,440,279.81h0a21.44,21.44,0,0,0,9.46-2.21A23.21,23.21,0,0,0,461.75,254,12.16,12.16,0,0,0,451,243.31a13.85,13.85,0,0,0-1.72-.11c-4.93,0-9.74,2.51-11.46,6a9.26,9.26,0,0,0,0,8.94,4.09,4.09,0,0,0,3.25,2.2,3.69,3.69,0,0,0,2.3-.95m-27.22,3.58a14.16,14.16,0,0,1-3,4.36,13.6,13.6,0,0,1-4.41,2.93,14,14,0,0,1-5.37,1.05,12.62,12.62,0,0,1-5.19-1.13,15.09,15.09,0,0,1-4.32-2.92,14.66,14.66,0,0,1-3.07-4.35,12.94,12.94,0,0,1-1.19-5.47,13.15,13.15,0,0,1,1.12-5.32,14.5,14.5,0,0,1,7.36-7.42,13.1,13.1,0,0,1,10.61,0,14.23,14.23,0,0,1,4.42,3,14.4,14.4,0,0,1,3,4.42,13,13,0,0,1,1.12,5.32A13.57,13.57,0,0,1,416.13,262.95ZM57.12,269a3.72,3.72,0,0,1,.33,1.41,3.89,3.89,0,0,1-.22,1.45,3.65,3.65,0,0,1-.68,1.19,22.26,22.26,0,0,1-7,4.8,21.3,21.3,0,0,1-8.46,1.63,20.91,20.91,0,0,1-8.53-1.77,22.91,22.91,0,0,1-11.87-11.88,20.58,20.58,0,0,1-1.72-8l0-2.4c0-.3.07-.57.11-.85a25.49,25.49,0,0,1-6,1h0a12.68,12.68,0,0,1-6-1C1.76,252.28-1,247.22.35,240.86c1-4.61,4.81-7.94,7.72-8.5a9.18,9.18,0,0,1,1.13-.15,7,7,0,0,1,6.88,3.8,5.1,5.1,0,0,1-.41,5.25c-.64.93-1.29,1.75-2.06,1.81-.49,0-1.29.2-1.76-.17s-.83-1.08-.63-1.56.86-1.27,1.18-1.21c0,0,1.39-.28,1.62.48,1.79-2.09-.36-6.56-4.2-5.92h-.1c-2.68.23-5,2.6-5.72,5.39-1.16,4.29,1.54,8.56,3.75,9.63a12.23,12.23,0,0,0,6.37,1,14.33,14.33,0,0,0,7.64-3.61,22.4,22.4,0,0,1,3.83-5,24.65,24.65,0,0,1,7.15-4.89,20.15,20.15,0,0,1,8.41-1.81,20.94,20.94,0,0,1,15.44,6.32,3.6,3.6,0,0,1,.9,2.72,3.77,3.77,0,0,1-1.2,2.69,4.43,4.43,0,0,1-3,1.14H53a3.31,3.31,0,0,1-2.57-1l-.14-.14a13.3,13.3,0,0,0-9.19-3.49,12.93,12.93,0,0,0-5.46,1.19,15.27,15.27,0,0,0-4.39,3,14.68,14.68,0,0,0-3,4.35,12.83,12.83,0,0,0-1.13,5.29,13.39,13.39,0,0,0,1.12,5.42,13.9,13.9,0,0,0,3.08,4.45,15.26,15.26,0,0,0,4.38,3,12.14,12.14,0,0,0,5.44,1,13.31,13.31,0,0,0,9.13-3.38l.19-.19a3.87,3.87,0,0,1,5.62,0l.21.21A3.17,3.17,0,0,1,57.12,269Z"/><path id="tipo-festa" class="cls-1" d="M123.16,307.65a1.66,1.66,0,0,1,0,3.32,15,15,0,0,1-1.75-.05l-2.53,0c.1,2.4.29,4.79.43,7.18.12,2.12.05,4.26.21,6.38.08,1,.4,2-.62,2.73a1.93,1.93,0,0,1-3-1.26,19.62,19.62,0,0,1-.24-3.5c-.06-1.57-.08-3.14-.17-4.71-.07-1.18-.14-2.36-.21-3.54,0-.66-.1-1.32-.13-2,0-.27.09-.88,0-1.09-.29-.46-2.81-.1-3.5-.1a3.12,3.12,0,0,1-2.52-.63c-1.05-1.16,0-2.62,1.37-2.71.86-.06,1.74,0,2.6,0h1.3c.51,0,.57.13.63-.4a22.84,22.84,0,0,0,0-2.44c0-1.25.06-2.49.2-3.73s.64-2.17,2-2.11a1.81,1.81,0,0,1,1.77,2c-.15,2.19-.26,4.35-.22,6.55a27.46,27.46,0,0,1,4.34,0C123.61,307.7,123.15,307.65,123.16,307.65Zm56.26,1.77c-2.31-1.77-5.14-3.68-8.21-3.12a5.62,5.62,0,0,0-4,2.45,4.47,4.47,0,0,0,.25,4.72,19.28,19.28,0,0,0,3.79,3.53c1,.87,3,2.42,2.81,4-.15,1-2.15,2.1-3.1,1.91s-1.95-1.78-2.27-2.57-.3-1.69-1-2.24c-1.27-1-3.42-.09-3.09,1.64a9.05,9.05,0,0,0,4.66,6.19c2.73,1.23,7.32-.81,8.33-3.6,1.34-3.74-2.4-6.62-4.9-8.7-.75-.62-2.84-2-2.16-3.24.57-1.06,2.14-.83,3-.5a9.67,9.67,0,0,1,2.36,1.27,12.25,12.25,0,0,0,1.22.93C178.86,313,181.21,310.8,179.41,309.42Zm-27.67,16.68c-1.17.58-2-.07-2.38-1.17a23.5,23.5,0,0,1-1-5.78,17.52,17.52,0,0,1-3.25,5.53c-2,2.15-4.48,1.79-6.64,0-2.86-2.36-2.49-7.11-2-10.39a9.35,9.35,0,0,1,9.1-7.65,6.08,6.08,0,0,1,1.85.45c.63.26.55.11,1.17,0a2.67,2.67,0,0,1,2.49.77c.53.75.31,2.44.34,3.33,0,.5.08,1,.13,1.5.2,1.89.32,3.81.47,5.7.08,1,.19,2,.31,3,0,.34.12.67.2,1,.12.53.38.95.51,1.46C153.36,324.9,152.68,325.62,151.74,326.09Zm-9.2-4c1.63-1.88,2.46-4.57,3.38-6.84a26.89,26.89,0,0,0,1.18-3.42c.15-.57.31-.83-.21-1.16a6.25,6.25,0,0,0-1.12-.59c-1.79-.67-4.13,1.26-4.94,2.69-1,1.78-1,4.33-.85,6.31a6.21,6.21,0,0,0,.33,2.19,2.7,2.7,0,0,0,1,1.15c.67.48.77.25,1.29-.33ZM96.78,309.42c-2.31-1.77-5.14-3.68-8.21-3.12a5.62,5.62,0,0,0-4,2.45,4.47,4.47,0,0,0,.25,4.72A19.28,19.28,0,0,0,88.61,317c1,.87,3,2.42,2.81,4-.15,1-2.15,2.1-3.1,1.91s-1.95-1.78-2.27-2.57-.3-1.69-1-2.24c-1.27-1-3.42-.09-3.09,1.64a9.05,9.05,0,0,0,4.66,6.19c2.73,1.23,7.32-.81,8.33-3.6,1.34-3.74-2.4-6.62-4.9-8.7-.75-.62-2.84-2-2.16-3.24.57-1.06,2.14-.83,3-.5a9.67,9.67,0,0,1,2.36,1.27,12.25,12.25,0,0,0,1.22.93C96.22,313,98.58,310.8,96.78,309.42Zm251.09-6.17c1.66,1.39,4.52-.66,2.68-2.33a2.11,2.11,0,0,0-2.37-.4A1.62,1.62,0,0,0,347.86,303.24ZM40.73,299.75a6.93,6.93,0,0,0-7.59-.39c-2.76,1.75-2.6,5.83-2.2,8.62H28c-1.09,0-2.91-.25-3.77.57a1.57,1.57,0,0,0,.17,2.4,3,3,0,0,0,2.06.39c1.17,0,2.35,0,3.53,0,.16,0,1.09-.12,1.22,0,.29.27,0,2.23,0,2.69,0,2.26-.12,4.54,0,6.8a12.49,12.49,0,0,1,.06,2.7c-.1.61-.54,1.14-.45,1.77a1.83,1.83,0,0,0,1.85,1.44,2.1,2.1,0,0,0,1.94-1.4c.92-2,.33-4.6.31-6.76,0-2.4.15-4.79.11-7.19a24.8,24.8,0,0,0,4.23-.31c1.23-.19,2.39-1.34,1.49-2.59s-2.52-.58-3.75-.48a7.18,7.18,0,0,1-1.87,0c-.63-.13-.19.11-.39-.28a2.78,2.78,0,0,1-.12-.73c-.28-1.89-.44-5.63,2.44-5.24,1,.14,1.66,1.12,2.79,1A1.69,1.69,0,0,0,40.73,299.75Zm28.68,19.69c2.42.94.29,3.42-.7,4.56a9.24,9.24,0,0,1-6.66,3.55,7.19,7.19,0,0,1-5.41-2.64,10.6,10.6,0,0,1-2.2-6.07,5.06,5.06,0,0,0-.1-.94c-.13-.42-.22-.41-.56-.72a4.82,4.82,0,0,1-.59-.62,1.63,1.63,0,0,1,.52-2.5,1.92,1.92,0,0,1,.66-.24q0-.16,0-.31a3.46,3.46,0,0,0,.13-.71,10.39,10.39,0,0,1,.52-1.7,5.52,5.52,0,0,1,1.83-2.53,7.6,7.6,0,0,1,6.37-1.51,5.57,5.57,0,0,1,4.29,4.86c.38,4.78-5,8.1-9.28,7.43.31,1.72.79,3.35,2.31,4.37a2.91,2.91,0,0,0,3.13,0,7.86,7.86,0,0,0,2.89-2.89c.55-.83,1.59-2.18,2.78-1.38C70,319.67,69.41,319.44,69.41,319.44Zm-.36.93Zm-9-4.35a6.65,6.65,0,0,0,2.37-1c1.24-.89,2-3.24.59-4.36-1.13-.89-3.23-.22-4.05.8s-1,2.84-1,4.13C57.9,316.21,59.71,316.11,60.09,316Zm215.38-12.78c1.66,1.39,4.52-.66,2.68-2.33a2.11,2.11,0,0,0-2.37-.4A1.62,1.62,0,0,0,275.47,303.24Zm130.26,22a18.79,18.79,0,0,1-1.16-6.1,17.85,17.85,0,0,1-3,5.3,4.88,4.88,0,0,1-3.18,1.81,5.27,5.27,0,0,1-3.42-1.36c-2.87-2.22-2.79-6.49-2.33-9.76a8.88,8.88,0,0,1,2.89-5.93,9.18,9.18,0,0,1,5.26-2.55,6.79,6.79,0,0,1,2.05.17c.41.1,1,.53,1.4.54s.75-.32,1.15-.32a3.05,3.05,0,0,1,1.31.31c1,.53.91,1.53.95,2.56s.08,1.88.18,2.82c.2,1.93.35,3.88.48,5.81.06,1,.18,2,.31,2.94,0,.35.13.69.2,1s.37.87.5,1.34C409.89,325.81,406.68,327.32,405.73,325.24Zm-6.94-3.11c1.61-1.84,2.43-4.51,3.34-6.76a28.51,28.51,0,0,0,1.19-3.45c.07-.26.29-.77.16-1s-.22-.14-.29-.19a4.17,4.17,0,0,0-1.19-.63c-1.84-.68-4.23,1.34-5,2.85-.94,1.81-.91,4.26-.77,6.24a5.92,5.92,0,0,0,.32,2.11,2.7,2.7,0,0,0,1,1.15c.69.49.76.27,1.28-.33ZM379.62,306a1.93,1.93,0,0,0-2.35,1.41c-.46,1.18-1.1,2.28-1.63,3.43A62.17,62.17,0,0,0,372.4,321c-1.49-3.86-3-7.7-4.44-11.59a5.82,5.82,0,0,0-1.13-2.18,2,2,0,0,0-3.13.14c-.63,1,0,1.6.44,2.42.63,1.29,1,2.76,1.55,4.1.89,2.33,1.66,4.68,2.65,7,.53,1.22,1,2.48,1.51,3.7.44,1,.88,2.21,1.89,2.74,2.64,1.4,3.39-2.29,3.85-4s1-3.57,1.48-5.35a39,39,0,0,1,2.12-6.08c.66-1.42,3.37-5.25.41-5.9Zm-28.38,17.83c-.17-1.55-.38-3.12-.41-4.68s.1-3.35.09-5,.51-7.82-3-6.48c-1.28.5-1.11,1.63-1,2.71a30.27,30.27,0,0,1,.15,4.4,62.93,62.93,0,0,0,.44,10,3.32,3.32,0,0,0,.67,2,2.28,2.28,0,0,0,2.15.49c1.5-.36,2.33-2.38.82-3.33C351.23,323.77,351.55,324,351.24,323.81Zm84.43-14.4c-1.87-1.87-5.19-3.54-7.87-3.18a5.88,5.88,0,0,0-4.27,2.39,4.45,4.45,0,0,0,.11,4.72,17.39,17.39,0,0,0,3.74,3.54c1.07.89,3.17,2.48,2.93,4.08-.15,1-2.16,2.12-3.1,1.91s-1.88-1.69-2.22-2.45-.33-1.79-1.07-2.36c-1.27-1-3.41-.09-3.09,1.64a8.94,8.94,0,0,0,4.8,6.25c2.72,1.11,7.2-.9,8.19-3.66,1.36-3.8-2.5-6.68-5-8.79-.72-.6-2.74-1.92-2.06-3.15.59-1.06,2.13-.84,3-.5a19.2,19.2,0,0,1,3.46,2.12c1.73,1.07,4.27-1.13,2.41-2.56ZM236.29,319c3.48,1.22-1.59,5.68-2.91,6.44-1.54.89-3.44,1.69-5.26,1.27a6.22,6.22,0,0,1-4-3.13c-2.22-4.14-3-11.69,1.23-15a8.3,8.3,0,0,1,9.07-.37c.92.55,2.2,1.46,1.73,2.69-.6,1.57-2.33,1.21-3.36.42-2-1.54-5-1.17-6,1.25a9.45,9.45,0,0,0-.66,3.48,12,12,0,0,0,.44,4,6.34,6.34,0,0,0,1.56,2.91c1,.85,2,.3,3.06-.28a6.14,6.14,0,0,0,2.28-2.23c.63-1,1.41-1.93,2.76-1.45Zm-.33.94Zm97.89-12.26a27.46,27.46,0,0,0-4.34,0,54.68,54.68,0,0,1,.21-6.38,1.83,1.83,0,0,0-1.48-2.19,1.89,1.89,0,0,0-2.27,1.89c-.13,1.18-.18,2.37-.21,3.56q0,1.21,0,2.42a5.26,5.26,0,0,1,0,.77c-.06,0-.29,0-.37,0a5.45,5.45,0,0,1-1.23,0c-.93,0-1.86,0-2.78,0-1.36,0-2.68,1.45-1.54,2.71a3.12,3.12,0,0,0,2.53.63c.69,0,3.21-.36,3.5.1.14.22,0,.82,0,1.09,0,.66.09,1.32.13,2,.08,1.18.14,2.36.21,3.54.1,1.57.12,3.14.17,4.71a19.62,19.62,0,0,0,.24,3.5,1.94,1.94,0,0,0,3,1.26c1-.69.69-1.71.62-2.73-.16-2.12-.09-4.26-.21-6.38-.14-2.39-.32-4.79-.43-7.18l2.53,0a14.93,14.93,0,0,0,1.75.06,1.66,1.66,0,0,0,0-3.32Zm-71.71.29c-.47-.24-.88-.08-1.35-.16a5.27,5.27,0,0,1-.83-.31,7.14,7.14,0,0,0-2.58-.4,7.32,7.32,0,0,0-4.77,1.6,4.62,4.62,0,0,0-.09-1.92,2.13,2.13,0,0,0-2.34-1c-1.54.45-1.34,2.39-1.31,3.63.1,3.93.15,7.86,0,11.8,0,1.51-.69,4.71,1.09,5.5a2.88,2.88,0,0,0,2.12,0c1-.47.87-1.41.83-2.33-.2-4.14-.93-9.36,1.9-12.82a2.63,2.63,0,0,1,2-1,5.14,5.14,0,0,1,2.79.54,3.42,3.42,0,0,0,2.77-.29,1.6,1.6,0,0,0-.24-2.78Zm16.7,15.88c-.17-1.55-.38-3.12-.41-4.68s.1-3.35.09-5,.51-7.82-3-6.48c-1.28.5-1.11,1.63-1,2.71a30.27,30.27,0,0,1,.15,4.4,62.93,62.93,0,0,0,.44,10,3.32,3.32,0,0,0,.67,2,2.28,2.28,0,0,0,2.15.49c1.5-.36,2.33-2.38.82-3.33C278.84,323.77,279.16,324,278.84,323.81Zm25.52,1.43a18.79,18.79,0,0,1-1.16-6.1,17.85,17.85,0,0,1-3,5.3,4.88,4.88,0,0,1-3.18,1.81,5.27,5.27,0,0,1-3.42-1.36c-2.87-2.22-2.79-6.49-2.33-9.76a8.88,8.88,0,0,1,2.89-5.93,9.18,9.18,0,0,1,5.26-2.55,6.79,6.79,0,0,1,2.05.17c.41.1,1,.53,1.4.54s.75-.32,1.15-.32a3.05,3.05,0,0,1,1.31.31c1,.53.91,1.53.95,2.56s.08,1.88.18,2.82c.2,1.93.35,3.88.48,5.81.06,1,.18,2,.31,2.94,0,.35.13.69.2,1s.37.87.5,1.34C308.52,325.81,305.31,327.32,304.36,325.24Zm-6.94-3.11c1.61-1.84,2.43-4.51,3.34-6.76a28.51,28.51,0,0,0,1.19-3.45c.07-.26.29-.77.16-1s-.22-.14-.29-.19a4.17,4.17,0,0,0-1.19-.63c-1.84-.68-4.23,1.34-5,2.85-.94,1.81-.91,4.26-.77,6.24a5.92,5.92,0,0,0,.32,2.11,2.7,2.7,0,0,0,1,1.15c.69.49.76.27,1.28-.33Z"/><path id="draw-corpo" class="cls-2" d="M115.52,147.36c.71,0,1.12-.74,1.51-1.24.59-.74,1.2-1.45,1.78-2.19a48,48,0,0,0,3.52-5.09c1-1.59,1.78-3.25,2.72-4.85a16.7,16.7,0,0,0,1.1-2.08c.21-.51.32-1.34.52-1.67.74-1.08,1-2.75,1.4-4,.57-1.6,1.19-3.18,1.83-4.74q1.86-4.56,4-9c1.39-2.81,2.76-5.65,4.42-8.32,1.75-2.82,3.84-5.43,5.43-8.35a14.8,14.8,0,0,1-5.57-.15,5.57,5.57,0,0,1-2.08-1.1c-.63-.56-.94-1.39-1.58-1.93a15,15,0,0,0-1.9-1,5.2,5.2,0,0,1-1.79-2.07,10.73,10.73,0,0,1-1-4.78c0-2.94,2.21-5.09,4.89-6,3.14-1,6.49.28,8.81,2.47a9.57,9.57,0,0,1,2.89,5.14,12,12,0,0,1,.15,3.06c-.05.77-.62,2.16-.32,2.89,1.86-2.08,3.54-4.31,5.49-6.31a45.64,45.64,0,0,1,6.26-5.22A55.87,55.87,0,0,1,188.6,70.64a52.94,52.94,0,0,1,8.74.17,40.94,40.94,0,0,1,8,2,52,52,0,0,1,14.12,7.49c2.21,1.65,4.29,3.47,6.48,5.14,2.36,1.81,4.77,3.55,7.2,5.26,8.86,6.24,18.21,12.07,28.48,15.68,5.86,2.06,12.29,3.23,18.43,1.71s11.86-4.69,17.11-8A11.31,11.31,0,0,1,290,96.53a10.3,10.3,0,0,1-2.09-7.41c.42-4.89,4-9.58,8.9-10.58a7.92,7.92,0,0,1,7.45,2.21,5.36,5.36,0,0,1,.62,7c-.67.89-1.87,1.13-2.48,2a3.23,3.23,0,0,0-.08,3.24c1.16,2.18,4,3.15,6.19,3.76,3.07.84,6.26,1.15,9.38,1.77s6.29,1.4,9.38,2.3a75.57,75.57,0,0,1,17.41,7.32,59.51,59.51,0,0,1,13.52,11c3.75,4.1,6.75,8.85,6.94,14.54.08,2.5-3.12,4.24-5,5.34a41,41,0,0,1-8.71,3.63A57.54,57.54,0,0,1,342,145c-1.24.16-2-1.12-2.48-2.1a6.66,6.66,0,0,1-.58-4.21,13.33,13.33,0,0,1,1.64-3.9,7,7,0,0,0-3.15,4.31c-.69,2.27,0,4.39.74,6.55-4.59.78-9.25,1.32-13.89,1.74-2.24.2-4.5.4-6.75.47a31.2,31.2,0,0,0-6.25.59c-3.07.73-6.57,2-8.34,4.77a5,5,0,0,0-.92,2.48c0,.32.21.62.2.93s-.28.81-.3,1.24c-.09,1.79,1.32,3.14,2.66,4.09,3.64,2.58,7.61,4.82,11.48,7s8.07,4.42,12.23,6.37q3.09,1.44,6.29,2.62c1.88.69,4,1.59,6.05,1.52,3-.1,4.75-3,7.14-4.36,3-1.68,7.89-.27,7.17,3.84-.34,1.91-1.78,3.42-3.19,4.64-1.14,1-2.68,2.52-4.3,2.13a122.3,122.3,0,0,1-12.54-4.23c-4.5-1.61-9-3.2-13.52-4.8q-13.57-4.82-27.12-9.71a214.7,214.7,0,0,0-27-7.69,105.07,105.07,0,0,0-13.92-2.07,70.14,70.14,0,0,0-7.09,0c-2.36,0-4.71,0-7.07,0-9.29,0-18.57.19-27.71-1.74a71.72,71.72,0,0,1-12.66-3.89,59.71,59.71,0,0,1-6-2.85c-1.92-1.06-3.64-2.34-5.46-3.53-.62-.4-1.07-.83-1.57-.19-.65.82-1.16,1.8-1.72,2.68-1.24,1.94-2.47,3.88-3.71,5.81-.62,1-1.29,1.9-1.85,2.89-.2.36-.32.75-.51,1.12a6.35,6.35,0,0,1-1.08,1.23c-1.39,1.51-2.54,3.49-4.21,4.7-7,5.06-14.43,9.53-22.88,11.68a35.74,35.74,0,0,1-24.48-2,33.86,33.86,0,0,1-9.23-6.57c-2.53-2.54-4.14-5.86-7.82-6.87s-7.59-.2-11.08.71a29.54,29.54,0,0,0-10.86,5.49,40.92,40.92,0,0,0-8,8.55,47.91,47.91,0,0,0-3,4.92,20.71,20.71,0,0,1-2.84,4.69,5.9,5.9,0,0,1-5.2,1.9c-.92-.13-1-.57-.95-1.47a11.62,11.62,0,0,1,.59-3.21,51.3,51.3,0,0,1,5.43-11.49c4.19-6.72,10.06-12.68,17.5-15.68a24.29,24.29,0,0,1,6.08-1.62,55.37,55.37,0,0,1,7.1-.06,16.14,16.14,0,0,0,11.35-4,15.46,15.46,0,0,1,1.22-1.08c0,.19-.24.42-.35.55s-1,1.2-1.15,1.11a13.09,13.09,0,0,1,1.42-1.72C116.24,147.32,112,151.26,115.52,147.36Zm214-30.24c1.51,0,1.38-2.12,1.59-3.15s.52-3.45-1.31-2.86c-1.11.36-1.08,2.18-1.23,3.1s-.69,2.91,1,2.91Z"/><path id="draw-pernas-frente" class="cls-3" d="M303.8,192.16a22.26,22.26,0,0,1-6.91-2.35c-2.3-1.36-4.41-3-6.62-4.51q-6.75-4.57-13.68-8.87t-14-8.23c-2-1.14-4.25-2.94-6.68-2.89-2.59.05-5.22.36-7.8.61A80,80,0,0,0,240,167c-2.65.54-5.26,1.17-7.93,1.59a92.73,92.73,0,0,1-16.44,1.12c-10.26-.22-20.62-2.22-29.78-7-2.31-1.21-4.41-2.69-6.61-4.07-.7-.44-1.59-.55-1.21-1.53A19.76,19.76,0,0,1,180,154.2l4.37-6.84c.47-.74.89-1.52,1.38-2.25s.86-.37,1.49.1c7.64,5.62,17,9.1,26.26,10.78a84.2,84.2,0,0,0,15.84,1.29c5.65,0,11.31.06,17,0a84,84,0,0,1,16.1,1.08c5.43,1,10.75,2.38,16.08,3.78,10.39,2.73,20.39,6.56,30.5,10.17q15.94,5.69,31.87,11.38a54.81,54.81,0,0,0,7.45,2.22,19.18,19.18,0,0,1-11.71,1.27,50.63,50.63,0,0,1-6.25-2c-2.17-.77-4.35-1.51-6.53-2.26-8.67-3-17.33-6-26.1-8.69q-3.62-1.11-7.26-2.16L287,171a8.71,8.71,0,0,1-2.12-.52,39.05,39.05,0,0,0,4.47,4.05c1.62,1.37,3.28,2.7,5,4s3.42,2.38,5.22,3.44c1.61.95,3.35,2.07,5.29,2.08s3.31-1.06,4.87-1.9a7.24,7.24,0,0,1,5.56-.89,4.19,4.19,0,0,1,3.11,3.65c.05,1.8-1.22,3.29-2.57,4.33a14.93,14.93,0,0,1-5.72,2.61,16.48,16.48,0,0,1-3.39.34c-.6,0-1.21,0-1.81,0-.29,0-1,.14-1.22,0,.08.06.65-.13.73,0l-.6,0C301.42,191.66,305.45,192.16,303.8,192.16Z"/><path id="draw-perna-tras" class="cls-4" d="M66.37,185.77A5.79,5.79,0,0,0,72,184.58a15.14,15.14,0,0,0,3.11-4.72,45.65,45.65,0,0,1,7.17-10.05c5.85-6.19,13.38-10.11,22-10.47a11.42,11.42,0,0,1,6.08,1.14,14.2,14.2,0,0,1,3.68,3.76,33.17,33.17,0,0,0,9.22,7.8,34.65,34.65,0,0,0,23.6,3.88,54.5,54.5,0,0,0,13.85-4.81,55.46,55.46,0,0,0,6.34-3.6c1.88-1.26,3.58-2.85,5.65-3.81-2.72,3.49-6.33,6.2-9.89,8.78a72.24,72.24,0,0,1-12,7.08,28.52,28.52,0,0,1-12.71,3,28.83,28.83,0,0,1-13-3.64,40.56,40.56,0,0,1-10.18-8.11,68.18,68.18,0,0,1-4.38-5.34c-1.18-1.57-2.41-3-4.34-3.67-3.93-1.28-8.46.59-12,2.33a37.19,37.19,0,0,0-10.5,7.93A39.46,39.46,0,0,0,79,177.93c-1.37,2.17-2.54,4.44-4,6.53-1.2,1.67-2.82,3.81-4.88,4.46s-3.67-1.25-3.75-3.15c1.68.54,0,1.12,0,0C68.25,186.37,66.43,187,66.37,185.77Z"/><path id="draw-perna-dark" class="cls-3" d="M115.52,147.36a11.47,11.47,0,0,0-4.61-3.79,22.19,22.19,0,0,0-6.55-2.25,32.47,32.47,0,0,0-14.29.64,33,33,0,0,0-11.61,6.36,37.4,37.4,0,0,0-5,4.68c-1.21,1.4-2.43,3.22-4.19,4-1.37.58-2.94.26-3.36-1.33-.48-1.86.49-4.31,1.19-6,1.7-4,4.8-7.48,7.93-10.49,5.94-5.71,14-9.92,22.44-9.19a29.77,29.77,0,0,1,7.45,2,47.79,47.79,0,0,0,7.55,2.08,23,23,0,0,0,8.07.34,10,10,0,0,0,3.66-1.29,9.65,9.65,0,0,0,2.31-2.54c-.34,1.95-1.63,3.74-2.55,5.45a56.23,56.23,0,0,1-3.45,5.7c-1.2,1.7-2.51,3.35-3.85,4.94-.2.23-.53.66-.87.69s-.47-.38-.4-.39c.24,0,.56.41.14.44C114.5,145.66,116.23,147.32,115.52,147.36Z"/><path id="draw-rabo-dark" class="cls-4" d="M130,83.27a13.21,13.21,0,0,0,.57,5.7A5.58,5.58,0,0,0,132,91.16a11.36,11.36,0,0,0,2.16,1.24c.72.43,1,1.14,1.52,1.76a5.17,5.17,0,0,0,2,1.37c2,.79,4.07.52,6.13.35-.83,1.52-1.83,2.94-2.79,4.38-.43.66-.88,1.31-1.28,2-.26.44-.5,1-1,1.07a3.4,3.4,0,0,1-1.66-.53c-.63-.28-1.28-.55-1.9-.86a15.36,15.36,0,0,1-4-2.71c-4-4-4.46-11.37-1.14-15.93q.06.17-.06.22a.34.34,0,0,1,.06-.22C129.83,85.21,129.91,83.42,130,83.27Z"/><path id="draw-boca" class="cls-5" d="M302.21,156.66c-.6-1.14.15-2.6.8-3.54a9.36,9.36,0,0,1,3.4-2.85c3.18-1.7,6.5-2.1,10-2.28a187.1,187.1,0,0,0,21.71-2.31c-.7-2.16-1.43-4.28-.74-6.55a7,7,0,0,1,3.15-4.31c-1.45,2.75-2.54,5.56-.84,8.5a4.19,4.19,0,0,0,1.25,1.59c.68.39,1.55,0,2.25-.15,1.65-.37,3.31-.73,5-1.16a56,56,0,0,0,9.35-3.19,27.57,27.57,0,0,0,4.11-2.3,15.1,15.1,0,0,0,1.84-1.41A14.5,14.5,0,0,1,365,135.2c-.87,4.3-4.07,7.88-7.63,10.26-4,2.7-8.75,4.1-13.44,5.1-10,2.12-20.14,2.12-30.3,2-4.14,0-8.86.32-11.38,4.09-.37-.71.84-1.26,0,0C301.54,155.39,303.14,155.27,302.21,156.66Z"/><path id="draw-olho" class="cls-5" d="M329.56,117.12c-1.64,0-1.12-1.88-1-2.91s.13-2.83,1.31-3.12c1.79-.44,1.42,1.94,1.23,2.88s-.08,3.15-1.59,3.15Z"/><path id="draw-coisa-dark" class="cls-6" d="M102.57,3.21c.93,3.53,1.81,6.82,3.74,10a38.19,38.19,0,0,0,6.4,7.67,68.19,68.19,0,0,0,17.86,11.79,80.13,80.13,0,0,0,10.24,4.14,78.58,78.58,0,0,0,10.85,2.35,119.85,119.85,0,0,0,22.5,1.31c15.24-.43,30.09-4.25,45.24-5.53,7.46-.63,14.87-1.27,22.36-1.39,3.81-.06,7.6-.24,11.41-.18s7.53.19,11.3.43c15,1,30.22,3.47,44.21,9.13a33,33,0,0,0,5.1,2,11.86,11.86,0,0,0-2.65-1.45c-1.14-.58-2.29-1.17-3.44-1.74-2.17-1.07-4.39-2.06-6.62-3q-6.59-2.8-13.4-5a166.29,166.29,0,0,0-28.52-6.49c-2.64-.34-5.3-.71-7.95-1-1.31-.13-2.63-.18-3.95-.3s-2.74,0-4-.3a94.49,94.49,0,0,1,12.25.15c4.06.23,8.09.7,12.13,1.18a132.29,132.29,0,0,1,23.64,5.09,125.08,125.08,0,0,1,42.17,22.28c3.14,2.59,6.14,5.31,9.05,8.15s5.74,5.45,8.5,8.27a116.28,116.28,0,0,1,14.87,19,59.84,59.84,0,0,1,5.11,10.53,113.36,113.36,0,0,1,3.9,11.46A87.51,87.51,0,0,1,378,135.64a59.1,59.1,0,0,1-4.88,23.46,54.7,54.7,0,0,1-13.66,18.62c-.74.65-1.52,1.27-2.3,1.88a6.18,6.18,0,0,1-2.12,1.35,95.17,95.17,0,0,0,6.36-7.34,51.83,51.83,0,0,0,4.71-7.69,56.12,56.12,0,0,0,5.38-18.16c1.63-13.33-.92-27.16-5.66-39.63a77.2,77.2,0,0,0-9-17.54,111.61,111.61,0,0,0-12.47-14.82,117.38,117.38,0,0,0-31-21.8,121,121,0,0,0-37.78-11.08,198.35,198.35,0,0,0-41.11-.48A270.55,270.55,0,0,0,193.82,49a178,178,0,0,1-20,4,114.33,114.33,0,0,1-20.6.67C140.89,52.88,128,50,118.09,42.14c-8.91-7.13-13.94-17.84-15.29-29a52.06,52.06,0,0,1-.24-9.88C102.86,4.34,102.51,4.06,102.57,3.21Z"/><path id="draw-coisa" class="cls-7" d="M103.8,0c1.31.74,2.15,2.32,3.17,3.41a32.89,32.89,0,0,0,3.42,3.14,65.33,65.33,0,0,0,7.91,5.33,73.69,73.69,0,0,0,17.42,7.39c13.82,3.84,28.26,3.54,42.43,2.41s28.08-3,42.13-4.42c7.15-.73,14.32-1.21,21.5-1.4s14.42-.46,21.65-.18a173,173,0,0,1,41.21,6.44c12.81,3.7,25.31,9.07,36.27,16.73a82.46,82.46,0,0,1,7.86,6.33c2.49,2.24,5.11,4.28,7.5,6.64A92.34,92.34,0,0,1,369,67.57a103.4,103.4,0,0,1,14.67,37.95c2.34,13.42,2.81,27.56-1.42,40.65a69.18,69.18,0,0,1-21.46,31.25q-1.93,1.63-4,3.13a16.27,16.27,0,0,1-3.93,2.49,11.83,11.83,0,0,1,2.29-2.12,4.78,4.78,0,0,0,1-.52l1-.8c.88-.69,1.75-1.38,2.58-2.13a54.36,54.36,0,0,0,17.25-31c3-16.43-.86-33.2-7-48.44a62.37,62.37,0,0,0-5.78-10.7,93.32,93.32,0,0,0-7.15-9.75,235.06,235.06,0,0,0-17.3-17.63A121.18,121.18,0,0,0,298,34.35a148.34,148.34,0,0,0-24.1-6.4,140.25,140.25,0,0,0-24.66-2.35c-2,0-4.06-.11-6.06,0a31.37,31.37,0,0,0,3.29.23c1.26.1,2.51.21,3.77.29,2.41.16,4.81.55,7.21.84,4.7.56,9.34,1.49,14,2.44a154,154,0,0,1,28,8.55c2.47,1,4.92,2.09,7.33,3.25,1.22.59,2.42,1.2,3.62,1.81a15.08,15.08,0,0,1,3.34,1.8,34.33,34.33,0,0,1-5.28-2c-1.8-.73-3.62-1.41-5.47-2-3.69-1.22-7.45-2.28-11.24-3.14a168.6,168.6,0,0,0-22.55-3.54A213.37,213.37,0,0,0,246,33.44c-7.59.15-15.15.38-22.72,1.12-7.76.76-15.48,1.66-23.19,2.88-3.94.62-7.85,1.37-11.81,1.84-3.8.45-7.59.72-11.4,1a74.14,74.14,0,0,1-11.58.09c-3.8-.32-7.63-.33-11.4-.88a96.4,96.4,0,0,1-11.2-2.15,70.77,70.77,0,0,1-10.66-4,70.32,70.32,0,0,1-18.65-11.8,40.48,40.48,0,0,1-6.69-7.64,26.91,26.91,0,0,1-2.46-4.62A46.46,46.46,0,0,1,102.77,4a6.66,6.66,0,0,1-.22-2.3,3.24,3.24,0,0,1,.29-1.14c.25-.51.39-.52,1-.52C104.36.32,103.58,0,103.8,0Z"/></g></g></svg>