<svg xmlns="http://www.w3.org/2000/svg" viewBox="0 0 299.11 121.71"><defs><style>.cls-1{fill:#faa61a;}.cls-2{fill:#dc661e;}</style></defs><title>logo-cc_cutia</title><g id="Layer_2" data-name="Layer 2"><g id="Layer_1-2" data-name="Layer 1"><g id="corpo-cutia"><path id="draw-corpo" class="cls-1" d="M282,39.87c-14.08-10-35.06-12.62-35.06-12.62-15.39-2.32-10.2-8.53-10.2-8.53l1.17-.44c4.31-3.72.48-7.93.48-7.93-5-5.23-11.37-.62-11.37-.62-6.51,5-5,11.64-5,11.64,1.3,7.85,9.14,8.16,9.14,8.16-6.5,4.62-16.17,7.79-16.17,7.79-7,2.31-15.7-.31-15.7-.31C181,32.14,157,12.68,157,12.68c-14-12.5-28.6-12.6-28.6-12.6C99.8-1.31,84.51,17,84.51,17,68.08,35.14,60.86,59.43,60.86,59.43A64.58,64.58,0,0,1,51,75.34c-3.57,4.33-7.12,5.84-9.68,6.3a24.64,24.64,0,0,1-4.79.3,23.7,23.7,0,0,0-9.62.7C7.27,88.19.53,112,.53,112c-1.19,6.52,2.51,6.5,2.51,6.5,4,.49,9.67-10.64,9.67-10.64,9.61-15,22.37-16.63,22.37-16.63,5.91-1.37,8.37,2.45,8.37,2.45,18.64,26.56,38.68,16.5,38.68,16.5a72.07,72.07,0,0,0,29.68-23l1.69,1.16c26.28,18.35,60.88,8.05,60.88,8.05,19.06-2.88,25.68-.91,25.68-.91,24.3,4.39,68.92,20.79,68.92,20.79,6.61,2.22,13.44-.92,13.44-.92,9.82-5.69,5.71-10,5.71-10-4.23-3.83-8.81,1.1-8.81,1.1-3.15,3.53-6.1,2.43-6.1,2.43-11.92-2.43-34.87-17.47-34.87-17.47-3.59-2.71-2.22-5.08-2.22-5.08,2.78-5,11.14-4.3,11.14-4.3,30.83,1.16,41.41-5.55,41.41-5.55C297.8,72,299,64.41,299,64.41,300.46,52,282,39.87,282,39.87Z"/><path id="draw-rabo" class="cls-1" d="M71.68,32.52l8.22-9.67c3.62-11.79-6.72-14.53-6.72-14.53C64.09,6,62.06,18,62.06,18,60.33,28.41,71.68,32.52,71.68,32.52Z"/><path id="draw-boca" class="cls-2" d="M275.24,74.67c-1.09-.92-5-4.85-.09-11.09,0,0-6.86,4.78-2.8,11.61a209.12,209.12,0,0,1-25.54,2.5c-12.4,2.43-10.68,8.65-10.68,8.65,2.78-5,11.14-4.3,11.14-4.3,30.83,1.16,41.41-5.55,41.41-5.55C297.8,72,299,64.41,299,64.41,295.44,69.56,285.5,72.73,275.24,74.67Z"/><path id="draw-olho" class="cls-2" d="M263.32,46.65l.21,0a1.21,1.21,0,0,0,1.19-1l.63-3.62a1.21,1.21,0,1,0-2.39-.41l-.63,3.62A1.21,1.21,0,0,0,263.32,46.65Z"/><path id="draw-perna-dark" class="cls-2" d="M49.31,76.49s-6.95-9.13-25-5.15c0,0-9.09,2.07-18.29,12.65,0,0-3.19,4.49-5.63,2.21,0,0-3.81-6.89,11.51-20.07,0,0,12.45-10.85,26.23-4.95,0,0,15.31,6.15,21.15.54a24.35,24.35,0,0,0,2-3.21s-5,12.25-11.67,18.5Z"/><path id="draw-perna-tras" class="cls-2" d="M46.63,92c-3.41-4.86-12-2.67-12-2.67C17,91.3,8.33,110.88,8.33,110.88c-3,6.45-8,4.39-8,4.39.37,3.26,2.7,3.25,2.7,3.25,4,.49,9.67-10.64,9.67-10.64,9.61-15,22.37-16.63,22.37-16.63,5.91-1.37,8.37,2.45,8.37,2.45,18.64,26.56,38.68,16.5,38.68,16.5a72.5,72.5,0,0,0,24.14-16.53c2.18-2.26-3.71,2.38-3.71,2.38C65.11,120.73,46.63,92,46.63,92Z"/><path id="draw-perna-frente" class="cls-2" d="M220.54,93.86s-21.88-6.65-33.72-7.13c0,0-19.79,0-25.62.16,0,0-23.35.48-41-12.81L111.7,87.29l.61.12c25.33,19.56,62.1,9,62.1,9a125.76,125.76,0,0,1,16.9-1.56c19.72,10.36,39.6,24.54,39.6,24.54,6,3.59,13.32,2,13.32,2,10.81-3.43,7.73-8.52,7.73-8.52-3.31-4.64-8.84-.82-8.84-.82-3.84,2.76-6.49,1.06-6.49,1.06-6.15-2.73-13.07-8.55-18-13.21C242,106.34,269,116.26,269,116.26c6.61,2.22,13.44-.92,13.44-.92l-2.71-.4Z"/><path id="draw-rabo-dark" class="cls-2" d="M72.9,32.85l5-7.58S70.83,27.21,68.52,22c0,0-5.15-.09-4.54-9.22C64,12.76,55.4,27.68,72.9,32.85Z"/></g></g></g></svg>