<svg xmlns="http://www.w3.org/2000/svg" viewBox="0 0 299.38 121.68"><defs><style>.cls-1{fill:#faba51;}.cls-2{fill:#e48b53;}.cls-3{fill:#e3874f;}.cls-4{fill:#d3793f;}</style></defs><title>icon-cc_cutia</title><g id="Layer_2" data-name="Layer 2"><g id="Layer_1-2" data-name="Layer 1"><path id="draw-corpo" class="cls-1" d="M49.74,76.82c.71,0,1.12-.74,1.51-1.24.59-.74,1.2-1.45,1.78-2.19a48,48,0,0,0,3.52-5.09c1-1.59,1.78-3.25,2.72-4.85a16.7,16.7,0,0,0,1.1-2.08c.21-.51.32-1.34.52-1.67.74-1.08,1-2.75,1.4-4,.57-1.6,1.19-3.18,1.83-4.74q1.86-4.56,4-9c1.39-2.81,2.76-5.65,4.42-8.32,1.75-2.82,3.84-5.43,5.43-8.35a14.8,14.8,0,0,1-5.57-.15,5.57,5.57,0,0,1-2.08-1.1c-.63-.56-.94-1.39-1.58-1.93a15,15,0,0,0-1.9-1,5.2,5.2,0,0,1-1.79-2.07,10.73,10.73,0,0,1-1-4.78c0-2.94,2.21-5.09,4.89-6,3.14-1,6.49.28,8.81,2.47A9.57,9.57,0,0,1,80.7,16,12,12,0,0,1,80.85,19c-.05.77-.62,2.16-.32,2.89,1.86-2.08,3.54-4.31,5.49-6.31a45.64,45.64,0,0,1,6.26-5.22A55.87,55.87,0,0,1,122.82.09a52.94,52.94,0,0,1,8.74.17,40.94,40.94,0,0,1,8,2,52,52,0,0,1,14.12,7.49c2.21,1.65,4.29,3.47,6.48,5.14,2.36,1.81,4.77,3.55,7.2,5.26,8.86,6.24,18.21,12.07,28.48,15.68,5.86,2.06,12.29,3.23,18.43,1.71s11.86-4.69,17.11-8A11.31,11.31,0,0,1,224.24,26a10.3,10.3,0,0,1-2.09-7.41c.42-4.89,4-9.58,8.9-10.58a7.92,7.92,0,0,1,7.45,2.21,5.36,5.36,0,0,1,.62,7c-.67.89-1.87,1.13-2.48,2a3.23,3.23,0,0,0-.08,3.24c1.16,2.18,4,3.15,6.19,3.76,3.07.84,6.26,1.15,9.38,1.77s6.29,1.4,9.38,2.3a75.57,75.57,0,0,1,17.41,7.32,59.51,59.51,0,0,1,13.52,11c3.75,4.1,6.75,8.85,6.94,14.54.08,2.5-3.12,4.24-5,5.34a41,41,0,0,1-8.71,3.63,57.54,57.54,0,0,1-9.46,2.33c-1.24.16-2-1.12-2.48-2.1a6.66,6.66,0,0,1-.58-4.21,13.33,13.33,0,0,1,1.64-3.9,7,7,0,0,0-3.15,4.31c-.69,2.27,0,4.39.74,6.55-4.59.78-9.25,1.32-13.89,1.74-2.24.2-4.5.4-6.75.47a31.2,31.2,0,0,0-6.25.59c-3.07.73-6.57,2-8.34,4.77a5,5,0,0,0-.92,2.48c0,.32.21.62.2.93s-.28.81-.3,1.24c-.09,1.79,1.32,3.14,2.66,4.09,3.64,2.58,7.61,4.82,11.48,7s8.07,4.42,12.23,6.37q3.09,1.44,6.29,2.62c1.88.69,4,1.59,6.05,1.52,3-.1,4.75-3,7.14-4.36,3-1.68,7.89-.27,7.17,3.84-.34,1.91-1.78,3.42-3.19,4.64-1.14,1-2.68,2.52-4.3,2.13A122.3,122.3,0,0,1,269.13,111c-4.5-1.61-9-3.2-13.52-4.8Q242,101.39,228.49,96.5a214.7,214.7,0,0,0-27-7.69,105.07,105.07,0,0,0-13.92-2.07,70.14,70.14,0,0,0-7.09,0c-2.36,0-4.71,0-7.07,0-9.29,0-18.57.19-27.71-1.74A71.72,71.72,0,0,1,133,81.13a59.71,59.71,0,0,1-6-2.85c-1.92-1.06-3.64-2.34-5.46-3.53-.62-.4-1.07-.83-1.57-.19-.65.82-1.16,1.8-1.72,2.68-1.24,1.94-2.47,3.88-3.71,5.81-.62,1-1.29,1.9-1.85,2.89-.2.36-.32.75-.51,1.12a6.35,6.35,0,0,1-1.08,1.23c-1.39,1.51-2.54,3.49-4.21,4.7-7,5.06-14.43,9.53-22.88,11.68a35.74,35.74,0,0,1-24.48-2,33.86,33.86,0,0,1-9.23-6.57c-2.53-2.54-4.14-5.86-7.82-6.87s-7.59-.2-11.08.71a29.54,29.54,0,0,0-10.86,5.49,40.92,40.92,0,0,0-8,8.55,47.91,47.91,0,0,0-3,4.92,20.71,20.71,0,0,1-2.84,4.69,5.9,5.9,0,0,1-5.2,1.9c-.92-.13-1-.57-.95-1.47a11.62,11.62,0,0,1,.59-3.21A51.3,51.3,0,0,1,6.57,99.29c4.19-6.72,10.06-12.68,17.5-15.68A24.29,24.29,0,0,1,30.15,82a55.37,55.37,0,0,1,7.1-.06A16.14,16.14,0,0,0,48.6,78a15.46,15.46,0,0,1,1.22-1.08c0,.19-.24.42-.35.55s-1,1.2-1.15,1.11a13.09,13.09,0,0,1,1.42-1.72C50.46,76.78,46.21,80.72,49.74,76.82Zm214-30.24c1.51,0,1.38-2.12,1.59-3.15s.52-3.45-1.31-2.86c-1.11.36-1.08,2.18-1.23,3.1s-.69,2.91,1,2.91Z"/><path id="draw-pernas-frente" class="cls-2" d="M238,121.62a22.26,22.26,0,0,1-6.91-2.35c-2.3-1.36-4.41-3-6.62-4.51q-6.75-4.57-13.68-8.87t-14-8.23c-2-1.14-4.25-2.94-6.68-2.89-2.59.05-5.22.36-7.8.61a80,80,0,0,0-8.12,1.12c-2.65.54-5.26,1.17-7.93,1.59a92.73,92.73,0,0,1-16.44,1.12c-10.26-.22-20.62-2.22-29.78-7-2.31-1.21-4.41-2.69-6.61-4.07-.7-.44-1.59-.55-1.21-1.53a19.76,19.76,0,0,1,1.92-2.94l4.37-6.84c.47-.74.89-1.52,1.38-2.25s.86-.37,1.49.1c7.64,5.62,17,9.1,26.26,10.78a84.2,84.2,0,0,0,15.84,1.29c5.65,0,11.31.06,17,0a84,84,0,0,1,16.1,1.08c5.43,1,10.75,2.38,16.08,3.78,10.39,2.73,20.39,6.56,30.5,10.17q15.94,5.69,31.87,11.38a54.81,54.81,0,0,0,7.45,2.22,19.18,19.18,0,0,1-11.71,1.27,50.63,50.63,0,0,1-6.25-2c-2.17-.77-4.35-1.51-6.53-2.26-8.67-3-17.33-6-26.1-8.69q-3.62-1.11-7.26-2.16l-3.43-1a8.71,8.71,0,0,1-2.12-.52,39.06,39.06,0,0,0,4.47,4.05c1.62,1.37,3.28,2.7,5,4s3.42,2.38,5.22,3.44c1.61.95,3.35,2.07,5.29,2.08s3.31-1.06,4.87-1.9a7.24,7.24,0,0,1,5.56-.89,4.19,4.19,0,0,1,3.11,3.65c.05,1.8-1.22,3.29-2.57,4.33a14.93,14.93,0,0,1-5.72,2.61,16.48,16.48,0,0,1-3.39.34c-.6,0-1.21,0-1.81,0-.29,0-1,.14-1.22,0,.08.06.65-.13.73,0l-.6,0C235.64,121.12,239.67,121.62,238,121.62Z"/><path id="draw-perna-tras" class="cls-3" d="M.59,115.23A5.79,5.79,0,0,0,6.17,114a15.14,15.14,0,0,0,3.11-4.72,45.65,45.65,0,0,1,7.17-10.05c5.85-6.19,13.38-10.11,22-10.47a11.42,11.42,0,0,1,6.08,1.14,14.2,14.2,0,0,1,3.68,3.76,33.17,33.17,0,0,0,9.22,7.8A34.65,34.65,0,0,0,81,105.38a54.5,54.5,0,0,0,13.85-4.81A55.46,55.46,0,0,0,101.2,97c1.88-1.26,3.58-2.85,5.65-3.81-2.72,3.49-6.33,6.2-9.89,8.78a72.24,72.24,0,0,1-12,7.08,28.52,28.52,0,0,1-12.71,3,28.83,28.83,0,0,1-13-3.64A40.56,40.56,0,0,1,49,100.27a68.18,68.18,0,0,1-4.38-5.34c-1.18-1.57-2.41-3-4.34-3.67-3.93-1.28-8.46.59-12,2.33a37.19,37.19,0,0,0-10.5,7.93,39.46,39.46,0,0,0-4.56,5.87c-1.37,2.17-2.54,4.44-4,6.53-1.2,1.67-2.82,3.81-4.88,4.46S.67,117.13.59,115.23c1.68.54,0,1.12,0,0C2.47,115.83.64,116.47.59,115.23Z"/><path id="draw-perna-dark" class="cls-2" d="M49.74,76.82A11.47,11.47,0,0,0,45.13,73a22.19,22.19,0,0,0-6.55-2.25,32.47,32.47,0,0,0-14.29.64,33,33,0,0,0-11.61,6.36,37.4,37.4,0,0,0-5,4.68c-1.21,1.4-2.43,3.22-4.19,4C2.12,87,.54,86.7.13,85.11c-.48-1.86.49-4.31,1.19-6,1.7-4,4.8-7.48,7.93-10.49,5.94-5.71,14-9.92,22.44-9.19a29.77,29.77,0,0,1,7.45,2,47.79,47.79,0,0,0,7.55,2.08,23,23,0,0,0,8.07.34,10,10,0,0,0,3.66-1.29A9.65,9.65,0,0,0,60.72,60c-.34,1.95-1.63,3.74-2.55,5.45a56.23,56.23,0,0,1-3.45,5.7c-1.2,1.7-2.51,3.35-3.85,4.94-.2.23-.53.66-.87.69s-.47-.38-.4-.39c.24,0,.56.41.14.44C48.72,75.12,50.45,76.78,49.74,76.82Z"/><path id="draw-rabo-dark" class="cls-3" d="M64.23,12.73a13.21,13.21,0,0,0,.57,5.7,5.58,5.58,0,0,0,1.37,2.18,11.36,11.36,0,0,0,2.16,1.24c.72.43,1,1.14,1.52,1.76a5.17,5.17,0,0,0,2,1.37c2,.79,4.07.52,6.13.35-.83,1.52-1.83,2.94-2.79,4.38-.43.66-.88,1.31-1.28,2-.26.44-.5,1-1,1.07a3.4,3.4,0,0,1-1.66-.53c-.63-.28-1.28-.55-1.9-.86a15.36,15.36,0,0,1-4-2.71c-4-4-4.46-11.37-1.14-15.93q.06.17-.06.22a.34.34,0,0,1,.06-.22C64.05,14.67,64.12,12.88,64.23,12.73Z"/><path id="draw-boca" class="cls-4" d="M236.43,86.12c-.6-1.14.15-2.6.8-3.54a9.36,9.36,0,0,1,3.4-2.85c3.18-1.7,6.5-2.1,10-2.28a187.1,187.1,0,0,0,21.71-2.31c-.7-2.16-1.43-4.28-.74-6.55a7,7,0,0,1,3.15-4.31c-1.45,2.75-2.54,5.56-.84,8.5a4.19,4.19,0,0,0,1.25,1.59c.68.39,1.55,0,2.25-.15,1.65-.37,3.31-.73,5-1.16a56,56,0,0,0,9.35-3.19,27.57,27.57,0,0,0,4.11-2.3,15.1,15.1,0,0,0,1.84-1.41,14.5,14.5,0,0,1,1.49-1.51c-.87,4.3-4.07,7.88-7.63,10.26-4,2.7-8.75,4.1-13.44,5.1-10,2.12-20.14,2.12-30.3,2-4.14,0-8.86.32-11.38,4.09-.37-.71.84-1.26,0,0C235.76,84.85,237.36,84.73,236.43,86.12Z"/><path id="draw-olho" class="cls-4" d="M263.78,46.58c-1.64,0-1.12-1.88-1-2.91s.13-2.83,1.31-3.12c1.79-.44,1.42,1.94,1.23,2.88s-.08,3.15-1.59,3.15Z"/></g></g></svg>