<svg xmlns="http://www.w3.org/2000/svg" viewBox="0 0 463.15 107.66"><defs><style>.cls-1{fill:#a45f9c;}.cls-2{fill:#762283;}</style></defs><title>logo-cc_tipo</title><g id="Layer_2" data-name="Layer 2"><g id="Layer_1-2" data-name="Layer 1"><g id="logotipo-cc"><g id="encontros"><path class="cls-1" d="M42.58,99.43a2.26,2.26,0,0,0-1.37,0,2,2,0,0,0-1.1.74l-.41.6a9.71,9.71,0,0,1-1.29,1.45,10.49,10.49,0,0,1-1.51,1.33,6.93,6.93,0,0,1-1.56.55,5.43,5.43,0,0,1-1.19.2H34a2.15,2.15,0,0,1-.73-.19,5.28,5.28,0,0,1-1.33-.81,3.87,3.87,0,0,1-1-1.08,6.69,6.69,0,0,1-.67-1.73,11.42,11.42,0,0,1-.3-1.14,9.58,9.58,0,0,0,2.09.09,11.37,11.37,0,0,0,3.22-.79A10.29,10.29,0,0,0,38.2,97a6,6,0,0,0,1.62-2.14,8.43,8.43,0,0,0,.54-1.76,3.87,3.87,0,0,0,0-1.78,4.37,4.37,0,0,0-.9-2A5.52,5.52,0,0,0,38.24,88a6.19,6.19,0,0,0-1.83-.89,7.76,7.76,0,0,0-1.9-.41,8.43,8.43,0,0,0-1.18,0,7.12,7.12,0,0,0-1.44.29,10.93,10.93,0,0,0-1.51.52,12,12,0,0,0-1.35.68,5.72,5.72,0,0,0-1.1.81,4.21,4.21,0,0,0-1.12,1.62,8.21,8.21,0,0,0-.75,2.05c-.11.48-.17.81-.21,1.05a2.12,2.12,0,0,0-.77.23,1.67,1.67,0,0,0-1,1.06,1.5,1.5,0,0,0,.4,1.51l.21.2a4.2,4.2,0,0,0,1,.84c0,.41.08.83.14,1.24a12,12,0,0,0,.49,2.47,16.27,16.27,0,0,0,1,2.45,8,8,0,0,0,1.82,1.95,9.33,9.33,0,0,0,2.33,1.39,6.24,6.24,0,0,0,2.31.53h.22a10.42,10.42,0,0,0,2.36-.33,10.13,10.13,0,0,0,2.68-1,11,11,0,0,0,2.36-1.94,15.71,15.71,0,0,0,1.71-2l.37-.54a1.44,1.44,0,0,0,.1-1.54A1.85,1.85,0,0,0,42.58,99.43ZM29.74,95.49a7.25,7.25,0,0,1,0-1,1.36,1.36,0,0,0,0-.16A5.36,5.36,0,0,1,30,93.4,9.45,9.45,0,0,1,30.46,92a4.12,4.12,0,0,1,.34-.62q.26-.21.59-.41a5.65,5.65,0,0,1,.79-.42,6.18,6.18,0,0,1,1-.32l.62-.13a2.35,2.35,0,0,1,.39,0,6.64,6.64,0,0,1,.81.21,4.4,4.4,0,0,1,.63.22,4.36,4.36,0,0,1,.55.66,1.23,1.23,0,0,1,.3.63,2.93,2.93,0,0,1,.06.71,5,5,0,0,1-.43,1.15,2.65,2.65,0,0,1-.72,1,6.1,6.1,0,0,1-1.75.92,5.83,5.83,0,0,1-1.81.5,4.22,4.22,0,0,1-1.19,0,5.78,5.78,0,0,1-.85-.3Z"/><path class="cls-1" d="M67.43,89.7a7.11,7.11,0,0,0-.88-1.88,3.62,3.62,0,0,0-1.27-1,4.43,4.43,0,0,0-1.77-.44,7.25,7.25,0,0,0-1.93.09,16.79,16.79,0,0,0-1.89.47l-1.2.48c-.29.12-.7.31-1.27.59a19.29,19.29,0,0,0-2.45,1.72,17.85,17.85,0,0,0-1.95,1.73c0-.57,0-1.09.05-1.58v-.37a1.49,1.49,0,0,0,.32-1.19,1,1,0,0,0,0-.16l-.1-.29a1.61,1.61,0,0,0-1.2-1.5,2.08,2.08,0,0,0-1.51-.18,2.73,2.73,0,0,0-.73.34A1.46,1.46,0,0,0,49,87.55a4.2,4.2,0,0,0,0,.46v.08q-.06.66-.09,1.68t0,2.24q0,1.22-.05,3.47t-.06,3.87c0,1,0,1.89-.06,2.64q0,.59,0,1.14a3.6,3.6,0,0,0,.06,1.67,1,1,0,0,0,0,.26,1.46,1.46,0,0,0,1,1,2.6,2.6,0,0,0,1.58,0,2.94,2.94,0,0,0,.71-.29,1.54,1.54,0,0,0,.64-.66,2.22,2.22,0,0,0,.15-.43,1.5,1.5,0,0,0,0-.7,3,3,0,0,0-.09-.3l0-.13a1.81,1.81,0,0,1,0-.23c.11-.71.25-1.46.43-2.29.07-.44.16-.93.27-1.46s.24-1.11.38-1.75a7.67,7.67,0,0,1,.89-2.46,8.9,8.9,0,0,1,1-1.46,13.33,13.33,0,0,1,1.86-1.67,18.53,18.53,0,0,1,1.85-1.33c.41-.21.72-.36.95-.46s.54-.21,1-.35a8.39,8.39,0,0,1,1.06-.29,7.42,7.42,0,0,1,.81-.07h.08l0,0c.05.11.16.37.36.92A8.54,8.54,0,0,1,64,92.48c0,.81.07,1.58.11,2.26s0,1.47,0,2.24,0,1.64-.08,2.59-.06,1.62-.06,1.95,0,.8-.05,1.53v1.45l0,.43a1,1,0,0,0,0,.11,1.61,1.61,0,0,0,.67,1.31,2.09,2.09,0,0,0,1.29.41,2.3,2.3,0,0,0,1.24-.34,1.51,1.51,0,0,0,.77-1.23l.05-.45a1,1,0,0,0,0-.11v-1.53c0-.73.06-1.25.06-1.56s0-.91.05-1.85.06-1.84.08-2.64,0-1.58,0-2.39S68,93.15,68,92.23A16,16,0,0,0,67.43,89.7Z"/><path class="cls-1" d="M88.24,99a2.36,2.36,0,0,0-1.28,0,1.81,1.81,0,0,0-1.13.76l-.58.84a3.65,3.65,0,0,1-.73.89l-.07.07a5.54,5.54,0,0,1-.84.7,9.65,9.65,0,0,1-1.5.78,5.84,5.84,0,0,1-1.45.49,3.09,3.09,0,0,1-.46.05,4.6,4.6,0,0,1-.72-.3,3.71,3.71,0,0,1-.75-.55,5.28,5.28,0,0,1-1-1.6,7.31,7.31,0,0,1-.73-2c-.07-.53-.12-1.1-.16-1.76a9.66,9.66,0,0,1,0-1.71c0-.79.08-1.07.1-1.15a6.7,6.7,0,0,1,.26-.88,7.69,7.69,0,0,1,.37-1.1,6.06,6.06,0,0,1,.55-.91,3.71,3.71,0,0,1,.6-.62,4.83,4.83,0,0,1,2.38-.69,5.94,5.94,0,0,1,1.48.1,5,5,0,0,1,1.05.33,3.39,3.39,0,0,1,.77.42l.42.32a2.11,2.11,0,0,0,1.28.47h.12a2.17,2.17,0,0,0,1.17-.33,1.63,1.63,0,0,0,.79-1.22,1.61,1.61,0,0,0-.68-1.43l-.36-.24a6.78,6.78,0,0,0-1.64-1,10.47,10.47,0,0,0-2-.65,10.71,10.71,0,0,0-2.11-.18h-.51a9.85,9.85,0,0,0-2.82.51,7.59,7.59,0,0,0-1.93,1,6.1,6.1,0,0,0-1.38,1.31,8.13,8.13,0,0,0-1,1.59c-.19.48-.37,1-.54,1.55L73,93.93a9.25,9.25,0,0,0-.16,1.55,12.72,12.72,0,0,0,.05,2.11,14.49,14.49,0,0,0,.23,1.91,9.8,9.8,0,0,0,1,2.83,8.44,8.44,0,0,0,1.68,2.61,6.48,6.48,0,0,0,1.63,1.14,8.91,8.91,0,0,0,1.46.6,4.87,4.87,0,0,0,1.3.16,8.18,8.18,0,0,0,1.19-.09,9,9,0,0,0,2.7-.83,11.34,11.34,0,0,0,2.08-1.14,10.39,10.39,0,0,0,1.3-1.05,7.71,7.71,0,0,0,1.32-1.54l.58-.83a1.47,1.47,0,0,0,0-1.59A1.92,1.92,0,0,0,88.24,99Z"/><path class="cls-1" d="M111.2,91.4c-.19-.92-.34-1.56-.44-1.86a2.7,2.7,0,0,0-2.39-2.06l-.89-.16a2.58,2.58,0,0,0-.62,0q-.3-.19-.59-.33a11.24,11.24,0,0,0-1.45-.56,12.14,12.14,0,0,0-1.57-.4,6.71,6.71,0,0,0-1.55,0,8.13,8.13,0,0,0-1.6.39,9.22,9.22,0,0,0-1.42.66,8.23,8.23,0,0,0-1.38,1.05q-.71.65-1,1l-.1.13a12.82,12.82,0,0,0-.87,1.82,18.7,18.7,0,0,0-.76,2.71,11.92,11.92,0,0,0-.23,2.89c.07.79.17,1.55.29,2.31a16.11,16.11,0,0,0,.89,2.68,14.84,14.84,0,0,0,1.25,2.4A7.68,7.68,0,0,0,98.9,106a8.87,8.87,0,0,0,2.63,1.26,5.45,5.45,0,0,0,1.56.23,5.76,5.76,0,0,0,1.59-.23,7.76,7.76,0,0,0,2.21-1,11.68,11.68,0,0,0,1.87-1.71,14.76,14.76,0,0,0,1.71-2.21,11.94,11.94,0,0,0,1.16-2.6,13.22,13.22,0,0,0,.47-2.94,10.11,10.11,0,0,0-.3-2.91C111.61,93.08,111.41,92.25,111.2,91.4Zm-6.87,12.25a3.53,3.53,0,0,1-.89.42,1,1,0,0,1-.6,0,5.44,5.44,0,0,1-1.47-.74,5.32,5.32,0,0,1-1.2-1,11.1,11.1,0,0,1-.92-1.84,11.76,11.76,0,0,1-.94-4.06,9.43,9.43,0,0,1,.14-2.08,14.82,14.82,0,0,1,.66-2.25c.29-.71.42-1,.47-1.07l.64-.61a4.44,4.44,0,0,1,.73-.58,4.26,4.26,0,0,1,.78-.34,3.69,3.69,0,0,1,.49-.16l.42,0a3.72,3.72,0,0,1,.75.18,5.3,5.3,0,0,1,.78.31,5.56,5.56,0,0,1,.72.48l.58.44a2.28,2.28,0,0,0,1.21.38h.12l.3,0c.06.27.14.57.23.91.22.85.42,1.67.6,2.47a7.7,7.7,0,0,1,.19,2.1,9.47,9.47,0,0,1-.41,2.28,6.07,6.07,0,0,1-.76,1.8,11.43,11.43,0,0,1-1.34,1.68A12.26,12.26,0,0,1,104.32,103.65Z"/><path class="cls-1" d="M135.73,89.7a7.12,7.12,0,0,0-.88-1.88,3.62,3.62,0,0,0-1.27-1,4.43,4.43,0,0,0-1.77-.44,7.25,7.25,0,0,0-1.93.09,16.79,16.79,0,0,0-1.89.47l-1.2.48c-.29.12-.7.31-1.27.59a19.29,19.29,0,0,0-2.45,1.72,17.87,17.87,0,0,0-1.95,1.73c0-.57,0-1.09.05-1.58v-.37a1.5,1.5,0,0,0,.32-1.19,1,1,0,0,0,0-.16l-.1-.29a1.61,1.61,0,0,0-1.2-1.5,2.08,2.08,0,0,0-1.51-.18,2.73,2.73,0,0,0-.73.34,1.46,1.46,0,0,0-.62,1.07,4.2,4.2,0,0,0,0,.46v.08q-.06.66-.09,1.68t0,2.24q0,1.22-.05,3.47T117,99.34c0,1,0,1.89-.06,2.64q0,.59,0,1.14a3.6,3.6,0,0,0,.06,1.67,1,1,0,0,0,0,.26,1.46,1.46,0,0,0,1,1,2.6,2.6,0,0,0,1.58,0,2.94,2.94,0,0,0,.71-.29,1.54,1.54,0,0,0,.64-.66,2.23,2.23,0,0,0,.15-.43,1.5,1.5,0,0,0,0-.7,3,3,0,0,0-.09-.3l0-.13a1.82,1.82,0,0,1,0-.23c.11-.71.25-1.46.43-2.29.07-.44.16-.93.27-1.46s.24-1.11.38-1.75a7.67,7.67,0,0,1,.89-2.46,8.9,8.9,0,0,1,1-1.46,13.34,13.34,0,0,1,1.86-1.67,18.54,18.54,0,0,1,1.85-1.33c.41-.21.72-.36.95-.46s.54-.21,1-.35a8.39,8.39,0,0,1,1.06-.29,7.42,7.42,0,0,1,.81-.07h.08l0,0c.05.11.16.37.36.92a8.54,8.54,0,0,1,.39,1.84c0,.81.07,1.58.11,2.26s0,1.47,0,2.24,0,1.64-.08,2.59-.06,1.62-.06,1.95,0,.8-.05,1.53v1.45l0,.43a1,1,0,0,0,0,.11,1.61,1.61,0,0,0,.67,1.31,2.09,2.09,0,0,0,1.29.41,2.3,2.3,0,0,0,1.24-.34,1.51,1.51,0,0,0,.77-1.23l.05-.45a1,1,0,0,0,0-.11v-1.53c0-.73.06-1.25.06-1.56s0-.91.05-1.85.06-1.84.08-2.64,0-1.58,0-2.39-.07-1.5-.12-2.42A16,16,0,0,0,135.73,89.7Z"/><path class="cls-1" d="M157.22,87.51l-.44,0a10,10,0,0,0-1.62,0l-2.91,0c0-1.14,0-2.23,0-3.27,0-1.53.08-2,.1-2.18,0-.32.07-.63.11-.94l.05-.49a1,1,0,0,0,0-.11,1.58,1.58,0,0,0-.67-1.27,2.19,2.19,0,0,0-1.24-.43h-.12a2.16,2.16,0,0,0-1.17.32,1.51,1.51,0,0,0-.77,1.22l0,.41c0,.31-.07.63-.11,1s-.08,1.17-.12,2.42c0,1.09,0,2.24,0,3.42l-1.72,0-2.71,0h-.62a2,2,0,0,0-1.35.34,1.57,1.57,0,0,0-.74,1.31,1.54,1.54,0,0,0,.7,1.29,2.52,2.52,0,0,0,1.28.4h.66l2.8,0h1.8l.06,1.35q.16,2.06.22,3t.19,2.9q.13,1.93.14,3.48t.11,2.44c0,.55.05.92.05,1.11a1,1,0,0,0,0,.16c0,.24.08.46.12.69l.05.26a1.61,1.61,0,0,0,.91,1.12,2.24,2.24,0,0,0,1,.25h.23a2.07,2.07,0,0,0,1.21-.52,1.51,1.51,0,0,0,.5-1.43l0-.17a3.56,3.56,0,0,0-.07-.6,8,8,0,0,1-.07-1l-.08-2.34c0-1.06,0-2.29-.14-3.65s-.16-2.29-.19-2.9-.11-1.61-.22-3l-.06-1.22,3,0c.4,0,.79,0,.9,0l.55.08a2.15,2.15,0,0,0,1.31-.28,1.67,1.67,0,0,0,.87-1.12,1.51,1.51,0,0,0-.5-1.43A2.1,2.1,0,0,0,157.22,87.51Z"/><path class="cls-1" d="M178.55,87.79a2.24,2.24,0,0,0-1.35-.15l-.16,0c-.33-.14-.7-.28-1.11-.4a8.08,8.08,0,0,0-2.45-.34h-.14a9.74,9.74,0,0,0-2.79.4,8.28,8.28,0,0,0-1.78.68,4.82,4.82,0,0,0-1,.71,3.86,3.86,0,0,1,0-.76l.06-.7a1.58,1.58,0,0,0-.67-1.27,2.21,2.21,0,0,0-1.24-.43l-.41,0a1,1,0,0,0-.58.15l-.3.19a1.5,1.5,0,0,0-.77,1.24l-.06.58a6.87,6.87,0,0,0,0,1.27c0,.38,0,1.44.06,3.15q0,1.41,0,2.68c0,.85,0,1.66.08,2.38v.42c-.07,1.11-.11,1.92-.11,2.41s0,1.09-.05,1.88-.06,1.54-.06,2.16a3.81,3.81,0,0,0,.46,2c.46.85,1.59.85,2,.85a2,2,0,0,0,1.57-.56,1.35,1.35,0,0,0,.36-1c0-.26,0-.7-.06-1.31s-.07-1.44-.11-2.65,0-2.34-.05-3.66v0a12.13,12.13,0,0,1,.5-2.86,10.69,10.69,0,0,1,.9-2.14,5.82,5.82,0,0,1,1-1.34,4.78,4.78,0,0,1,.54-.54h0a8.15,8.15,0,0,1,.89-.3,6.38,6.38,0,0,1,1.59-.2,5.56,5.56,0,0,1,1,.06c.33.11.59.21.75.29a3.75,3.75,0,0,0,2.31.36l.53-.08a2,2,0,0,0,1.16-.63,1.46,1.46,0,0,0,.29-1.56A1.8,1.8,0,0,0,178.55,87.79Z"/><path class="cls-1" d="M201.25,91.4c-.19-.92-.34-1.56-.44-1.86a2.7,2.7,0,0,0-2.39-2.06l-.89-.16a2.58,2.58,0,0,0-.62,0q-.3-.19-.59-.33a11.24,11.24,0,0,0-1.45-.56,12.14,12.14,0,0,0-1.57-.4,6.72,6.72,0,0,0-1.55,0,8.13,8.13,0,0,0-1.6.39,9.22,9.22,0,0,0-1.42.66,8.23,8.23,0,0,0-1.38,1.05q-.71.65-1,1l-.1.13a12.82,12.82,0,0,0-.87,1.82,18.72,18.72,0,0,0-.76,2.71,11.92,11.92,0,0,0-.23,2.89c.07.79.17,1.55.29,2.31a16.1,16.1,0,0,0,.89,2.68,14.84,14.84,0,0,0,1.25,2.4A7.68,7.68,0,0,0,189,106a8.87,8.87,0,0,0,2.63,1.26,5.45,5.45,0,0,0,1.56.23,5.76,5.76,0,0,0,1.59-.23,7.77,7.77,0,0,0,2.21-1,11.69,11.69,0,0,0,1.87-1.71,14.76,14.76,0,0,0,1.71-2.21,11.94,11.94,0,0,0,1.16-2.6,13.22,13.22,0,0,0,.47-2.94,10.11,10.11,0,0,0-.3-2.91C201.67,93.08,201.47,92.25,201.25,91.4Zm-6.87,12.25a3.53,3.53,0,0,1-.89.42,1,1,0,0,1-.6,0,5.44,5.44,0,0,1-1.47-.74,5.32,5.32,0,0,1-1.2-1,11.11,11.11,0,0,1-.92-1.84,11.76,11.76,0,0,1-.94-4.06,9.43,9.43,0,0,1,.14-2.08,14.79,14.79,0,0,1,.66-2.25c.29-.71.42-1,.47-1.07l.64-.61a4.45,4.45,0,0,1,.73-.58,4.27,4.27,0,0,1,.78-.34,3.68,3.68,0,0,1,.49-.16l.42,0a3.72,3.72,0,0,1,.75.18,5.3,5.3,0,0,1,.78.31,5.56,5.56,0,0,1,.72.48l.58.44a2.27,2.27,0,0,0,1.21.38h.12l.3,0c.06.27.14.57.23.91.22.85.42,1.67.6,2.47a7.7,7.7,0,0,1,.19,2.1,9.47,9.47,0,0,1-.41,2.28,6.07,6.07,0,0,1-.76,1.8,11.43,11.43,0,0,1-1.34,1.68A12.26,12.26,0,0,1,194.38,103.65Z"/><path class="cls-1" d="M223.48,89.27,223,89a12.14,12.14,0,0,0-1.46-1A13.63,13.63,0,0,0,219,86.77a15.07,15.07,0,0,0-2.52-.69,7.5,7.5,0,0,0-2.86.23,7,7,0,0,0-2.65,1.2,3.87,3.87,0,0,0-1.26,1.64,4.07,4.07,0,0,0-.37,1.7,4.21,4.21,0,0,0,.56,2,7.32,7.32,0,0,0,2,2.14q1.17.92,1.95,1.49l1.66,1.25A8.72,8.72,0,0,1,216.75,99a8.18,8.18,0,0,1,.83,1.25,1.23,1.23,0,0,1,.11.77,1,1,0,0,1-.24.58,5.27,5.27,0,0,1-1.22.76,6.73,6.73,0,0,1-1.72.58,1,1,0,0,1-.62,0,4.48,4.48,0,0,1-1.38-1.08,5.12,5.12,0,0,1-1.24-1.75l-.42-1.29a1.8,1.8,0,0,0-1-.95,2.36,2.36,0,0,0-1.27-.16,2,2,0,0,0-1.21.63,1.56,1.56,0,0,0-.4,1.38,1,1,0,0,0,0,.13l.43,1.18a7.71,7.71,0,0,0,2.07,3,9.26,9.26,0,0,0,2.69,1.95,5.15,5.15,0,0,0,1.89.34,7.07,7.07,0,0,0,1.37-.14,12.13,12.13,0,0,0,2.75-.94,8.1,8.1,0,0,0,2.18-1.42,4.33,4.33,0,0,0,1.23-2.39,4.21,4.21,0,0,0-.47-2.71c-.34-.54-.7-1.08-1.11-1.64a11.44,11.44,0,0,0-1.8-1.78c-.65-.52-1.26-1-1.82-1.37s-1.09-.79-1.83-1.41a4.12,4.12,0,0,1-1.11-1.07,1.24,1.24,0,0,1-.2-.58,1.32,1.32,0,0,1,.08-.5,1.27,1.27,0,0,1,.39-.4,2.36,2.36,0,0,1,1-.39,4.05,4.05,0,0,1,.92-.14h.16a7.63,7.63,0,0,1,1.59.44,10.66,10.66,0,0,1,1.78.81l1.19.78.48.37a2.28,2.28,0,0,0,1.21.38h.12a2.17,2.17,0,0,0,1.17-.33,1.63,1.63,0,0,0,.79-1.22A1.49,1.49,0,0,0,223.48,89.27Z"/><path class="cls-1" d="M265.6,99a2.35,2.35,0,0,0-1.28,0,1.81,1.81,0,0,0-1.13.76l-.58.84a3.68,3.68,0,0,1-.72.89l-.08.07a5.61,5.61,0,0,1-.84.7,9.75,9.75,0,0,1-1.5.78,5.88,5.88,0,0,1-1.46.49,3.07,3.07,0,0,1-.46.05,4.48,4.48,0,0,1-.73-.3,3.67,3.67,0,0,1-.75-.55,5.26,5.26,0,0,1-1-1.6,7.36,7.36,0,0,1-.73-2c-.07-.53-.12-1.1-.16-1.77a9.81,9.81,0,0,1,0-1.71c0-.77.08-1.05.1-1.16a6.51,6.51,0,0,1,.26-.88,7.82,7.82,0,0,1,.37-1.1,6.25,6.25,0,0,1,.55-.92,3.73,3.73,0,0,1,.6-.62,4.28,4.28,0,0,1,1-.46,4.22,4.22,0,0,1,1.37-.23,5.88,5.88,0,0,1,1.49.1,5.09,5.09,0,0,1,1.05.33,3.5,3.5,0,0,1,.77.42l.42.32a2.11,2.11,0,0,0,1.28.47h.12a2.17,2.17,0,0,0,1.17-.32,1.56,1.56,0,0,0,.12-2.65l-.36-.24a6.8,6.8,0,0,0-1.64-1,10.42,10.42,0,0,0-2-.65,10.7,10.7,0,0,0-2.11-.18h-.51a9.84,9.84,0,0,0-2.82.51,7.49,7.49,0,0,0-1.93,1,6.13,6.13,0,0,0-1.38,1.31,8.14,8.14,0,0,0-1,1.59c-.19.48-.37,1-.54,1.55l-.25,1.08a9.3,9.3,0,0,0-.16,1.54,12.54,12.54,0,0,0,.05,2.11,14.57,14.57,0,0,0,.22,1.91,9.84,9.84,0,0,0,1,2.83,8.48,8.48,0,0,0,1.68,2.61,6.53,6.53,0,0,0,1.63,1.14,8.9,8.9,0,0,0,1.46.6,4.88,4.88,0,0,0,1.3.16,8.2,8.2,0,0,0,1.19-.09,9,9,0,0,0,2.7-.83,11.38,11.38,0,0,0,2.08-1.15,10.4,10.4,0,0,0,1.3-1.05,7.74,7.74,0,0,0,1.32-1.54l.57-.83a1.46,1.46,0,0,0,0-1.59A1.91,1.91,0,0,0,265.6,99Z"/><path class="cls-1" d="M286.46,87.79a2.24,2.24,0,0,0-1.35-.15l-.16,0c-.33-.14-.7-.28-1.11-.4a8.09,8.09,0,0,0-2.45-.34h-.14a9.73,9.73,0,0,0-2.79.4,8.32,8.32,0,0,0-1.79.68,4.82,4.82,0,0,0-1,.71,3.82,3.82,0,0,1,0-.76l.06-.69A1.59,1.59,0,0,0,275.1,86a2.21,2.21,0,0,0-1.24-.42l-.41,0a1,1,0,0,0-.58.15l-.3.19a1.5,1.5,0,0,0-.77,1.24l-.06.58a6.76,6.76,0,0,0,0,1.27c0,.38,0,1.44.05,3.15q0,1.41,0,2.68c0,.85,0,1.66.08,2.37v.42c-.07,1.11-.11,1.92-.11,2.41s0,1.09-.05,1.88-.06,1.54-.06,2.16a3.82,3.82,0,0,0,.46,2c.46.85,1.59.85,2,.85a2,2,0,0,0,1.57-.56,1.35,1.35,0,0,0,.36-1c0-.26,0-.7-.06-1.31s-.07-1.44-.11-2.65,0-2.34-.06-3.66v0a12.08,12.08,0,0,1,.51-2.86,10.57,10.57,0,0,1,.9-2.14,5.82,5.82,0,0,1,1-1.34,5.1,5.1,0,0,1,.54-.54h0a7.7,7.7,0,0,1,.89-.3,6.38,6.38,0,0,1,1.59-.2,5.55,5.55,0,0,1,1,.06c.33.11.59.21.75.29a3.77,3.77,0,0,0,2.31.36l.53-.08a2,2,0,0,0,1.16-.64,1.46,1.46,0,0,0,.29-1.56A1.79,1.79,0,0,0,286.46,87.79Z"/><path class="cls-1" d="M293.45,83.07l.16.11a2.16,2.16,0,0,0,1.25.37,2.31,2.31,0,0,0,1.24-.34,1.55,1.55,0,0,0,.77-1.32,1.49,1.49,0,0,0-.76-1.3l-.09-.06a2.21,2.21,0,0,0-2.61,0,1.6,1.6,0,0,0-.67,1.29A1.54,1.54,0,0,0,293.45,83.07Z"/><path class="cls-1" d="M297,103.83v-.12c-.07-.57-.15-1.24-.22-2.06s-.18-1.43-.21-2.12,0-1.75.06-3.19,0-2.68,0-3.53a20.23,20.23,0,0,0-.12-2.35c-.08-.61-.13-1-.17-1.32l-.06-.36a1.65,1.65,0,0,0-.91-1.18,2.31,2.31,0,0,0-1.29-.24,2.07,2.07,0,0,0-1.24.52,1.54,1.54,0,0,0-.51,1.43l.05.34a1,1,0,0,0,0,.15,5.4,5.4,0,0,1,.15,1c.05.53.08,1.22.08,2.08s0,2,0,3.42-.09,2.62-.05,3.4.11,1.56.22,2.33.16,1.55.26,2.14.16,1,.19,1.13a5.39,5.39,0,0,0,.2.83,1,1,0,0,0,.1.22,2.11,2.11,0,0,0,1.87,1h.15a2.32,2.32,0,0,0,1.83-.79l.18-.25a1.45,1.45,0,0,0,.2-1.63A1.91,1.91,0,0,0,297,103.83Z"/><path class="cls-1" d="M321.51,103.85a1.68,1.68,0,0,0-.35-.62c0-.14-.09-.27-.14-.38s-.05-.29-.08-.45a.94.94,0,0,0,0-.15,3.89,3.89,0,0,1-.14-.54,8.79,8.79,0,0,1-.1-.89q-.11-.69-.16-1.16a1,1,0,0,0,0-.13,3.8,3.8,0,0,1-.08-.87q-.06-.62-.11-1.08a1,1,0,0,0,0-.14,3.29,3.29,0,0,1-.11-.67c0-.31,0-.68-.08-1.12s-.05-.8-.05-1.28-.07-.78-.08-1,0-.45-.09-.76-.07-.61-.11-.94a10.92,10.92,0,0,1,0-1.19q-.05-.79-.05-1.25a1,1,0,0,0,0-.12,6.25,6.25,0,0,1,0-.75,1,1,0,0,0-.06-.35,1.68,1.68,0,0,0-1.12-.91,3.87,3.87,0,0,0-1.33-.23,1.6,1.6,0,0,0-1.11.38l-.06,0a11.17,11.17,0,0,0-1.21-.45,5.4,5.4,0,0,0-1.15-.22,8.49,8.49,0,0,0-1.5,0,6.26,6.26,0,0,0-1.74.31,10.88,10.88,0,0,0-1.18.44,10.12,10.12,0,0,0-1.28.71,13.79,13.79,0,0,0-1.19.76c-.27.2-.58.45-.93.74a8.55,8.55,0,0,0-1,.94,6,6,0,0,0-.76,1.13,9.36,9.36,0,0,0-.48,1.08,6.67,6.67,0,0,0-.33,1.16c-.08.39-.15.82-.23,1.3s-.14.93-.17,1.32-.06.82-.06,1.23,0,.85.06,1.36l.11,1.4a5,5,0,0,0,.21,1.25,8.44,8.44,0,0,0,.4,1,6.91,6.91,0,0,0,.72,1.2,6.78,6.78,0,0,0,1.35,1.16,10.32,10.32,0,0,0,1.46.86,8.67,8.67,0,0,0,1.33.43,4.11,4.11,0,0,0,2.31-.26,7.07,7.07,0,0,0,1.4-.84c.27-.24.58-.53.95-.9a11.45,11.45,0,0,0,.9-1.08c.23-.32.47-.67.73-1.1l.47-.91a9.68,9.68,0,0,0,.63-1.18c.23-.45.44-.9.61-1.3h0l0,.23c0,.41.07.78.11,1.12a1,1,0,0,0,0,.11,8.67,8.67,0,0,1,.15,1.1c.08.49.13.84.17,1s.07.4.11.62a.87.87,0,0,0,0,.12c.06.22.11.41.14.58a.89.89,0,0,0,0,.16c.07.19.16.45.28.85s.26.68.36.9a1.5,1.5,0,0,0,.92.81,1.6,1.6,0,0,0,.46.07,1.75,1.75,0,0,0,.57-.1,3.26,3.26,0,0,0,.59-.27,5.21,5.21,0,0,0,.51-.35,2.71,2.71,0,0,0,.34-.29,1,1,0,0,0,.4-1.08Zm-6.27-12.75a1,1,0,0,0,0,.1,2,2,0,0,1-.15.53,1,1,0,0,0,0,.14c-.07.27-.16.57-.26.88s-.21.63-.32.92a7.84,7.84,0,0,1-.47,1c-.18.41-.3.69-.36.82l-.37.77c-.19.37-.38.76-.6,1.25a9.92,9.92,0,0,1-.5,1.13l-.53,1c-.18.32-.36.62-.55.94a7.64,7.64,0,0,1-.48.77,6.92,6.92,0,0,1-.62.72,7.63,7.63,0,0,1-.68.63l-.1.09a.39.39,0,0,1-.13.06l-.09,0c-.23-.11-.53-.29-.86-.49a2.15,2.15,0,0,1-.56-.49,3.29,3.29,0,0,1-.38-.6,2.52,2.52,0,0,1-.2-.45,5.62,5.62,0,0,1-.08-.71l-.11-1.35c0-.45-.05-.84-.05-1.17a9,9,0,0,1,.05-1q.05-.5.16-1.13c.07-.43.14-.83.21-1.17s.14-.57.2-.78a3.5,3.5,0,0,1,.33-.66,2.65,2.65,0,0,1,.35-.56,5.85,5.85,0,0,1,.51-.52l.75-.57c.21-.15.51-.36.92-.62a8,8,0,0,1,.82-.47,3.39,3.39,0,0,1,.63-.2l.19-.07a1.27,1.27,0,0,1,.49-.06l.36,0h.19l.4.08a5.94,5.94,0,0,1,.75.29c.3.14.55.26.73.36l.39.23.14.09Z"/><path class="cls-1" d="M342.55,87.51l-.44,0a10.24,10.24,0,0,0-1.62,0l-2.91,0c0-1.14,0-2.23,0-3.27,0-1.46.08-2,.1-2.18s.07-.63.11-.94l.05-.49a1.06,1.06,0,0,0,0-.11,1.58,1.58,0,0,0-.67-1.27,2.19,2.19,0,0,0-1.24-.43h-.12a2.17,2.17,0,0,0-1.17.32,1.51,1.51,0,0,0-.77,1.22l0,.41c0,.31-.08.63-.11,1s-.08,1.16-.12,2.42c0,1.09,0,2.24,0,3.42l-1.72,0-2.71,0h-.62a2,2,0,0,0-1.35.34,1.57,1.57,0,0,0-.73,1.31,1.54,1.54,0,0,0,.7,1.29,2.51,2.51,0,0,0,1.29.41h.66l2.8,0h1.79l.07,1.35q.17,2.06.22,3t.19,2.9q.13,1.94.14,3.48t.11,2.44c0,.55.05.92.05,1.11a.94.94,0,0,0,0,.16c0,.24.08.46.12.69l.05.26a1.61,1.61,0,0,0,.91,1.12,2.24,2.24,0,0,0,1,.25h.24a2.07,2.07,0,0,0,1.21-.52,1.51,1.51,0,0,0,.49-1.43l0-.17a3.52,3.52,0,0,0-.07-.6,8,8,0,0,1-.07-1l-.08-2.34c0-1.07,0-2.3-.14-3.65S338,95.62,338,95s-.11-1.61-.22-3l-.06-1.22,3,0c.41,0,.79,0,.89,0l.55.08a2.12,2.12,0,0,0,1.31-.28,1.67,1.67,0,0,0,.87-1.12,1.51,1.51,0,0,0-.5-1.43A2.07,2.07,0,0,0,342.55,87.51Z"/><path class="cls-1" d="M350.26,83.07l.16.11a2.16,2.16,0,0,0,1.25.37,2.31,2.31,0,0,0,1.24-.34,1.55,1.55,0,0,0,.77-1.32,1.49,1.49,0,0,0-.76-1.3l-.09-.06a2.21,2.21,0,0,0-2.61,0,1.6,1.6,0,0,0-.67,1.29A1.54,1.54,0,0,0,350.26,83.07Z"/><path class="cls-1" d="M353.81,103.83v-.12c-.07-.57-.15-1.24-.22-2.06s-.18-1.43-.21-2.12,0-1.75.06-3.19,0-2.68,0-3.53a20.23,20.23,0,0,0-.12-2.35c-.08-.61-.13-1-.17-1.32l-.06-.36a1.65,1.65,0,0,0-.91-1.18,2.3,2.3,0,0,0-1.29-.24,2.08,2.08,0,0,0-1.24.52,1.54,1.54,0,0,0-.51,1.43l.05.34a1,1,0,0,0,0,.15,5.38,5.38,0,0,1,.15,1c.05.53.08,1.22.08,2.08s0,2,0,3.42-.09,2.62-.05,3.4.11,1.56.22,2.33.16,1.55.26,2.14.16,1,.19,1.13a5.39,5.39,0,0,0,.2.83,1,1,0,0,0,.1.22,2.11,2.11,0,0,0,1.87,1h.15a2.32,2.32,0,0,0,1.83-.79l.18-.25a1.45,1.45,0,0,0,.2-1.63A1.91,1.91,0,0,0,353.81,103.83Z"/><path class="cls-1" d="M377.61,85.83a2.33,2.33,0,0,0-1.28.1,1.72,1.72,0,0,0-1.05,1l-.15.39c-.1.24-.2.45-.28.62s-.31.59-.64,1.18a28.2,28.2,0,0,0-1.43,2.7,25.62,25.62,0,0,0-1.37,3.55c-.37,1.14-.72,2.27-1,3.36-.29.89-.56,1.79-.81,2.67-.43-1-.82-1.88-1.2-2.69a23.19,23.19,0,0,1-1.21-2.78c-.45-1.22-.82-2.14-1.12-2.84l-.94-2.15c-.32-.74-.6-1.39-.8-1.89a4.39,4.39,0,0,0-.92-1.66l-.3-.33a2,2,0,0,0-1.21-.57,2.18,2.18,0,0,0-1.33.22,1.73,1.73,0,0,0-.91,1.06,1.5,1.5,0,0,0,.41,1.51l.21.2a5.12,5.12,0,0,1,.26.6c.22.59.5,1.27.85,2.06s.63,1.43.93,2.13.65,1.58,1.09,2.73.92,2.25,1.31,3.07.81,1.65,1.23,2.61.83,1.87,1.13,2.45.58,1.05.8,1.42l.09.12a2.89,2.89,0,0,0,1.26.9,2.27,2.27,0,0,0,.74.13,2,2,0,0,0,.77-.15,3.18,3.18,0,0,0,.75-.42,1.77,1.77,0,0,0,.46-.52,6.46,6.46,0,0,0,.65-1.57q.22-.82.68-2.32t1-3.11l1.05-3.38a18.17,18.17,0,0,1,1.2-3.11c.5-1,.94-1.85,1.28-2.46s.68-1.15.79-1.35a6.53,6.53,0,0,0,.41-1L379,88a1.48,1.48,0,0,0-.25-1.45A1.92,1.92,0,0,0,377.61,85.83Z"/><path class="cls-1" d="M400.81,91.4q-.3-1.42-.44-1.86A2.7,2.7,0,0,0,398,87.49l-.89-.16a2.57,2.57,0,0,0-.62,0q-.3-.18-.59-.33a11.19,11.19,0,0,0-1.45-.56,12.32,12.32,0,0,0-1.58-.4,6.71,6.71,0,0,0-1.55,0,8.16,8.16,0,0,0-1.6.39,9.1,9.1,0,0,0-1.42.66,8.29,8.29,0,0,0-1.38,1.05q-.71.65-1,1l-.1.13a13,13,0,0,0-.87,1.82,18.87,18.87,0,0,0-.76,2.71,12,12,0,0,0-.23,2.89c.08.79.17,1.55.29,2.31a16.16,16.16,0,0,0,.89,2.68,14.76,14.76,0,0,0,1.25,2.39,7.65,7.65,0,0,0,2.14,1.93,8.86,8.86,0,0,0,2.63,1.26,5.45,5.45,0,0,0,1.56.23,5.74,5.74,0,0,0,1.59-.23,7.79,7.79,0,0,0,2.21-1,11.66,11.66,0,0,0,1.87-1.71,14.85,14.85,0,0,0,1.71-2.21,11.93,11.93,0,0,0,1.16-2.6,13.17,13.17,0,0,0,.47-2.94,10.1,10.1,0,0,0-.3-2.91C401.23,93.08,401,92.25,400.81,91.4Zm-6.87,12.25a3.53,3.53,0,0,1-.89.42,1,1,0,0,1-.6,0,5.42,5.42,0,0,1-1.47-.74,5.31,5.31,0,0,1-1.21-1,11.14,11.14,0,0,1-.92-1.84,10.47,10.47,0,0,1-.69-2.16,10.6,10.6,0,0,1-.25-1.9,9.53,9.53,0,0,1,.14-2.08,14.69,14.69,0,0,1,.67-2.25c.28-.71.42-1,.46-1.07l.64-.61a4.48,4.48,0,0,1,.73-.58,4.38,4.38,0,0,1,.79-.34,3.61,3.61,0,0,1,.49-.16l.42,0a3.73,3.73,0,0,1,.75.18,5.4,5.4,0,0,1,.78.31,5.65,5.65,0,0,1,.72.48l.59.44a2.28,2.28,0,0,0,1.21.38h.12l.3,0c.06.27.14.57.23.91q.33,1.27.6,2.47a7.69,7.69,0,0,1,.19,2.1,9.49,9.49,0,0,1-.41,2.28,6.08,6.08,0,0,1-.76,1.8,11.48,11.48,0,0,1-1.34,1.68A12.51,12.51,0,0,1,393.94,103.65Z"/><path class="cls-1" d="M423,89.27l-.45-.31a12.13,12.13,0,0,0-1.46-1,13.62,13.62,0,0,0-2.58-1.19,15.11,15.11,0,0,0-2.52-.69,7.45,7.45,0,0,0-2.86.23,7,7,0,0,0-2.65,1.2,3.89,3.89,0,0,0-1.26,1.64,4.07,4.07,0,0,0-.36,1.7,4.22,4.22,0,0,0,.56,2,7.31,7.31,0,0,0,2,2.14q1.17.92,1.95,1.49l1.66,1.25A8.7,8.7,0,0,1,416.31,99a8.17,8.17,0,0,1,.83,1.25,1.23,1.23,0,0,1,.11.77,1,1,0,0,1-.23.58,5.28,5.28,0,0,1-1.22.77,6.76,6.76,0,0,1-1.72.58,1,1,0,0,1-.62,0,4.48,4.48,0,0,1-1.38-1.08,5.1,5.1,0,0,1-1.24-1.75l-.42-1.29a1.79,1.79,0,0,0-1-1,2.35,2.35,0,0,0-1.27-.16,2,2,0,0,0-1.2.62,1.56,1.56,0,0,0-.4,1.39.91.91,0,0,0,0,.13L407,101a7.73,7.73,0,0,0,2.07,3,9.25,9.25,0,0,0,2.69,1.95,5.15,5.15,0,0,0,1.89.34,7.07,7.07,0,0,0,1.37-.14,12.15,12.15,0,0,0,2.75-.94A8.1,8.1,0,0,0,420,103.8a4.31,4.31,0,0,0,1.23-2.39,4.2,4.2,0,0,0-.47-2.71c-.33-.54-.7-1.08-1.11-1.64a11.41,11.41,0,0,0-1.8-1.78c-.66-.53-1.25-1-1.82-1.37s-1.09-.79-1.83-1.41a4.11,4.11,0,0,1-1.11-1.07,1.25,1.25,0,0,1-.2-.58,1.34,1.34,0,0,1,.08-.5,1.3,1.3,0,0,1,.4-.4,2.37,2.37,0,0,1,1-.39,4.06,4.06,0,0,1,.92-.14h.16a7.71,7.71,0,0,1,1.59.44,10.7,10.7,0,0,1,1.78.81l1.2.78.48.37a2.27,2.27,0,0,0,1.21.39h.12a2.17,2.17,0,0,0,1.17-.32,1.62,1.62,0,0,0,.8-1.23A1.49,1.49,0,0,0,423,89.27Z"/></g><g id="correcutia"><path class="cls-2" d="M372.47,1.26a4.12,4.12,0,0,0-2.94,1.17,3.72,3.72,0,0,0-1.26,2.72,4.09,4.09,0,0,0,1.1,3.11,4.62,4.62,0,0,0,3.14,1.2,3.51,3.51,0,0,0,2.66-1.2,4,4,0,0,0,1.2-2.9,4,4,0,0,0-1.19-2.89A3.52,3.52,0,0,0,372.47,1.26Z"/><path class="cls-2" d="M100.24,22.19a22.7,22.7,0,0,0-7.06-4.77,21.26,21.26,0,0,0-8.44-1.73,24.15,24.15,0,0,0-8.76,2,23,23,0,0,0-7.09,4.77,21.86,21.86,0,0,0-4.66,7,21.62,21.62,0,0,0-1.68,8.54A21.8,21.8,0,0,0,69,53.72a21.55,21.55,0,0,0,7,4.61A22.72,22.72,0,0,0,84.69,60a21.78,21.78,0,0,0,15.68-6.49,23.26,23.26,0,0,0,4.74-7,21.93,21.93,0,0,0,0-17.19A23.23,23.23,0,0,0,100.24,22.19ZM97.48,43.37a14.89,14.89,0,0,1-2.94,4.41,13.67,13.67,0,0,1-4.4,3A13.53,13.53,0,0,1,84.69,52a13.08,13.08,0,0,1-5.4-1.13,14.56,14.56,0,0,1-4.37-3,14.15,14.15,0,0,1-3-4.44,13.3,13.3,0,0,1-1.13-5.42,13.59,13.59,0,0,1,1.13-5.55A13.75,13.75,0,0,1,75,28a14.33,14.33,0,0,1,4.38-2.9A13.77,13.77,0,0,1,84.69,24h.1a13.9,13.9,0,0,1,9.75,4.22,14.28,14.28,0,0,1,4.07,9.58v.11A13.4,13.4,0,0,1,97.48,43.37Z"/><path class="cls-2" d="M133.79,15.89a24.43,24.43,0,0,0-8.49,1.89,23,23,0,0,0-7,4.58,22.36,22.36,0,0,0-4.76,6.78,20.61,20.61,0,0,0-1.87,8.23v18.7a4.51,4.51,0,0,0,1.28,3,3.81,3.81,0,0,0,2.84,1.07,3.93,3.93,0,0,0,3-1A4,4,0,0,0,120,56.47V38a13.69,13.69,0,0,1,1.13-5.54,14.26,14.26,0,0,1,3-4.38,13.63,13.63,0,0,1,9.72-4,4.37,4.37,0,0,0,3-1.27,3.7,3.7,0,0,0,1.18-2.75,4.77,4.77,0,0,0-1.37-3A3.83,3.83,0,0,0,133.79,15.89Z"/><path class="cls-2" d="M159.93,15.89a24.45,24.45,0,0,0-8.49,1.89,23,23,0,0,0-7,4.58,22.33,22.33,0,0,0-4.75,6.78,20.57,20.57,0,0,0-1.87,8.23v18.7a4.52,4.52,0,0,0,1.27,3A3.81,3.81,0,0,0,142,60.18a4,4,0,0,0,3-1,4,4,0,0,0,1.22-2.68V38a13.69,13.69,0,0,1,1.13-5.54,14.34,14.34,0,0,1,3-4.38,13.6,13.6,0,0,1,9.72-4,4.36,4.36,0,0,0,3-1.27,3.7,3.7,0,0,0,1.18-2.75,4.77,4.77,0,0,0-1.37-3A3.84,3.84,0,0,0,159.93,15.89Z"/><path class="cls-2" d="M202.52,22.55a24.38,24.38,0,0,0-7.16-4.94A20,20,0,0,0,187,15.79a20.27,20.27,0,0,0-8.43,1.81,23.64,23.64,0,0,0-7.1,4.93,24,24,0,0,0-4.84,7.15,20.26,20.26,0,0,0-1.77,8.25,21.27,21.27,0,0,0,1.78,8.48,23.22,23.22,0,0,0,4.87,7.21,23.55,23.55,0,0,0,7.14,4.88,18.36,18.36,0,0,0,8.25,1.57,29.47,29.47,0,0,0,6.61-.89,13.27,13.27,0,0,0,5-2.51,3.86,3.86,0,0,0,1-2.07,4,4,0,0,0-.31-2.25,4.39,4.39,0,0,0-3.84-2.55,3.45,3.45,0,0,0-1.09.17,15.46,15.46,0,0,0-1.48.61,14.56,14.56,0,0,1-2.41.87,13,13,0,0,1-3.41.4c-4.81,0-8.76-2.44-11.44-7.06L173.4,41H205.2a4.84,4.84,0,0,0,3.07-.91,2.5,2.5,0,0,0,1-2.19,19.63,19.63,0,0,0-1.81-8.27A24.44,24.44,0,0,0,202.52,22.55Zm-29,12.19,2-3.71a13.3,13.3,0,0,1,5-5.42A12.8,12.8,0,0,1,198.49,31l2,3.71Z"/><path class="cls-2" d="M252.82,15.79a20.3,20.3,0,0,0-8.44,1.81,24.76,24.76,0,0,0-7.17,4.9,22.82,22.82,0,0,0-4.86,7.07,20.46,20.46,0,0,0-1.78,8.35,20.71,20.71,0,0,0,1.78,8.46,23.05,23.05,0,0,0,11.91,11.91,21,21,0,0,0,8.56,1.77,21.43,21.43,0,0,0,8.49-1.63,22.6,22.6,0,0,0,7-4.81,3.65,3.65,0,0,0,.68-1.18,3.83,3.83,0,0,0,.23-1.46,3.73,3.73,0,0,0-.34-1.43,3.25,3.25,0,0,0-.81-1.09l-.2-.2a3.88,3.88,0,0,0-5.63,0l-.2.2a13.36,13.36,0,0,1-9.17,3.39,12.21,12.21,0,0,1-5.46-1,15.19,15.19,0,0,1-4.39-3,13.79,13.79,0,0,1-3.09-4.46,13.39,13.39,0,0,1-1.13-5.43,12.82,12.82,0,0,1,1.14-5.31,14.6,14.6,0,0,1,3-4.36,15.27,15.27,0,0,1,4.38-3,13.06,13.06,0,0,1,5.49-1.2,13.39,13.39,0,0,1,9.22,3.5l.15.14a3.3,3.3,0,0,0,2.57,1h.2A4.47,4.47,0,0,0,268,27.55a3.8,3.8,0,0,0,1.2-2.69,3.61,3.61,0,0,0-.9-2.72A21,21,0,0,0,252.82,15.79Z"/><path class="cls-2" d="M314.8,15.69A4,4,0,0,0,311.93,17a4,4,0,0,0-1.24,2.86V38.45a13.11,13.11,0,0,1-1.14,5.41,12.65,12.65,0,0,1-3.11,4.3,14.53,14.53,0,0,1-4.35,2.7,14,14,0,0,1-10.65-.14,13.94,13.94,0,0,1-7.35-7.36A13.34,13.34,0,0,1,283,37.94V20a4.16,4.16,0,1,0-8.33-.1V38.65a19.6,19.6,0,0,0,1.8,8.27,22.82,22.82,0,0,0,12,11.68,19.15,19.15,0,0,0,8.3,1.49h.1a21.7,21.7,0,0,0,8.68-1.73,22.42,22.42,0,0,0,11.83-11.83,21.56,21.56,0,0,0,1.73-8.58V19.66a4.13,4.13,0,0,0-1.35-2.72A4,4,0,0,0,314.8,15.69Z"/><path class="cls-2" d="M363.5,48.15a4.47,4.47,0,0,0-3-1.34A4.87,4.87,0,0,0,357.3,48a11.89,11.89,0,0,1-4.12,2.63,15.36,15.36,0,0,1-5.43.88,13.64,13.64,0,0,1-5.55-1.13,13.41,13.41,0,0,1-4.43-3.12,14.6,14.6,0,0,1-2.88-4.47,13.91,13.91,0,0,1-1.06-5.39V23.71h20a3.8,3.8,0,0,0,2.79-1.33,4.1,4.1,0,0,0,1.32-3,4.39,4.39,0,0,0-1.19-3.11,3.65,3.65,0,0,0-2.92-1.21h-20V4.51a5.07,5.07,0,0,0-1.43-3.28,3.93,3.93,0,0,0-3-1.23,4.61,4.61,0,0,0-3.17,1.21A3.32,3.32,0,0,0,325,3.91V37.43a23.55,23.55,0,0,0,2,9.31A21.8,21.8,0,0,0,332,53.87a22.64,22.64,0,0,0,7.43,4.59,25.4,25.4,0,0,0,9.09,1.62,20.63,20.63,0,0,0,8.18-1.63,23.5,23.5,0,0,0,7.09-4.79,2.84,2.84,0,0,0,.68-1.13,4.43,4.43,0,0,0,.24-1.62,4.31,4.31,0,0,0-.35-1.54A3.61,3.61,0,0,0,363.5,48.15Z"/><path class="cls-2" d="M373.08.51a4.14,4.14,0,0,0-3,1.17,3.73,3.73,0,0,0-1.27,2.73A4.12,4.12,0,0,0,370,7.54a4.64,4.64,0,0,0,3.16,1.2,3.53,3.53,0,0,0,2.67-1.2A4,4,0,0,0,377,4.63a4,4,0,0,0-1.2-2.91A3.54,3.54,0,0,0,373.08.51Z"/><path class="cls-2" d="M372.78,60.39a4.31,4.31,0,0,0,2.94-1.25,3.91,3.91,0,0,0,1.05-2.86v-36a5,5,0,0,0-1.33-3.09,3.3,3.3,0,0,0-2.58-1.13,4.48,4.48,0,0,0-2.91,1.2,3.77,3.77,0,0,0-1.31,2.61V56.5a4.65,4.65,0,0,0,1.4,2.89A4,4,0,0,0,372.78,60.39Z"/><path class="cls-2" d="M445.05,39.44a1.76,1.76,0,0,0-.84-2.51c-1.06-.53-2.7.75-2.7.75-.7-.51-1.65-3.84.84-7.39a8,8,0,0,1,6.73-3.05h.15c4.13.06,7.06,2.1,8.7,6.07,2.53,6.11.91,12.55-4.45,17.68-2.63,2.51-5.3,3.62-9.68,3.63-7.36,0-16.36-3.86-16.88-13.21V37.94a21.46,21.46,0,0,0-1.5-8,23.32,23.32,0,0,0-4.14-6.82,21.76,21.76,0,0,0-6.21-4.88,21.3,21.3,0,0,0-7.71-2.38,8.11,8.11,0,0,0-1.1-.09h-1.48a21.39,21.39,0,0,0-12.24,3.64,22.35,22.35,0,0,0-8.09,9.64A24.45,24.45,0,0,0,383,33.4a20.65,20.65,0,0,0,0,9.06,24.5,24.5,0,0,0,1.43,4.35,22.75,22.75,0,0,0,8.09,9.58,21.19,21.19,0,0,0,12.23,3.69,22.55,22.55,0,0,0,5-.54A24.34,24.34,0,0,0,414.28,58l.58-.33.09-.05a28.62,28.62,0,0,0,4-2.55,3.47,3.47,0,0,1,.67-.46,6.72,6.72,0,0,1,3.29-.88,6.33,6.33,0,0,1,3.44,1l.23.17a23.46,23.46,0,0,0,14.79,5.5h0a21.51,21.51,0,0,0,9.49-2.22c8.52-4.21,13.3-12.31,12.06-22-.9-7-6.07-11.57-10.5-12.13a14.65,14.65,0,0,0-1.76-.35c-4.94,0-9.78,2.52-11.5,6a9.29,9.29,0,0,0,0,9,4.11,4.11,0,0,0,3.26,2.2,3.7,3.7,0,0,0,2.31-.95m-27.31,3.59a14.22,14.22,0,0,1-3,4.38,13.66,13.66,0,0,1-4.43,2.94,14,14,0,0,1-5.39,1.05,12.64,12.64,0,0,1-5.2-1.14,15.15,15.15,0,0,1-4.34-2.93,14.72,14.72,0,0,1-3.08-4.37,13,13,0,0,1-1.2-5.48A13.21,13.21,0,0,1,392,32.6a14.54,14.54,0,0,1,7.38-7.45,13.13,13.13,0,0,1,10.64,0,14.28,14.28,0,0,1,4.44,3,14.45,14.45,0,0,1,3,4.43,13.08,13.08,0,0,1,1.13,5.34A13.58,13.58,0,0,1,417.48,43.49Z"/><path class="cls-2" d="M56.5,48.48l-.21-.21a3.89,3.89,0,0,0-5.64,0l-.19.19a13.35,13.35,0,0,1-9.16,3.39,12.17,12.17,0,0,1-5.46-1,15.31,15.31,0,0,1-4.4-3,13.93,13.93,0,0,1-3.09-4.46,13.43,13.43,0,0,1-1.13-5.43,12.87,12.87,0,0,1,1.14-5.3,14.72,14.72,0,0,1,3-4.36,15.32,15.32,0,0,1,4.4-3.05A13,13,0,0,1,41.25,24a13.34,13.34,0,0,1,9.22,3.5l.14.14a3.32,3.32,0,0,0,2.58,1.05h.2a4.44,4.44,0,0,0,3.05-1.15,3.79,3.79,0,0,0,1.21-2.7,3.61,3.61,0,0,0-.9-2.73,21,21,0,0,0-15.49-6.34,20.21,20.21,0,0,0-8.43,1.81,24.73,24.73,0,0,0-7.17,4.9,22.4,22.4,0,0,0-3.84,5,14.37,14.37,0,0,1-7.67,3.62,12.27,12.27,0,0,1-6.39-1C5.54,29.12,2.83,24.83,4,20.53c.75-2.79,3-5.18,5.73-5.4h.1c3.86-.63,6,3.85,4.22,5.94-.23-.76-1.62-.48-1.62-.48-.32-.06-1,.76-1.18,1.21s.29,1.29.63,1.56,1.27.21,1.77.17c.77-.06,1.43-.87,2.06-1.81a5.12,5.12,0,0,0,.41-5.27,7,7,0,0,0-6.9-3.81,9.41,9.41,0,0,0-1.13.15c-2.92.57-6.74,3.91-7.74,8.53C-1,27.71,1.76,32.79,7.06,35.14a12.72,12.72,0,0,0,6.05,1h0a25.55,25.55,0,0,0,6-1c0,.28-.08.55-.11.85l0,2.4a20.66,20.66,0,0,0,1.73,8A23,23,0,0,0,32.69,58.31a21,21,0,0,0,8.56,1.77,21.39,21.39,0,0,0,8.48-1.63,22.34,22.34,0,0,0,7-4.82,3.66,3.66,0,0,0,.68-1.19A3.89,3.89,0,0,0,57.64,51a3.72,3.72,0,0,0-.33-1.41A3.17,3.17,0,0,0,56.5,48.48Z"/></g></g></g></g></svg>